G04 #@! TF.GenerationSoftware,KiCad,Pcbnew,6.0.5-a6ca702e91~116~ubuntu20.04.1*
G04 #@! TF.CreationDate,2022-06-19T16:15:55+02:00*
G04 #@! TF.ProjectId,PCF8574,50434638-3537-4342-9e6b-696361645f70,1.0*
G04 #@! TF.SameCoordinates,Original*
G04 #@! TF.FileFunction,Legend,Top*
G04 #@! TF.FilePolarity,Positive*
%FSLAX46Y46*%
G04 Gerber Fmt 4.6, Leading zero omitted, Abs format (unit mm)*
G04 Created by KiCad (PCBNEW 6.0.5-a6ca702e91~116~ubuntu20.04.1) date 2022-06-19 16:15:55*
%MOMM*%
%LPD*%
G01*
G04 APERTURE LIST*
G04 Aperture macros list*
%AMRoundRect*
0 Rectangle with rounded corners*
0 $1 Rounding radius*
0 $2 $3 $4 $5 $6 $7 $8 $9 X,Y pos of 4 corners*
0 Add a 4 corners polygon primitive as box body*
4,1,4,$2,$3,$4,$5,$6,$7,$8,$9,$2,$3,0*
0 Add four circle primitives for the rounded corners*
1,1,$1+$1,$2,$3*
1,1,$1+$1,$4,$5*
1,1,$1+$1,$6,$7*
1,1,$1+$1,$8,$9*
0 Add four rect primitives between the rounded corners*
20,1,$1+$1,$2,$3,$4,$5,0*
20,1,$1+$1,$4,$5,$6,$7,0*
20,1,$1+$1,$6,$7,$8,$9,0*
20,1,$1+$1,$8,$9,$2,$3,0*%
G04 Aperture macros list end*
%ADD10C,0.200000*%
%ADD11C,0.600000*%
%ADD12C,0.150000*%
%ADD13C,0.120000*%
%ADD14C,0.010000*%
%ADD15C,1.702000*%
%ADD16O,1.702000X1.702000*%
%ADD17RoundRect,0.051000X-0.800000X-0.800000X0.800000X-0.800000X0.800000X0.800000X-0.800000X0.800000X0*%
%ADD18RoundRect,0.051000X-0.900000X-0.900000X0.900000X-0.900000X0.900000X0.900000X-0.900000X0.900000X0*%
%ADD19C,1.902000*%
%ADD20RoundRect,0.051000X0.850000X0.850000X-0.850000X0.850000X-0.850000X-0.850000X0.850000X-0.850000X0*%
%ADD21O,1.802000X1.802000*%
%ADD22RoundRect,0.051000X-0.850000X0.850000X-0.850000X-0.850000X0.850000X-0.850000X0.850000X0.850000X0*%
%ADD23C,1.502000*%
%ADD24C,2.102000*%
G04 APERTURE END LIST*
D10*
X65786000Y-97739200D02*
X67767200Y-97739200D01*
D11*
X103811902Y-96393000D02*
G75*
G03*
X103811902Y-96393000I-154502J0D01*
G01*
D10*
X94720514Y-95166666D02*
X95196704Y-95166666D01*
X94625276Y-95452380D02*
X94958609Y-94452380D01*
X95291942Y-95452380D01*
X95577657Y-94547619D02*
X95625276Y-94500000D01*
X95720514Y-94452380D01*
X95958609Y-94452380D01*
X96053847Y-94500000D01*
X96101466Y-94547619D01*
X96149085Y-94642857D01*
X96149085Y-94738095D01*
X96101466Y-94880952D01*
X95530038Y-95452380D01*
X96149085Y-95452380D01*
D12*
X62335595Y-117952380D02*
X62335595Y-116952380D01*
X62716547Y-116952380D01*
X62811785Y-117000000D01*
X62859404Y-117047619D01*
X62907023Y-117142857D01*
X62907023Y-117285714D01*
X62859404Y-117380952D01*
X62811785Y-117428571D01*
X62716547Y-117476190D01*
X62335595Y-117476190D01*
X63907023Y-117857142D02*
X63859404Y-117904761D01*
X63716547Y-117952380D01*
X63621309Y-117952380D01*
X63478452Y-117904761D01*
X63383214Y-117809523D01*
X63335595Y-117714285D01*
X63287976Y-117523809D01*
X63287976Y-117380952D01*
X63335595Y-117190476D01*
X63383214Y-117095238D01*
X63478452Y-117000000D01*
X63621309Y-116952380D01*
X63716547Y-116952380D01*
X63859404Y-117000000D01*
X63907023Y-117047619D01*
X64668928Y-117428571D02*
X64335595Y-117428571D01*
X64335595Y-117952380D02*
X64335595Y-116952380D01*
X64811785Y-116952380D01*
X65335595Y-117380952D02*
X65240357Y-117333333D01*
X65192738Y-117285714D01*
X65145119Y-117190476D01*
X65145119Y-117142857D01*
X65192738Y-117047619D01*
X65240357Y-117000000D01*
X65335595Y-116952380D01*
X65526071Y-116952380D01*
X65621309Y-117000000D01*
X65668928Y-117047619D01*
X65716547Y-117142857D01*
X65716547Y-117190476D01*
X65668928Y-117285714D01*
X65621309Y-117333333D01*
X65526071Y-117380952D01*
X65335595Y-117380952D01*
X65240357Y-117428571D01*
X65192738Y-117476190D01*
X65145119Y-117571428D01*
X65145119Y-117761904D01*
X65192738Y-117857142D01*
X65240357Y-117904761D01*
X65335595Y-117952380D01*
X65526071Y-117952380D01*
X65621309Y-117904761D01*
X65668928Y-117857142D01*
X65716547Y-117761904D01*
X65716547Y-117571428D01*
X65668928Y-117476190D01*
X65621309Y-117428571D01*
X65526071Y-117380952D01*
X66621309Y-116952380D02*
X66145119Y-116952380D01*
X66097500Y-117428571D01*
X66145119Y-117380952D01*
X66240357Y-117333333D01*
X66478452Y-117333333D01*
X66573690Y-117380952D01*
X66621309Y-117428571D01*
X66668928Y-117523809D01*
X66668928Y-117761904D01*
X66621309Y-117857142D01*
X66573690Y-117904761D01*
X66478452Y-117952380D01*
X66240357Y-117952380D01*
X66145119Y-117904761D01*
X66097500Y-117857142D01*
X67002261Y-116952380D02*
X67668928Y-116952380D01*
X67240357Y-117952380D01*
X68478452Y-117285714D02*
X68478452Y-117952380D01*
X68240357Y-116904761D02*
X68002261Y-117619047D01*
X68621309Y-117619047D01*
X70049880Y-118333333D02*
X70002261Y-118285714D01*
X69907023Y-118142857D01*
X69859404Y-118047619D01*
X69811785Y-117904761D01*
X69764166Y-117666666D01*
X69764166Y-117476190D01*
X69811785Y-117238095D01*
X69859404Y-117095238D01*
X69907023Y-117000000D01*
X70002261Y-116857142D01*
X70049880Y-116809523D01*
X70430833Y-117952380D02*
X70430833Y-116952380D01*
X71621309Y-116904761D02*
X70764166Y-118190476D01*
X72145119Y-116952380D02*
X72335595Y-116952380D01*
X72430833Y-117000000D01*
X72526071Y-117095238D01*
X72573690Y-117285714D01*
X72573690Y-117619047D01*
X72526071Y-117809523D01*
X72430833Y-117904761D01*
X72335595Y-117952380D01*
X72145119Y-117952380D01*
X72049880Y-117904761D01*
X71954642Y-117809523D01*
X71907023Y-117619047D01*
X71907023Y-117285714D01*
X71954642Y-117095238D01*
X72049880Y-117000000D01*
X72145119Y-116952380D01*
X74145119Y-117904761D02*
X74049880Y-117952380D01*
X73859404Y-117952380D01*
X73764166Y-117904761D01*
X73716547Y-117809523D01*
X73716547Y-117428571D01*
X73764166Y-117333333D01*
X73859404Y-117285714D01*
X74049880Y-117285714D01*
X74145119Y-117333333D01*
X74192738Y-117428571D01*
X74192738Y-117523809D01*
X73716547Y-117619047D01*
X74526071Y-117952380D02*
X75049880Y-117285714D01*
X74526071Y-117285714D02*
X75049880Y-117952380D01*
X75430833Y-117285714D02*
X75430833Y-118285714D01*
X75430833Y-117333333D02*
X75526071Y-117285714D01*
X75716547Y-117285714D01*
X75811785Y-117333333D01*
X75859404Y-117380952D01*
X75907023Y-117476190D01*
X75907023Y-117761904D01*
X75859404Y-117857142D01*
X75811785Y-117904761D01*
X75716547Y-117952380D01*
X75526071Y-117952380D01*
X75430833Y-117904761D01*
X76764166Y-117952380D02*
X76764166Y-117428571D01*
X76716547Y-117333333D01*
X76621309Y-117285714D01*
X76430833Y-117285714D01*
X76335595Y-117333333D01*
X76764166Y-117904761D02*
X76668928Y-117952380D01*
X76430833Y-117952380D01*
X76335595Y-117904761D01*
X76287976Y-117809523D01*
X76287976Y-117714285D01*
X76335595Y-117619047D01*
X76430833Y-117571428D01*
X76668928Y-117571428D01*
X76764166Y-117523809D01*
X77240357Y-117285714D02*
X77240357Y-117952380D01*
X77240357Y-117380952D02*
X77287976Y-117333333D01*
X77383214Y-117285714D01*
X77526071Y-117285714D01*
X77621309Y-117333333D01*
X77668928Y-117428571D01*
X77668928Y-117952380D01*
X78573690Y-117952380D02*
X78573690Y-116952380D01*
X78573690Y-117904761D02*
X78478452Y-117952380D01*
X78287976Y-117952380D01*
X78192738Y-117904761D01*
X78145119Y-117857142D01*
X78097500Y-117761904D01*
X78097500Y-117476190D01*
X78145119Y-117380952D01*
X78192738Y-117333333D01*
X78287976Y-117285714D01*
X78478452Y-117285714D01*
X78573690Y-117333333D01*
X79430833Y-117904761D02*
X79335595Y-117952380D01*
X79145119Y-117952380D01*
X79049880Y-117904761D01*
X79002261Y-117809523D01*
X79002261Y-117428571D01*
X79049880Y-117333333D01*
X79145119Y-117285714D01*
X79335595Y-117285714D01*
X79430833Y-117333333D01*
X79478452Y-117428571D01*
X79478452Y-117523809D01*
X79002261Y-117619047D01*
X79907023Y-117952380D02*
X79907023Y-117285714D01*
X79907023Y-117476190D02*
X79954642Y-117380952D01*
X80002261Y-117333333D01*
X80097500Y-117285714D01*
X80192738Y-117285714D01*
X81145119Y-117285714D02*
X81526071Y-117285714D01*
X81287976Y-117952380D02*
X81287976Y-117095238D01*
X81335595Y-117000000D01*
X81430833Y-116952380D01*
X81526071Y-116952380D01*
X82002261Y-117952380D02*
X81907023Y-117904761D01*
X81859404Y-117857142D01*
X81811785Y-117761904D01*
X81811785Y-117476190D01*
X81859404Y-117380952D01*
X81907023Y-117333333D01*
X82002261Y-117285714D01*
X82145119Y-117285714D01*
X82240357Y-117333333D01*
X82287976Y-117380952D01*
X82335595Y-117476190D01*
X82335595Y-117761904D01*
X82287976Y-117857142D01*
X82240357Y-117904761D01*
X82145119Y-117952380D01*
X82002261Y-117952380D01*
X82764166Y-117952380D02*
X82764166Y-117285714D01*
X82764166Y-117476190D02*
X82811785Y-117380952D01*
X82859404Y-117333333D01*
X82954642Y-117285714D01*
X83049880Y-117285714D01*
X84145119Y-117952380D02*
X84145119Y-116952380D01*
X84573690Y-117047619D02*
X84621309Y-117000000D01*
X84716547Y-116952380D01*
X84954642Y-116952380D01*
X85049880Y-117000000D01*
X85097500Y-117047619D01*
X85145119Y-117142857D01*
X85145119Y-117238095D01*
X85097500Y-117380952D01*
X84526071Y-117952380D01*
X85145119Y-117952380D01*
X86145119Y-117857142D02*
X86097500Y-117904761D01*
X85954642Y-117952380D01*
X85859404Y-117952380D01*
X85716547Y-117904761D01*
X85621309Y-117809523D01*
X85573690Y-117714285D01*
X85526071Y-117523809D01*
X85526071Y-117380952D01*
X85573690Y-117190476D01*
X85621309Y-117095238D01*
X85716547Y-117000000D01*
X85859404Y-116952380D01*
X85954642Y-116952380D01*
X86097500Y-117000000D01*
X86145119Y-117047619D01*
X86478452Y-118333333D02*
X86526071Y-118285714D01*
X86621309Y-118142857D01*
X86668928Y-118047619D01*
X86716547Y-117904761D01*
X86764166Y-117666666D01*
X86764166Y-117476190D01*
X86716547Y-117238095D01*
X86668928Y-117095238D01*
X86621309Y-117000000D01*
X86526071Y-116857142D01*
X86478452Y-116809523D01*
X88383214Y-117904761D02*
X88287976Y-117952380D01*
X88097500Y-117952380D01*
X88002261Y-117904761D01*
X87954642Y-117809523D01*
X87954642Y-117428571D01*
X88002261Y-117333333D01*
X88097500Y-117285714D01*
X88287976Y-117285714D01*
X88383214Y-117333333D01*
X88430833Y-117428571D01*
X88430833Y-117523809D01*
X87954642Y-117619047D01*
X89287976Y-117952380D02*
X89287976Y-116952380D01*
X89287976Y-117904761D02*
X89192738Y-117952380D01*
X89002261Y-117952380D01*
X88907023Y-117904761D01*
X88859404Y-117857142D01*
X88811785Y-117761904D01*
X88811785Y-117476190D01*
X88859404Y-117380952D01*
X88907023Y-117333333D01*
X89002261Y-117285714D01*
X89192738Y-117285714D01*
X89287976Y-117333333D01*
X90192738Y-117285714D02*
X90192738Y-117952380D01*
X89764166Y-117285714D02*
X89764166Y-117809523D01*
X89811785Y-117904761D01*
X89907023Y-117952380D01*
X90049880Y-117952380D01*
X90145119Y-117904761D01*
X90192738Y-117857142D01*
X91097500Y-117904761D02*
X91002261Y-117952380D01*
X90811785Y-117952380D01*
X90716547Y-117904761D01*
X90668928Y-117857142D01*
X90621309Y-117761904D01*
X90621309Y-117476190D01*
X90668928Y-117380952D01*
X90716547Y-117333333D01*
X90811785Y-117285714D01*
X91002261Y-117285714D01*
X91097500Y-117333333D01*
X91954642Y-117952380D02*
X91954642Y-117428571D01*
X91907023Y-117333333D01*
X91811785Y-117285714D01*
X91621309Y-117285714D01*
X91526071Y-117333333D01*
X91954642Y-117904761D02*
X91859404Y-117952380D01*
X91621309Y-117952380D01*
X91526071Y-117904761D01*
X91478452Y-117809523D01*
X91478452Y-117714285D01*
X91526071Y-117619047D01*
X91621309Y-117571428D01*
X91859404Y-117571428D01*
X91954642Y-117523809D01*
X92287976Y-117285714D02*
X92668928Y-117285714D01*
X92430833Y-116952380D02*
X92430833Y-117809523D01*
X92478452Y-117904761D01*
X92573690Y-117952380D01*
X92668928Y-117952380D01*
X93002261Y-117952380D02*
X93002261Y-117285714D01*
X93002261Y-116952380D02*
X92954642Y-117000000D01*
X93002261Y-117047619D01*
X93049880Y-117000000D01*
X93002261Y-116952380D01*
X93002261Y-117047619D01*
X93621309Y-117952380D02*
X93526071Y-117904761D01*
X93478452Y-117857142D01*
X93430833Y-117761904D01*
X93430833Y-117476190D01*
X93478452Y-117380952D01*
X93526071Y-117333333D01*
X93621309Y-117285714D01*
X93764166Y-117285714D01*
X93859404Y-117333333D01*
X93907023Y-117380952D01*
X93954642Y-117476190D01*
X93954642Y-117761904D01*
X93907023Y-117857142D01*
X93859404Y-117904761D01*
X93764166Y-117952380D01*
X93621309Y-117952380D01*
X94383214Y-117285714D02*
X94383214Y-117952380D01*
X94383214Y-117380952D02*
X94430833Y-117333333D01*
X94526071Y-117285714D01*
X94668928Y-117285714D01*
X94764166Y-117333333D01*
X94811785Y-117428571D01*
X94811785Y-117952380D01*
X95716547Y-117952380D02*
X95716547Y-117428571D01*
X95668928Y-117333333D01*
X95573690Y-117285714D01*
X95383214Y-117285714D01*
X95287976Y-117333333D01*
X95716547Y-117904761D02*
X95621309Y-117952380D01*
X95383214Y-117952380D01*
X95287976Y-117904761D01*
X95240357Y-117809523D01*
X95240357Y-117714285D01*
X95287976Y-117619047D01*
X95383214Y-117571428D01*
X95621309Y-117571428D01*
X95716547Y-117523809D01*
X96335595Y-117952380D02*
X96240357Y-117904761D01*
X96192738Y-117809523D01*
X96192738Y-116952380D01*
X97478452Y-117952380D02*
X97478452Y-117285714D01*
X97478452Y-117380952D02*
X97526071Y-117333333D01*
X97621309Y-117285714D01*
X97764166Y-117285714D01*
X97859404Y-117333333D01*
X97907023Y-117428571D01*
X97907023Y-117952380D01*
X97907023Y-117428571D02*
X97954642Y-117333333D01*
X98049880Y-117285714D01*
X98192738Y-117285714D01*
X98287976Y-117333333D01*
X98335595Y-117428571D01*
X98335595Y-117952380D01*
X98954642Y-117952380D02*
X98859404Y-117904761D01*
X98811785Y-117857142D01*
X98764166Y-117761904D01*
X98764166Y-117476190D01*
X98811785Y-117380952D01*
X98859404Y-117333333D01*
X98954642Y-117285714D01*
X99097500Y-117285714D01*
X99192738Y-117333333D01*
X99240357Y-117380952D01*
X99287976Y-117476190D01*
X99287976Y-117761904D01*
X99240357Y-117857142D01*
X99192738Y-117904761D01*
X99097500Y-117952380D01*
X98954642Y-117952380D01*
X100145119Y-117952380D02*
X100145119Y-116952380D01*
X100145119Y-117904761D02*
X100049880Y-117952380D01*
X99859404Y-117952380D01*
X99764166Y-117904761D01*
X99716547Y-117857142D01*
X99668928Y-117761904D01*
X99668928Y-117476190D01*
X99716547Y-117380952D01*
X99764166Y-117333333D01*
X99859404Y-117285714D01*
X100049880Y-117285714D01*
X100145119Y-117333333D01*
X101049880Y-117285714D02*
X101049880Y-117952380D01*
X100621309Y-117285714D02*
X100621309Y-117809523D01*
X100668928Y-117904761D01*
X100764166Y-117952380D01*
X100907023Y-117952380D01*
X101002261Y-117904761D01*
X101049880Y-117857142D01*
X101668928Y-117952380D02*
X101573690Y-117904761D01*
X101526071Y-117809523D01*
X101526071Y-116952380D01*
X102430833Y-117904761D02*
X102335595Y-117952380D01*
X102145119Y-117952380D01*
X102049880Y-117904761D01*
X102002261Y-117809523D01*
X102002261Y-117428571D01*
X102049880Y-117333333D01*
X102145119Y-117285714D01*
X102335595Y-117285714D01*
X102430833Y-117333333D01*
X102478452Y-117428571D01*
X102478452Y-117523809D01*
X102002261Y-117619047D01*
X103573690Y-117285714D02*
X103811785Y-117952380D01*
X104049880Y-117285714D01*
X104954642Y-117952380D02*
X104383214Y-117952380D01*
X104668928Y-117952380D02*
X104668928Y-116952380D01*
X104573690Y-117095238D01*
X104478452Y-117190476D01*
X104383214Y-117238095D01*
X105383214Y-117857142D02*
X105430833Y-117904761D01*
X105383214Y-117952380D01*
X105335595Y-117904761D01*
X105383214Y-117857142D01*
X105383214Y-117952380D01*
X106049880Y-116952380D02*
X106145119Y-116952380D01*
X106240357Y-117000000D01*
X106287976Y-117047619D01*
X106335595Y-117142857D01*
X106383214Y-117333333D01*
X106383214Y-117571428D01*
X106335595Y-117761904D01*
X106287976Y-117857142D01*
X106240357Y-117904761D01*
X106145119Y-117952380D01*
X106049880Y-117952380D01*
X105954642Y-117904761D01*
X105907023Y-117857142D01*
X105859404Y-117761904D01*
X105811785Y-117571428D01*
X105811785Y-117333333D01*
X105859404Y-117142857D01*
X105907023Y-117047619D01*
X105954642Y-117000000D01*
X106049880Y-116952380D01*
X128234704Y-117952380D02*
X128234704Y-116952380D01*
X128472800Y-116952380D01*
X128615657Y-117000000D01*
X128710895Y-117095238D01*
X128758514Y-117190476D01*
X128806133Y-117380952D01*
X128806133Y-117523809D01*
X128758514Y-117714285D01*
X128710895Y-117809523D01*
X128615657Y-117904761D01*
X128472800Y-117952380D01*
X128234704Y-117952380D01*
X129615657Y-117904761D02*
X129520419Y-117952380D01*
X129329942Y-117952380D01*
X129234704Y-117904761D01*
X129187085Y-117809523D01*
X129187085Y-117428571D01*
X129234704Y-117333333D01*
X129329942Y-117285714D01*
X129520419Y-117285714D01*
X129615657Y-117333333D01*
X129663276Y-117428571D01*
X129663276Y-117523809D01*
X129187085Y-117619047D01*
X130044228Y-117904761D02*
X130139466Y-117952380D01*
X130329942Y-117952380D01*
X130425180Y-117904761D01*
X130472800Y-117809523D01*
X130472800Y-117761904D01*
X130425180Y-117666666D01*
X130329942Y-117619047D01*
X130187085Y-117619047D01*
X130091847Y-117571428D01*
X130044228Y-117476190D01*
X130044228Y-117428571D01*
X130091847Y-117333333D01*
X130187085Y-117285714D01*
X130329942Y-117285714D01*
X130425180Y-117333333D01*
X130901371Y-117952380D02*
X130901371Y-117285714D01*
X130901371Y-116952380D02*
X130853752Y-117000000D01*
X130901371Y-117047619D01*
X130948990Y-117000000D01*
X130901371Y-116952380D01*
X130901371Y-117047619D01*
X131806133Y-117285714D02*
X131806133Y-118095238D01*
X131758514Y-118190476D01*
X131710895Y-118238095D01*
X131615657Y-118285714D01*
X131472800Y-118285714D01*
X131377561Y-118238095D01*
X131806133Y-117904761D02*
X131710895Y-117952380D01*
X131520419Y-117952380D01*
X131425180Y-117904761D01*
X131377561Y-117857142D01*
X131329942Y-117761904D01*
X131329942Y-117476190D01*
X131377561Y-117380952D01*
X131425180Y-117333333D01*
X131520419Y-117285714D01*
X131710895Y-117285714D01*
X131806133Y-117333333D01*
X132282323Y-117285714D02*
X132282323Y-117952380D01*
X132282323Y-117380952D02*
X132329942Y-117333333D01*
X132425180Y-117285714D01*
X132568038Y-117285714D01*
X132663276Y-117333333D01*
X132710895Y-117428571D01*
X132710895Y-117952380D01*
X133568038Y-117904761D02*
X133472800Y-117952380D01*
X133282323Y-117952380D01*
X133187085Y-117904761D01*
X133139466Y-117809523D01*
X133139466Y-117428571D01*
X133187085Y-117333333D01*
X133282323Y-117285714D01*
X133472800Y-117285714D01*
X133568038Y-117333333D01*
X133615657Y-117428571D01*
X133615657Y-117523809D01*
X133139466Y-117619047D01*
X134472800Y-117952380D02*
X134472800Y-116952380D01*
X134472800Y-117904761D02*
X134377561Y-117952380D01*
X134187085Y-117952380D01*
X134091847Y-117904761D01*
X134044228Y-117857142D01*
X133996609Y-117761904D01*
X133996609Y-117476190D01*
X134044228Y-117380952D01*
X134091847Y-117333333D01*
X134187085Y-117285714D01*
X134377561Y-117285714D01*
X134472800Y-117333333D01*
X135710895Y-117952380D02*
X135710895Y-116952380D01*
X135710895Y-117333333D02*
X135806133Y-117285714D01*
X135996609Y-117285714D01*
X136091847Y-117333333D01*
X136139466Y-117380952D01*
X136187085Y-117476190D01*
X136187085Y-117761904D01*
X136139466Y-117857142D01*
X136091847Y-117904761D01*
X135996609Y-117952380D01*
X135806133Y-117952380D01*
X135710895Y-117904761D01*
X136520419Y-117285714D02*
X136758514Y-117952380D01*
X136996609Y-117285714D02*
X136758514Y-117952380D01*
X136663276Y-118190476D01*
X136615657Y-118238095D01*
X136520419Y-118285714D01*
X138710895Y-117952380D02*
X138377561Y-117476190D01*
X138139466Y-117952380D02*
X138139466Y-116952380D01*
X138520419Y-116952380D01*
X138615657Y-117000000D01*
X138663276Y-117047619D01*
X138710895Y-117142857D01*
X138710895Y-117285714D01*
X138663276Y-117380952D01*
X138615657Y-117428571D01*
X138520419Y-117476190D01*
X138139466Y-117476190D01*
X139282323Y-117952380D02*
X139187085Y-117904761D01*
X139139466Y-117857142D01*
X139091847Y-117761904D01*
X139091847Y-117476190D01*
X139139466Y-117380952D01*
X139187085Y-117333333D01*
X139282323Y-117285714D01*
X139425180Y-117285714D01*
X139520419Y-117333333D01*
X139568038Y-117380952D01*
X139615657Y-117476190D01*
X139615657Y-117761904D01*
X139568038Y-117857142D01*
X139520419Y-117904761D01*
X139425180Y-117952380D01*
X139282323Y-117952380D01*
X140044228Y-117952380D02*
X140044228Y-116952380D01*
X140044228Y-117333333D02*
X140139466Y-117285714D01*
X140329942Y-117285714D01*
X140425180Y-117333333D01*
X140472800Y-117380952D01*
X140520419Y-117476190D01*
X140520419Y-117761904D01*
X140472800Y-117857142D01*
X140425180Y-117904761D01*
X140329942Y-117952380D01*
X140139466Y-117952380D01*
X140044228Y-117904761D01*
X141329942Y-117904761D02*
X141234704Y-117952380D01*
X141044228Y-117952380D01*
X140948990Y-117904761D01*
X140901371Y-117809523D01*
X140901371Y-117428571D01*
X140948990Y-117333333D01*
X141044228Y-117285714D01*
X141234704Y-117285714D01*
X141329942Y-117333333D01*
X141377561Y-117428571D01*
X141377561Y-117523809D01*
X140901371Y-117619047D01*
X141806133Y-117952380D02*
X141806133Y-117285714D01*
X141806133Y-117476190D02*
X141853752Y-117380952D01*
X141901371Y-117333333D01*
X141996609Y-117285714D01*
X142091847Y-117285714D01*
X142282323Y-117285714D02*
X142663276Y-117285714D01*
X142425180Y-116952380D02*
X142425180Y-117809523D01*
X142472800Y-117904761D01*
X142568038Y-117952380D01*
X142663276Y-117952380D01*
X143710895Y-117904761D02*
X143853752Y-117952380D01*
X144091847Y-117952380D01*
X144187085Y-117904761D01*
X144234704Y-117857142D01*
X144282323Y-117761904D01*
X144282323Y-117666666D01*
X144234704Y-117571428D01*
X144187085Y-117523809D01*
X144091847Y-117476190D01*
X143901371Y-117428571D01*
X143806133Y-117380952D01*
X143758514Y-117333333D01*
X143710895Y-117238095D01*
X143710895Y-117142857D01*
X143758514Y-117047619D01*
X143806133Y-117000000D01*
X143901371Y-116952380D01*
X144139466Y-116952380D01*
X144282323Y-117000000D01*
X145091847Y-117904761D02*
X144996609Y-117952380D01*
X144806133Y-117952380D01*
X144710895Y-117904761D01*
X144663276Y-117809523D01*
X144663276Y-117428571D01*
X144710895Y-117333333D01*
X144806133Y-117285714D01*
X144996609Y-117285714D01*
X145091847Y-117333333D01*
X145139466Y-117428571D01*
X145139466Y-117523809D01*
X144663276Y-117619047D01*
X145996609Y-117952380D02*
X145996609Y-116952380D01*
X145996609Y-117904761D02*
X145901371Y-117952380D01*
X145710895Y-117952380D01*
X145615657Y-117904761D01*
X145568038Y-117857142D01*
X145520419Y-117761904D01*
X145520419Y-117476190D01*
X145568038Y-117380952D01*
X145615657Y-117333333D01*
X145710895Y-117285714D01*
X145901371Y-117285714D01*
X145996609Y-117333333D01*
X146901371Y-117952380D02*
X146901371Y-117428571D01*
X146853752Y-117333333D01*
X146758514Y-117285714D01*
X146568038Y-117285714D01*
X146472800Y-117333333D01*
X146901371Y-117904761D02*
X146806133Y-117952380D01*
X146568038Y-117952380D01*
X146472800Y-117904761D01*
X146425180Y-117809523D01*
X146425180Y-117714285D01*
X146472800Y-117619047D01*
X146568038Y-117571428D01*
X146806133Y-117571428D01*
X146901371Y-117523809D01*
X147377561Y-117952380D02*
X147377561Y-116952380D01*
X147472800Y-117571428D02*
X147758514Y-117952380D01*
X147758514Y-117285714D02*
X147377561Y-117666666D01*
D10*
X65725238Y-108443780D02*
X66058571Y-109443780D01*
X66391904Y-108443780D01*
X67296666Y-109348542D02*
X67249047Y-109396161D01*
X67106190Y-109443780D01*
X67010952Y-109443780D01*
X66868095Y-109396161D01*
X66772857Y-109300923D01*
X66725238Y-109205685D01*
X66677619Y-109015209D01*
X66677619Y-108872352D01*
X66725238Y-108681876D01*
X66772857Y-108586638D01*
X66868095Y-108491400D01*
X67010952Y-108443780D01*
X67106190Y-108443780D01*
X67249047Y-108491400D01*
X67296666Y-108539019D01*
X68296666Y-109348542D02*
X68249047Y-109396161D01*
X68106190Y-109443780D01*
X68010952Y-109443780D01*
X67868095Y-109396161D01*
X67772857Y-109300923D01*
X67725238Y-109205685D01*
X67677619Y-109015209D01*
X67677619Y-108872352D01*
X67725238Y-108681876D01*
X67772857Y-108586638D01*
X67868095Y-108491400D01*
X68010952Y-108443780D01*
X68106190Y-108443780D01*
X68249047Y-108491400D01*
X68296666Y-108539019D01*
X65820476Y-101776161D02*
X65963333Y-101823780D01*
X66201428Y-101823780D01*
X66296666Y-101776161D01*
X66344285Y-101728542D01*
X66391904Y-101633304D01*
X66391904Y-101538066D01*
X66344285Y-101442828D01*
X66296666Y-101395209D01*
X66201428Y-101347590D01*
X66010952Y-101299971D01*
X65915714Y-101252352D01*
X65868095Y-101204733D01*
X65820476Y-101109495D01*
X65820476Y-101014257D01*
X65868095Y-100919019D01*
X65915714Y-100871400D01*
X66010952Y-100823780D01*
X66249047Y-100823780D01*
X66391904Y-100871400D01*
X66820476Y-101823780D02*
X66820476Y-100823780D01*
X67058571Y-100823780D01*
X67201428Y-100871400D01*
X67296666Y-100966638D01*
X67344285Y-101061876D01*
X67391904Y-101252352D01*
X67391904Y-101395209D01*
X67344285Y-101585685D01*
X67296666Y-101680923D01*
X67201428Y-101776161D01*
X67058571Y-101823780D01*
X66820476Y-101823780D01*
X67772857Y-101538066D02*
X68249047Y-101538066D01*
X67677619Y-101823780D02*
X68010952Y-100823780D01*
X68344285Y-101823780D01*
X134643523Y-104316161D02*
X134786380Y-104363780D01*
X135024476Y-104363780D01*
X135119714Y-104316161D01*
X135167333Y-104268542D01*
X135214952Y-104173304D01*
X135214952Y-104078066D01*
X135167333Y-103982828D01*
X135119714Y-103935209D01*
X135024476Y-103887590D01*
X134834000Y-103839971D01*
X134738761Y-103792352D01*
X134691142Y-103744733D01*
X134643523Y-103649495D01*
X134643523Y-103554257D01*
X134691142Y-103459019D01*
X134738761Y-103411400D01*
X134834000Y-103363780D01*
X135072095Y-103363780D01*
X135214952Y-103411400D01*
X136214952Y-104268542D02*
X136167333Y-104316161D01*
X136024476Y-104363780D01*
X135929238Y-104363780D01*
X135786380Y-104316161D01*
X135691142Y-104220923D01*
X135643523Y-104125685D01*
X135595904Y-103935209D01*
X135595904Y-103792352D01*
X135643523Y-103601876D01*
X135691142Y-103506638D01*
X135786380Y-103411400D01*
X135929238Y-103363780D01*
X136024476Y-103363780D01*
X136167333Y-103411400D01*
X136214952Y-103459019D01*
X137119714Y-104363780D02*
X136643523Y-104363780D01*
X136643523Y-103363780D01*
X135072095Y-105951400D02*
X134976857Y-105903780D01*
X134834000Y-105903780D01*
X134691142Y-105951400D01*
X134595904Y-106046638D01*
X134548285Y-106141876D01*
X134500666Y-106332352D01*
X134500666Y-106475209D01*
X134548285Y-106665685D01*
X134595904Y-106760923D01*
X134691142Y-106856161D01*
X134834000Y-106903780D01*
X134929238Y-106903780D01*
X135072095Y-106856161D01*
X135119714Y-106808542D01*
X135119714Y-106475209D01*
X134929238Y-106475209D01*
X135548285Y-106903780D02*
X135548285Y-105903780D01*
X136119714Y-106903780D01*
X136119714Y-105903780D01*
X136595904Y-106903780D02*
X136595904Y-105903780D01*
X136834000Y-105903780D01*
X136976857Y-105951400D01*
X137072095Y-106046638D01*
X137119714Y-106141876D01*
X137167333Y-106332352D01*
X137167333Y-106475209D01*
X137119714Y-106665685D01*
X137072095Y-106760923D01*
X136976857Y-106856161D01*
X136834000Y-106903780D01*
X136595904Y-106903780D01*
X134619714Y-101776161D02*
X134762571Y-101823780D01*
X135000666Y-101823780D01*
X135095904Y-101776161D01*
X135143523Y-101728542D01*
X135191142Y-101633304D01*
X135191142Y-101538066D01*
X135143523Y-101442828D01*
X135095904Y-101395209D01*
X135000666Y-101347590D01*
X134810190Y-101299971D01*
X134714952Y-101252352D01*
X134667333Y-101204733D01*
X134619714Y-101109495D01*
X134619714Y-101014257D01*
X134667333Y-100919019D01*
X134714952Y-100871400D01*
X134810190Y-100823780D01*
X135048285Y-100823780D01*
X135191142Y-100871400D01*
X135619714Y-101823780D02*
X135619714Y-100823780D01*
X135857809Y-100823780D01*
X136000666Y-100871400D01*
X136095904Y-100966638D01*
X136143523Y-101061876D01*
X136191142Y-101252352D01*
X136191142Y-101395209D01*
X136143523Y-101585685D01*
X136095904Y-101680923D01*
X136000666Y-101776161D01*
X135857809Y-101823780D01*
X135619714Y-101823780D01*
X136572095Y-101538066D02*
X137048285Y-101538066D01*
X136476857Y-101823780D02*
X136810190Y-100823780D01*
X137143523Y-101823780D01*
X134500666Y-108443780D02*
X134834000Y-109443780D01*
X135167333Y-108443780D01*
X136072095Y-109348542D02*
X136024476Y-109396161D01*
X135881619Y-109443780D01*
X135786380Y-109443780D01*
X135643523Y-109396161D01*
X135548285Y-109300923D01*
X135500666Y-109205685D01*
X135453047Y-109015209D01*
X135453047Y-108872352D01*
X135500666Y-108681876D01*
X135548285Y-108586638D01*
X135643523Y-108491400D01*
X135786380Y-108443780D01*
X135881619Y-108443780D01*
X136024476Y-108491400D01*
X136072095Y-108539019D01*
X137072095Y-109348542D02*
X137024476Y-109396161D01*
X136881619Y-109443780D01*
X136786380Y-109443780D01*
X136643523Y-109396161D01*
X136548285Y-109300923D01*
X136500666Y-109205685D01*
X136453047Y-109015209D01*
X136453047Y-108872352D01*
X136500666Y-108681876D01*
X136548285Y-108586638D01*
X136643523Y-108491400D01*
X136786380Y-108443780D01*
X136881619Y-108443780D01*
X137024476Y-108491400D01*
X137072095Y-108539019D01*
X65868095Y-99309180D02*
X65868095Y-98309180D01*
X66344285Y-99309180D02*
X66344285Y-98309180D01*
X66915714Y-99309180D01*
X66915714Y-98309180D01*
X67249047Y-98309180D02*
X67820476Y-98309180D01*
X67534761Y-99309180D02*
X67534761Y-98309180D01*
X65820476Y-104316161D02*
X65963333Y-104363780D01*
X66201428Y-104363780D01*
X66296666Y-104316161D01*
X66344285Y-104268542D01*
X66391904Y-104173304D01*
X66391904Y-104078066D01*
X66344285Y-103982828D01*
X66296666Y-103935209D01*
X66201428Y-103887590D01*
X66010952Y-103839971D01*
X65915714Y-103792352D01*
X65868095Y-103744733D01*
X65820476Y-103649495D01*
X65820476Y-103554257D01*
X65868095Y-103459019D01*
X65915714Y-103411400D01*
X66010952Y-103363780D01*
X66249047Y-103363780D01*
X66391904Y-103411400D01*
X67391904Y-104268542D02*
X67344285Y-104316161D01*
X67201428Y-104363780D01*
X67106190Y-104363780D01*
X66963333Y-104316161D01*
X66868095Y-104220923D01*
X66820476Y-104125685D01*
X66772857Y-103935209D01*
X66772857Y-103792352D01*
X66820476Y-103601876D01*
X66868095Y-103506638D01*
X66963333Y-103411400D01*
X67106190Y-103363780D01*
X67201428Y-103363780D01*
X67344285Y-103411400D01*
X67391904Y-103459019D01*
X68296666Y-104363780D02*
X67820476Y-104363780D01*
X67820476Y-103363780D01*
D12*
X132335595Y-92952380D02*
X132335595Y-91952380D01*
X132573690Y-91952380D01*
X132716547Y-92000000D01*
X132811785Y-92095238D01*
X132859404Y-92190476D01*
X132907023Y-92380952D01*
X132907023Y-92523809D01*
X132859404Y-92714285D01*
X132811785Y-92809523D01*
X132716547Y-92904761D01*
X132573690Y-92952380D01*
X132335595Y-92952380D01*
X133716547Y-92904761D02*
X133621309Y-92952380D01*
X133430833Y-92952380D01*
X133335595Y-92904761D01*
X133287976Y-92809523D01*
X133287976Y-92428571D01*
X133335595Y-92333333D01*
X133430833Y-92285714D01*
X133621309Y-92285714D01*
X133716547Y-92333333D01*
X133764166Y-92428571D01*
X133764166Y-92523809D01*
X133287976Y-92619047D01*
X134145119Y-92904761D02*
X134240357Y-92952380D01*
X134430833Y-92952380D01*
X134526071Y-92904761D01*
X134573690Y-92809523D01*
X134573690Y-92761904D01*
X134526071Y-92666666D01*
X134430833Y-92619047D01*
X134287976Y-92619047D01*
X134192738Y-92571428D01*
X134145119Y-92476190D01*
X134145119Y-92428571D01*
X134192738Y-92333333D01*
X134287976Y-92285714D01*
X134430833Y-92285714D01*
X134526071Y-92333333D01*
X135002261Y-92952380D02*
X135002261Y-92285714D01*
X135002261Y-91952380D02*
X134954642Y-92000000D01*
X135002261Y-92047619D01*
X135049880Y-92000000D01*
X135002261Y-91952380D01*
X135002261Y-92047619D01*
X135907023Y-92285714D02*
X135907023Y-93095238D01*
X135859404Y-93190476D01*
X135811785Y-93238095D01*
X135716547Y-93285714D01*
X135573690Y-93285714D01*
X135478452Y-93238095D01*
X135907023Y-92904761D02*
X135811785Y-92952380D01*
X135621309Y-92952380D01*
X135526071Y-92904761D01*
X135478452Y-92857142D01*
X135430833Y-92761904D01*
X135430833Y-92476190D01*
X135478452Y-92380952D01*
X135526071Y-92333333D01*
X135621309Y-92285714D01*
X135811785Y-92285714D01*
X135907023Y-92333333D01*
X136383214Y-92285714D02*
X136383214Y-92952380D01*
X136383214Y-92380952D02*
X136430833Y-92333333D01*
X136526071Y-92285714D01*
X136668928Y-92285714D01*
X136764166Y-92333333D01*
X136811785Y-92428571D01*
X136811785Y-92952380D01*
X137668928Y-92904761D02*
X137573690Y-92952380D01*
X137383214Y-92952380D01*
X137287976Y-92904761D01*
X137240357Y-92809523D01*
X137240357Y-92428571D01*
X137287976Y-92333333D01*
X137383214Y-92285714D01*
X137573690Y-92285714D01*
X137668928Y-92333333D01*
X137716547Y-92428571D01*
X137716547Y-92523809D01*
X137240357Y-92619047D01*
X138573690Y-92952380D02*
X138573690Y-91952380D01*
X138573690Y-92904761D02*
X138478452Y-92952380D01*
X138287976Y-92952380D01*
X138192738Y-92904761D01*
X138145119Y-92857142D01*
X138097500Y-92761904D01*
X138097500Y-92476190D01*
X138145119Y-92380952D01*
X138192738Y-92333333D01*
X138287976Y-92285714D01*
X138478452Y-92285714D01*
X138573690Y-92333333D01*
X139716547Y-92285714D02*
X139907023Y-92952380D01*
X140097500Y-92476190D01*
X140287976Y-92952380D01*
X140478452Y-92285714D01*
X140859404Y-92952380D02*
X140859404Y-92285714D01*
X140859404Y-91952380D02*
X140811785Y-92000000D01*
X140859404Y-92047619D01*
X140907023Y-92000000D01*
X140859404Y-91952380D01*
X140859404Y-92047619D01*
X141192738Y-92285714D02*
X141573690Y-92285714D01*
X141335595Y-91952380D02*
X141335595Y-92809523D01*
X141383214Y-92904761D01*
X141478452Y-92952380D01*
X141573690Y-92952380D01*
X141907023Y-92952380D02*
X141907023Y-91952380D01*
X142335595Y-92952380D02*
X142335595Y-92428571D01*
X142287976Y-92333333D01*
X142192738Y-92285714D01*
X142049880Y-92285714D01*
X141954642Y-92333333D01*
X141907023Y-92380952D01*
X143573690Y-92952380D02*
X143573690Y-91952380D01*
X144145119Y-92952380D02*
X143716547Y-92380952D01*
X144145119Y-91952380D02*
X143573690Y-92523809D01*
X144573690Y-92952380D02*
X144573690Y-92285714D01*
X144573690Y-91952380D02*
X144526071Y-92000000D01*
X144573690Y-92047619D01*
X144621309Y-92000000D01*
X144573690Y-91952380D01*
X144573690Y-92047619D01*
X145621309Y-92857142D02*
X145573690Y-92904761D01*
X145430833Y-92952380D01*
X145335595Y-92952380D01*
X145192738Y-92904761D01*
X145097500Y-92809523D01*
X145049880Y-92714285D01*
X145002261Y-92523809D01*
X145002261Y-92380952D01*
X145049880Y-92190476D01*
X145097500Y-92095238D01*
X145192738Y-92000000D01*
X145335595Y-91952380D01*
X145430833Y-91952380D01*
X145573690Y-92000000D01*
X145621309Y-92047619D01*
X146478452Y-92952380D02*
X146478452Y-92428571D01*
X146430833Y-92333333D01*
X146335595Y-92285714D01*
X146145119Y-92285714D01*
X146049880Y-92333333D01*
X146478452Y-92904761D02*
X146383214Y-92952380D01*
X146145119Y-92952380D01*
X146049880Y-92904761D01*
X146002261Y-92809523D01*
X146002261Y-92714285D01*
X146049880Y-92619047D01*
X146145119Y-92571428D01*
X146383214Y-92571428D01*
X146478452Y-92523809D01*
X147383214Y-92952380D02*
X147383214Y-91952380D01*
X147383214Y-92904761D02*
X147287976Y-92952380D01*
X147097500Y-92952380D01*
X147002261Y-92904761D01*
X146954642Y-92857142D01*
X146907023Y-92761904D01*
X146907023Y-92476190D01*
X146954642Y-92380952D01*
X147002261Y-92333333D01*
X147097500Y-92285714D01*
X147287976Y-92285714D01*
X147383214Y-92333333D01*
D10*
X97253514Y-95166666D02*
X97729704Y-95166666D01*
X97158276Y-95452380D02*
X97491609Y-94452380D01*
X97824942Y-95452380D01*
X98682085Y-95452380D02*
X98110657Y-95452380D01*
X98396371Y-95452380D02*
X98396371Y-94452380D01*
X98301133Y-94595238D01*
X98205895Y-94690476D01*
X98110657Y-94738095D01*
X66391904Y-105951400D02*
X66296666Y-105903780D01*
X66153809Y-105903780D01*
X66010952Y-105951400D01*
X65915714Y-106046638D01*
X65868095Y-106141876D01*
X65820476Y-106332352D01*
X65820476Y-106475209D01*
X65868095Y-106665685D01*
X65915714Y-106760923D01*
X66010952Y-106856161D01*
X66153809Y-106903780D01*
X66249047Y-106903780D01*
X66391904Y-106856161D01*
X66439523Y-106808542D01*
X66439523Y-106475209D01*
X66249047Y-106475209D01*
X66868095Y-106903780D02*
X66868095Y-105903780D01*
X67439523Y-106903780D01*
X67439523Y-105903780D01*
X67915714Y-106903780D02*
X67915714Y-105903780D01*
X68153809Y-105903780D01*
X68296666Y-105951400D01*
X68391904Y-106046638D01*
X68439523Y-106141876D01*
X68487142Y-106332352D01*
X68487142Y-106475209D01*
X68439523Y-106665685D01*
X68391904Y-106760923D01*
X68296666Y-106856161D01*
X68153809Y-106903780D01*
X67915714Y-106903780D01*
X99720514Y-95166666D02*
X100196704Y-95166666D01*
X99625276Y-95452380D02*
X99958609Y-94452380D01*
X100291942Y-95452380D01*
X100815752Y-94452380D02*
X100910990Y-94452380D01*
X101006228Y-94500000D01*
X101053847Y-94547619D01*
X101101466Y-94642857D01*
X101149085Y-94833333D01*
X101149085Y-95071428D01*
X101101466Y-95261904D01*
X101053847Y-95357142D01*
X101006228Y-95404761D01*
X100910990Y-95452380D01*
X100815752Y-95452380D01*
X100720514Y-95404761D01*
X100672895Y-95357142D01*
X100625276Y-95261904D01*
X100577657Y-95071428D01*
X100577657Y-94833333D01*
X100625276Y-94642857D01*
X100672895Y-94547619D01*
X100720514Y-94500000D01*
X100815752Y-94452380D01*
D12*
X122235933Y-102179380D02*
X121902600Y-101703190D01*
X121664504Y-102179380D02*
X121664504Y-101179380D01*
X122045457Y-101179380D01*
X122140695Y-101227000D01*
X122188314Y-101274619D01*
X122235933Y-101369857D01*
X122235933Y-101512714D01*
X122188314Y-101607952D01*
X122140695Y-101655571D01*
X122045457Y-101703190D01*
X121664504Y-101703190D01*
X122807361Y-101607952D02*
X122712123Y-101560333D01*
X122664504Y-101512714D01*
X122616885Y-101417476D01*
X122616885Y-101369857D01*
X122664504Y-101274619D01*
X122712123Y-101227000D01*
X122807361Y-101179380D01*
X122997838Y-101179380D01*
X123093076Y-101227000D01*
X123140695Y-101274619D01*
X123188314Y-101369857D01*
X123188314Y-101417476D01*
X123140695Y-101512714D01*
X123093076Y-101560333D01*
X122997838Y-101607952D01*
X122807361Y-101607952D01*
X122712123Y-101655571D01*
X122664504Y-101703190D01*
X122616885Y-101798428D01*
X122616885Y-101988904D01*
X122664504Y-102084142D01*
X122712123Y-102131761D01*
X122807361Y-102179380D01*
X122997838Y-102179380D01*
X123093076Y-102131761D01*
X123140695Y-102084142D01*
X123188314Y-101988904D01*
X123188314Y-101798428D01*
X123140695Y-101703190D01*
X123093076Y-101655571D01*
X122997838Y-101607952D01*
X94978380Y-111164666D02*
X94502190Y-111498000D01*
X94978380Y-111736095D02*
X93978380Y-111736095D01*
X93978380Y-111355142D01*
X94026000Y-111259904D01*
X94073619Y-111212285D01*
X94168857Y-111164666D01*
X94311714Y-111164666D01*
X94406952Y-111212285D01*
X94454571Y-111259904D01*
X94502190Y-111355142D01*
X94502190Y-111736095D01*
X93978380Y-110831333D02*
X93978380Y-110164666D01*
X94978380Y-110593238D01*
X122235933Y-115387380D02*
X121902600Y-114911190D01*
X121664504Y-115387380D02*
X121664504Y-114387380D01*
X122045457Y-114387380D01*
X122140695Y-114435000D01*
X122188314Y-114482619D01*
X122235933Y-114577857D01*
X122235933Y-114720714D01*
X122188314Y-114815952D01*
X122140695Y-114863571D01*
X122045457Y-114911190D01*
X121664504Y-114911190D01*
X123188314Y-115387380D02*
X122616885Y-115387380D01*
X122902600Y-115387380D02*
X122902600Y-114387380D01*
X122807361Y-114530238D01*
X122712123Y-114625476D01*
X122616885Y-114673095D01*
X122235933Y-112085380D02*
X121902600Y-111609190D01*
X121664504Y-112085380D02*
X121664504Y-111085380D01*
X122045457Y-111085380D01*
X122140695Y-111133000D01*
X122188314Y-111180619D01*
X122235933Y-111275857D01*
X122235933Y-111418714D01*
X122188314Y-111513952D01*
X122140695Y-111561571D01*
X122045457Y-111609190D01*
X121664504Y-111609190D01*
X122616885Y-111180619D02*
X122664504Y-111133000D01*
X122759742Y-111085380D01*
X122997838Y-111085380D01*
X123093076Y-111133000D01*
X123140695Y-111180619D01*
X123188314Y-111275857D01*
X123188314Y-111371095D01*
X123140695Y-111513952D01*
X122569266Y-112085380D01*
X123188314Y-112085380D01*
X122235933Y-108783380D02*
X121902600Y-108307190D01*
X121664504Y-108783380D02*
X121664504Y-107783380D01*
X122045457Y-107783380D01*
X122140695Y-107831000D01*
X122188314Y-107878619D01*
X122235933Y-107973857D01*
X122235933Y-108116714D01*
X122188314Y-108211952D01*
X122140695Y-108259571D01*
X122045457Y-108307190D01*
X121664504Y-108307190D01*
X122569266Y-107783380D02*
X123188314Y-107783380D01*
X122854980Y-108164333D01*
X122997838Y-108164333D01*
X123093076Y-108211952D01*
X123140695Y-108259571D01*
X123188314Y-108354809D01*
X123188314Y-108592904D01*
X123140695Y-108688142D01*
X123093076Y-108735761D01*
X122997838Y-108783380D01*
X122712123Y-108783380D01*
X122616885Y-108735761D01*
X122569266Y-108688142D01*
X122235933Y-105481380D02*
X121902600Y-105005190D01*
X121664504Y-105481380D02*
X121664504Y-104481380D01*
X122045457Y-104481380D01*
X122140695Y-104529000D01*
X122188314Y-104576619D01*
X122235933Y-104671857D01*
X122235933Y-104814714D01*
X122188314Y-104909952D01*
X122140695Y-104957571D01*
X122045457Y-105005190D01*
X121664504Y-105005190D01*
X123093076Y-104814714D02*
X123093076Y-105481380D01*
X122854980Y-104433761D02*
X122616885Y-105148047D01*
X123235933Y-105148047D01*
X101582380Y-111164666D02*
X101106190Y-111498000D01*
X101582380Y-111736095D02*
X100582380Y-111736095D01*
X100582380Y-111355142D01*
X100630000Y-111259904D01*
X100677619Y-111212285D01*
X100772857Y-111164666D01*
X100915714Y-111164666D01*
X101010952Y-111212285D01*
X101058571Y-111259904D01*
X101106190Y-111355142D01*
X101106190Y-111736095D01*
X100582380Y-110259904D02*
X100582380Y-110736095D01*
X101058571Y-110783714D01*
X101010952Y-110736095D01*
X100963333Y-110640857D01*
X100963333Y-110402761D01*
X101010952Y-110307523D01*
X101058571Y-110259904D01*
X101153809Y-110212285D01*
X101391904Y-110212285D01*
X101487142Y-110259904D01*
X101534761Y-110307523D01*
X101582380Y-110402761D01*
X101582380Y-110640857D01*
X101534761Y-110736095D01*
X101487142Y-110783714D01*
X98280380Y-111164666D02*
X97804190Y-111498000D01*
X98280380Y-111736095D02*
X97280380Y-111736095D01*
X97280380Y-111355142D01*
X97328000Y-111259904D01*
X97375619Y-111212285D01*
X97470857Y-111164666D01*
X97613714Y-111164666D01*
X97708952Y-111212285D01*
X97756571Y-111259904D01*
X97804190Y-111355142D01*
X97804190Y-111736095D01*
X97280380Y-110307523D02*
X97280380Y-110498000D01*
X97328000Y-110593238D01*
X97375619Y-110640857D01*
X97518476Y-110736095D01*
X97708952Y-110783714D01*
X98089904Y-110783714D01*
X98185142Y-110736095D01*
X98232761Y-110688476D01*
X98280380Y-110593238D01*
X98280380Y-110402761D01*
X98232761Y-110307523D01*
X98185142Y-110259904D01*
X98089904Y-110212285D01*
X97851809Y-110212285D01*
X97756571Y-110259904D01*
X97708952Y-110307523D01*
X97661333Y-110402761D01*
X97661333Y-110593238D01*
X97708952Y-110688476D01*
X97756571Y-110736095D01*
X97851809Y-110783714D01*
X122235933Y-98877380D02*
X121902600Y-98401190D01*
X121664504Y-98877380D02*
X121664504Y-97877380D01*
X122045457Y-97877380D01*
X122140695Y-97925000D01*
X122188314Y-97972619D01*
X122235933Y-98067857D01*
X122235933Y-98210714D01*
X122188314Y-98305952D01*
X122140695Y-98353571D01*
X122045457Y-98401190D01*
X121664504Y-98401190D01*
X122712123Y-98877380D02*
X122902600Y-98877380D01*
X122997838Y-98829761D01*
X123045457Y-98782142D01*
X123140695Y-98639285D01*
X123188314Y-98448809D01*
X123188314Y-98067857D01*
X123140695Y-97972619D01*
X123093076Y-97925000D01*
X122997838Y-97877380D01*
X122807361Y-97877380D01*
X122712123Y-97925000D01*
X122664504Y-97972619D01*
X122616885Y-98067857D01*
X122616885Y-98305952D01*
X122664504Y-98401190D01*
X122712123Y-98448809D01*
X122807361Y-98496428D01*
X122997838Y-98496428D01*
X123093076Y-98448809D01*
X123140695Y-98401190D01*
X123188314Y-98305952D01*
X109347095Y-92845380D02*
X109347095Y-93654904D01*
X109394714Y-93750142D01*
X109442333Y-93797761D01*
X109537571Y-93845380D01*
X109728047Y-93845380D01*
X109823285Y-93797761D01*
X109870904Y-93750142D01*
X109918523Y-93654904D01*
X109918523Y-92845380D01*
X110918523Y-93845380D02*
X110347095Y-93845380D01*
X110632809Y-93845380D02*
X110632809Y-92845380D01*
X110537571Y-92988238D01*
X110442333Y-93083476D01*
X110347095Y-93131095D01*
X127590904Y-96718380D02*
X127590904Y-95718380D01*
X127829000Y-95718380D01*
X127971857Y-95766000D01*
X128067095Y-95861238D01*
X128114714Y-95956476D01*
X128162333Y-96146952D01*
X128162333Y-96289809D01*
X128114714Y-96480285D01*
X128067095Y-96575523D01*
X127971857Y-96670761D01*
X127829000Y-96718380D01*
X127590904Y-96718380D01*
X129019476Y-96051714D02*
X129019476Y-96718380D01*
X128781380Y-95670761D02*
X128543285Y-96385047D01*
X129162333Y-96385047D01*
X127717904Y-102687380D02*
X127717904Y-101687380D01*
X127956000Y-101687380D01*
X128098857Y-101735000D01*
X128194095Y-101830238D01*
X128241714Y-101925476D01*
X128289333Y-102115952D01*
X128289333Y-102258809D01*
X128241714Y-102449285D01*
X128194095Y-102544523D01*
X128098857Y-102639761D01*
X127956000Y-102687380D01*
X127717904Y-102687380D01*
X128622666Y-101687380D02*
X129241714Y-101687380D01*
X128908380Y-102068333D01*
X129051238Y-102068333D01*
X129146476Y-102115952D01*
X129194095Y-102163571D01*
X129241714Y-102258809D01*
X129241714Y-102496904D01*
X129194095Y-102592142D01*
X129146476Y-102639761D01*
X129051238Y-102687380D01*
X128765523Y-102687380D01*
X128670285Y-102639761D01*
X128622666Y-102592142D01*
X127717904Y-108656380D02*
X127717904Y-107656380D01*
X127956000Y-107656380D01*
X128098857Y-107704000D01*
X128194095Y-107799238D01*
X128241714Y-107894476D01*
X128289333Y-108084952D01*
X128289333Y-108227809D01*
X128241714Y-108418285D01*
X128194095Y-108513523D01*
X128098857Y-108608761D01*
X127956000Y-108656380D01*
X127717904Y-108656380D01*
X128670285Y-107751619D02*
X128717904Y-107704000D01*
X128813142Y-107656380D01*
X129051238Y-107656380D01*
X129146476Y-107704000D01*
X129194095Y-107751619D01*
X129241714Y-107846857D01*
X129241714Y-107942095D01*
X129194095Y-108084952D01*
X128622666Y-108656380D01*
X129241714Y-108656380D01*
X127717904Y-114625380D02*
X127717904Y-113625380D01*
X127956000Y-113625380D01*
X128098857Y-113673000D01*
X128194095Y-113768238D01*
X128241714Y-113863476D01*
X128289333Y-114053952D01*
X128289333Y-114196809D01*
X128241714Y-114387285D01*
X128194095Y-114482523D01*
X128098857Y-114577761D01*
X127956000Y-114625380D01*
X127717904Y-114625380D01*
X129241714Y-114625380D02*
X128670285Y-114625380D01*
X128956000Y-114625380D02*
X128956000Y-113625380D01*
X128860761Y-113768238D01*
X128765523Y-113863476D01*
X128670285Y-113911095D01*
X143046666Y-111222380D02*
X143046666Y-111936666D01*
X142999047Y-112079523D01*
X142903809Y-112174761D01*
X142760952Y-112222380D01*
X142665714Y-112222380D01*
X143475238Y-111317619D02*
X143522857Y-111270000D01*
X143618095Y-111222380D01*
X143856190Y-111222380D01*
X143951428Y-111270000D01*
X143999047Y-111317619D01*
X144046666Y-111412857D01*
X144046666Y-111508095D01*
X143999047Y-111650952D01*
X143427619Y-112222380D01*
X144046666Y-112222380D01*
X97558266Y-92644980D02*
X97558266Y-93359266D01*
X97510647Y-93502123D01*
X97415409Y-93597361D01*
X97272552Y-93644980D01*
X97177314Y-93644980D01*
X97939219Y-92644980D02*
X98558266Y-92644980D01*
X98224933Y-93025933D01*
X98367790Y-93025933D01*
X98463028Y-93073552D01*
X98510647Y-93121171D01*
X98558266Y-93216409D01*
X98558266Y-93454504D01*
X98510647Y-93549742D01*
X98463028Y-93597361D01*
X98367790Y-93644980D01*
X98082076Y-93644980D01*
X97986838Y-93597361D01*
X97939219Y-93549742D01*
X122286733Y-93041742D02*
X122239114Y-93089361D01*
X122096257Y-93136980D01*
X122001019Y-93136980D01*
X121858161Y-93089361D01*
X121762923Y-92994123D01*
X121715304Y-92898885D01*
X121667685Y-92708409D01*
X121667685Y-92565552D01*
X121715304Y-92375076D01*
X121762923Y-92279838D01*
X121858161Y-92184600D01*
X122001019Y-92136980D01*
X122096257Y-92136980D01*
X122239114Y-92184600D01*
X122286733Y-92232219D01*
X123239114Y-93136980D02*
X122667685Y-93136980D01*
X122953400Y-93136980D02*
X122953400Y-92136980D01*
X122858161Y-92279838D01*
X122762923Y-92375076D01*
X122667685Y-92422695D01*
X72416666Y-93904761D02*
X72559523Y-93952380D01*
X72797619Y-93952380D01*
X72892857Y-93904761D01*
X72940476Y-93857142D01*
X72988095Y-93761904D01*
X72988095Y-93666666D01*
X72940476Y-93571428D01*
X72892857Y-93523809D01*
X72797619Y-93476190D01*
X72607142Y-93428571D01*
X72511904Y-93380952D01*
X72464285Y-93333333D01*
X72416666Y-93238095D01*
X72416666Y-93142857D01*
X72464285Y-93047619D01*
X72511904Y-93000000D01*
X72607142Y-92952380D01*
X72845238Y-92952380D01*
X72988095Y-93000000D01*
X73321428Y-92952380D02*
X73559523Y-93952380D01*
X73750000Y-93238095D01*
X73940476Y-93952380D01*
X74178571Y-92952380D01*
X75083333Y-93952380D02*
X74511904Y-93952380D01*
X74797619Y-93952380D02*
X74797619Y-92952380D01*
X74702380Y-93095238D01*
X74607142Y-93190476D01*
X74511904Y-93238095D01*
X83916666Y-93904761D02*
X84059523Y-93952380D01*
X84297619Y-93952380D01*
X84392857Y-93904761D01*
X84440476Y-93857142D01*
X84488095Y-93761904D01*
X84488095Y-93666666D01*
X84440476Y-93571428D01*
X84392857Y-93523809D01*
X84297619Y-93476190D01*
X84107142Y-93428571D01*
X84011904Y-93380952D01*
X83964285Y-93333333D01*
X83916666Y-93238095D01*
X83916666Y-93142857D01*
X83964285Y-93047619D01*
X84011904Y-93000000D01*
X84107142Y-92952380D01*
X84345238Y-92952380D01*
X84488095Y-93000000D01*
X84821428Y-92952380D02*
X85059523Y-93952380D01*
X85250000Y-93238095D01*
X85440476Y-93952380D01*
X85678571Y-92952380D01*
X86011904Y-93047619D02*
X86059523Y-93000000D01*
X86154761Y-92952380D01*
X86392857Y-92952380D01*
X86488095Y-93000000D01*
X86535714Y-93047619D01*
X86583333Y-93142857D01*
X86583333Y-93238095D01*
X86535714Y-93380952D01*
X85964285Y-93952380D01*
X86583333Y-93952380D01*
X72416666Y-107204761D02*
X72559523Y-107252380D01*
X72797619Y-107252380D01*
X72892857Y-107204761D01*
X72940476Y-107157142D01*
X72988095Y-107061904D01*
X72988095Y-106966666D01*
X72940476Y-106871428D01*
X72892857Y-106823809D01*
X72797619Y-106776190D01*
X72607142Y-106728571D01*
X72511904Y-106680952D01*
X72464285Y-106633333D01*
X72416666Y-106538095D01*
X72416666Y-106442857D01*
X72464285Y-106347619D01*
X72511904Y-106300000D01*
X72607142Y-106252380D01*
X72845238Y-106252380D01*
X72988095Y-106300000D01*
X73321428Y-106252380D02*
X73559523Y-107252380D01*
X73750000Y-106538095D01*
X73940476Y-107252380D01*
X74178571Y-106252380D01*
X74464285Y-106252380D02*
X75083333Y-106252380D01*
X74750000Y-106633333D01*
X74892857Y-106633333D01*
X74988095Y-106680952D01*
X75035714Y-106728571D01*
X75083333Y-106823809D01*
X75083333Y-107061904D01*
X75035714Y-107157142D01*
X74988095Y-107204761D01*
X74892857Y-107252380D01*
X74607142Y-107252380D01*
X74511904Y-107204761D01*
X74464285Y-107157142D01*
X83916666Y-107204761D02*
X84059523Y-107252380D01*
X84297619Y-107252380D01*
X84392857Y-107204761D01*
X84440476Y-107157142D01*
X84488095Y-107061904D01*
X84488095Y-106966666D01*
X84440476Y-106871428D01*
X84392857Y-106823809D01*
X84297619Y-106776190D01*
X84107142Y-106728571D01*
X84011904Y-106680952D01*
X83964285Y-106633333D01*
X83916666Y-106538095D01*
X83916666Y-106442857D01*
X83964285Y-106347619D01*
X84011904Y-106300000D01*
X84107142Y-106252380D01*
X84345238Y-106252380D01*
X84488095Y-106300000D01*
X84821428Y-106252380D02*
X85059523Y-107252380D01*
X85250000Y-106538095D01*
X85440476Y-107252380D01*
X85678571Y-106252380D01*
X86488095Y-106585714D02*
X86488095Y-107252380D01*
X86250000Y-106204761D02*
X86011904Y-106919047D01*
X86630952Y-106919047D01*
X63293666Y-111796580D02*
X63293666Y-112510866D01*
X63246047Y-112653723D01*
X63150809Y-112748961D01*
X63007952Y-112796580D01*
X62912714Y-112796580D01*
X64293666Y-112796580D02*
X63722238Y-112796580D01*
X64007952Y-112796580D02*
X64007952Y-111796580D01*
X63912714Y-111939438D01*
X63817476Y-112034676D01*
X63722238Y-112082295D01*
D13*
X125672600Y-103097000D02*
X119132600Y-103097000D01*
X125672600Y-102767000D02*
X125672600Y-103097000D01*
X119132600Y-103097000D02*
X119132600Y-102767000D01*
X125672600Y-100687000D02*
X125672600Y-100357000D01*
X125672600Y-100357000D02*
X119132600Y-100357000D01*
X119132600Y-100357000D02*
X119132600Y-100687000D01*
X95896000Y-107728000D02*
X95566000Y-107728000D01*
X93486000Y-114268000D02*
X93156000Y-114268000D01*
X93156000Y-114268000D02*
X93156000Y-107728000D01*
X95896000Y-114268000D02*
X95896000Y-107728000D01*
X93156000Y-107728000D02*
X93486000Y-107728000D01*
X95566000Y-114268000D02*
X95896000Y-114268000D01*
X125672600Y-116305000D02*
X119132600Y-116305000D01*
X125672600Y-115975000D02*
X125672600Y-116305000D01*
X125672600Y-113895000D02*
X125672600Y-113565000D01*
X125672600Y-113565000D02*
X119132600Y-113565000D01*
X119132600Y-113565000D02*
X119132600Y-113895000D01*
X119132600Y-116305000D02*
X119132600Y-115975000D01*
X125672600Y-110593000D02*
X125672600Y-110263000D01*
X125672600Y-112673000D02*
X125672600Y-113003000D01*
X119132600Y-113003000D02*
X119132600Y-112673000D01*
X125672600Y-113003000D02*
X119132600Y-113003000D01*
X125672600Y-110263000D02*
X119132600Y-110263000D01*
X119132600Y-110263000D02*
X119132600Y-110593000D01*
X125672600Y-109701000D02*
X119132600Y-109701000D01*
X125672600Y-109371000D02*
X125672600Y-109701000D01*
X125672600Y-107291000D02*
X125672600Y-106961000D01*
X119132600Y-106961000D02*
X119132600Y-107291000D01*
X119132600Y-109701000D02*
X119132600Y-109371000D01*
X125672600Y-106961000D02*
X119132600Y-106961000D01*
X125672600Y-103659000D02*
X119132600Y-103659000D01*
X125672600Y-106399000D02*
X119132600Y-106399000D01*
X119132600Y-103659000D02*
X119132600Y-103989000D01*
X125672600Y-103989000D02*
X125672600Y-103659000D01*
X125672600Y-106069000D02*
X125672600Y-106399000D01*
X119132600Y-106399000D02*
X119132600Y-106069000D01*
X99760000Y-107728000D02*
X100090000Y-107728000D01*
X102170000Y-114268000D02*
X102500000Y-114268000D01*
X100090000Y-114268000D02*
X99760000Y-114268000D01*
X99760000Y-114268000D02*
X99760000Y-107728000D01*
X102500000Y-107728000D02*
X102170000Y-107728000D01*
X102500000Y-114268000D02*
X102500000Y-107728000D01*
X98868000Y-114268000D02*
X99198000Y-114268000D01*
X96458000Y-114268000D02*
X96458000Y-107728000D01*
X99198000Y-107728000D02*
X98868000Y-107728000D01*
X99198000Y-114268000D02*
X99198000Y-107728000D01*
X96788000Y-114268000D02*
X96458000Y-114268000D01*
X96458000Y-107728000D02*
X96788000Y-107728000D01*
X125672600Y-99795000D02*
X119132600Y-99795000D01*
X125672600Y-97055000D02*
X119132600Y-97055000D01*
X125672600Y-97385000D02*
X125672600Y-97055000D01*
X125672600Y-99465000D02*
X125672600Y-99795000D01*
X119132600Y-99795000D02*
X119132600Y-99465000D01*
X119132600Y-97055000D02*
X119132600Y-97385000D01*
X104969000Y-95003000D02*
X104969000Y-115563000D01*
X115249000Y-115563000D02*
X115249000Y-95003000D01*
X112759000Y-95063000D02*
X111109000Y-95063000D01*
X104969000Y-115563000D02*
X115249000Y-115563000D01*
X112759000Y-115503000D02*
X112759000Y-95063000D01*
X115249000Y-95003000D02*
X104969000Y-95003000D01*
X109109000Y-95063000D02*
X107459000Y-95063000D01*
X107459000Y-95063000D02*
X107459000Y-115503000D01*
X107459000Y-115503000D02*
X112759000Y-115503000D01*
X109109000Y-95063000D02*
G75*
G03*
X111109000Y-95063000I1000000J0D01*
G01*
X130139000Y-97346000D02*
X130139000Y-97502000D01*
X130139000Y-95030000D02*
X130139000Y-95186000D01*
X132740130Y-95186163D02*
G75*
G03*
X130658039Y-95186000I-1041130J-1079837D01*
G01*
X130139000Y-97501516D02*
G75*
G03*
X133371335Y-97344608I1560000J1235516D01*
G01*
X130658039Y-97346000D02*
G75*
G03*
X132740130Y-97345837I1040961J1080000D01*
G01*
X133371335Y-95187392D02*
G75*
G03*
X130139000Y-95030484I-1672335J-1078608D01*
G01*
X130266000Y-103315000D02*
X130266000Y-103471000D01*
X130266000Y-100999000D02*
X130266000Y-101155000D01*
X133498335Y-101156392D02*
G75*
G03*
X130266000Y-100999484I-1672335J-1078608D01*
G01*
X130266000Y-103470516D02*
G75*
G03*
X133498335Y-103313608I1560000J1235516D01*
G01*
X130785039Y-103315000D02*
G75*
G03*
X132867130Y-103314837I1040961J1080000D01*
G01*
X132867130Y-101155163D02*
G75*
G03*
X130785039Y-101155000I-1041130J-1079837D01*
G01*
X130266000Y-109284000D02*
X130266000Y-109440000D01*
X130266000Y-106968000D02*
X130266000Y-107124000D01*
X130785039Y-109284000D02*
G75*
G03*
X132867130Y-109283837I1040961J1080000D01*
G01*
X133498335Y-107125392D02*
G75*
G03*
X130266000Y-106968484I-1672335J-1078608D01*
G01*
X132867130Y-107124163D02*
G75*
G03*
X130785039Y-107124000I-1041130J-1079837D01*
G01*
X130266000Y-109439516D02*
G75*
G03*
X133498335Y-109282608I1560000J1235516D01*
G01*
X130266000Y-115253000D02*
X130266000Y-115409000D01*
X130266000Y-112937000D02*
X130266000Y-113093000D01*
X130266000Y-115408516D02*
G75*
G03*
X133498335Y-115251608I1560000J1235516D01*
G01*
X133498335Y-113094392D02*
G75*
G03*
X130266000Y-112937484I-1672335J-1078608D01*
G01*
X130785039Y-115253000D02*
G75*
G03*
X132867130Y-115252837I1040961J1080000D01*
G01*
X132867130Y-113093163D02*
G75*
G03*
X130785039Y-113093000I-1041130J-1079837D01*
G01*
X149090000Y-100050000D02*
X140460000Y-100050000D01*
X149090000Y-109265240D02*
X140460000Y-109265240D01*
X149090000Y-108556670D02*
X140460000Y-108556670D01*
X149090000Y-102650000D02*
X140460000Y-102650000D01*
X139000000Y-110330000D02*
X137890000Y-110330000D01*
X149090000Y-109383335D02*
X140460000Y-109383335D01*
X149090000Y-107730000D02*
X140460000Y-107730000D01*
X149090000Y-109973810D02*
X140460000Y-109973810D01*
X149090000Y-108910955D02*
X140460000Y-108910955D01*
X149090000Y-109619525D02*
X140460000Y-109619525D01*
X149090000Y-105190000D02*
X140460000Y-105190000D01*
X149090000Y-110210000D02*
X140460000Y-110210000D01*
X140460000Y-103560000D02*
X140050000Y-103560000D01*
X149090000Y-109855715D02*
X140460000Y-109855715D01*
X137890000Y-110330000D02*
X137890000Y-109000000D01*
X149090000Y-108438575D02*
X140460000Y-108438575D01*
X149090000Y-108202385D02*
X140460000Y-108202385D01*
X140460000Y-101020000D02*
X140050000Y-101020000D01*
X140460000Y-101740000D02*
X140050000Y-101740000D01*
X140460000Y-108640000D02*
X140110000Y-108640000D01*
X149090000Y-110330000D02*
X140460000Y-110330000D01*
X149090000Y-108674765D02*
X140460000Y-108674765D01*
X140460000Y-106100000D02*
X140050000Y-106100000D01*
X149090000Y-107966195D02*
X140460000Y-107966195D01*
X149090000Y-109029050D02*
X140460000Y-109029050D01*
X149090000Y-108792860D02*
X140460000Y-108792860D01*
X149090000Y-110330000D02*
X149090000Y-100050000D01*
X149090000Y-108084290D02*
X140460000Y-108084290D01*
X140460000Y-110330000D02*
X140460000Y-100050000D01*
X149090000Y-110091905D02*
X140460000Y-110091905D01*
X149090000Y-109501430D02*
X140460000Y-109501430D01*
X149090000Y-109147145D02*
X140460000Y-109147145D01*
X149090000Y-109737620D02*
X140460000Y-109737620D01*
X149090000Y-107848100D02*
X140460000Y-107848100D01*
X140460000Y-106820000D02*
X140050000Y-106820000D01*
X149090000Y-108320480D02*
X140460000Y-108320480D01*
X140460000Y-109360000D02*
X140110000Y-109360000D01*
X140460000Y-104280000D02*
X140050000Y-104280000D01*
X99130000Y-99695000D02*
X101730000Y-99695000D01*
X93990000Y-97095000D02*
X93990000Y-102295000D01*
X100400000Y-97095000D02*
X101730000Y-97095000D01*
X101730000Y-97095000D02*
X101730000Y-98425000D01*
X99130000Y-97095000D02*
X93990000Y-97095000D01*
X101730000Y-99695000D02*
X101730000Y-102295000D01*
X101730000Y-102295000D02*
X93990000Y-102295000D01*
X99130000Y-97095000D02*
X99130000Y-99695000D01*
X120013400Y-94104600D02*
X124853400Y-94104600D01*
X120013400Y-96344600D02*
X124853400Y-96344600D01*
X124853400Y-94104600D02*
X124853400Y-96344600D01*
X120013400Y-94104600D02*
X120013400Y-96344600D01*
X76000000Y-95500000D02*
X71500000Y-95500000D01*
X77250000Y-99500000D02*
X77250000Y-98000000D01*
X71500000Y-102000000D02*
X76000000Y-102000000D01*
X70250000Y-98000000D02*
X70250000Y-99500000D01*
X88750000Y-99500000D02*
X88750000Y-98000000D01*
X81750000Y-98000000D02*
X81750000Y-99500000D01*
X83000000Y-102000000D02*
X87500000Y-102000000D01*
X87500000Y-95500000D02*
X83000000Y-95500000D01*
X77250000Y-112800000D02*
X77250000Y-111300000D01*
X76000000Y-108800000D02*
X71500000Y-108800000D01*
X71500000Y-115300000D02*
X76000000Y-115300000D01*
X70250000Y-111300000D02*
X70250000Y-112800000D01*
X88750000Y-112800000D02*
X88750000Y-111300000D01*
X81750000Y-111300000D02*
X81750000Y-112800000D01*
X87500000Y-108800000D02*
X83000000Y-108800000D01*
X83000000Y-115300000D02*
X87500000Y-115300000D01*
X53527000Y-101000000D02*
X59527000Y-101000000D01*
X59527000Y-109320000D02*
X53527000Y-109320000D01*
X62187000Y-105190000D02*
X59527000Y-105190000D01*
X59527000Y-109080000D02*
X53527000Y-109080000D01*
X62584071Y-103540000D02*
X62187000Y-103540000D01*
X62584071Y-106080000D02*
X62187000Y-106080000D01*
X62187000Y-97510000D02*
X59527000Y-97510000D01*
X62187000Y-102650000D02*
X59527000Y-102650000D01*
X59527000Y-109200000D02*
X53527000Y-109200000D01*
X59527000Y-97510000D02*
X59527000Y-110330000D01*
X59527000Y-104300000D02*
X53527000Y-104300000D01*
X53527000Y-103540000D02*
X59527000Y-103540000D01*
X62517000Y-109380000D02*
X62187000Y-109380000D01*
X53527000Y-99220000D02*
X53527000Y-98460000D01*
X53527000Y-104300000D02*
X53527000Y-103540000D01*
X62584071Y-101760000D02*
X62187000Y-101760000D01*
X62187000Y-107730000D02*
X59527000Y-107730000D01*
X53527000Y-108620000D02*
X59527000Y-108620000D01*
X62584071Y-104300000D02*
X62187000Y-104300000D01*
X53527000Y-101760000D02*
X53527000Y-101000000D01*
X59527000Y-110330000D02*
X62187000Y-110330000D01*
X59527000Y-108840000D02*
X53527000Y-108840000D01*
X62187000Y-110330000D02*
X62187000Y-97510000D01*
X53527000Y-106840000D02*
X53527000Y-106080000D01*
X53527000Y-106080000D02*
X59527000Y-106080000D01*
X53527000Y-109380000D02*
X53527000Y-108620000D01*
X62187000Y-100110000D02*
X59527000Y-100110000D01*
X59527000Y-109380000D02*
X53527000Y-109380000D01*
X62584071Y-98460000D02*
X62187000Y-98460000D01*
X62517000Y-108620000D02*
X62187000Y-108620000D01*
X59527000Y-99220000D02*
X53527000Y-99220000D01*
X59527000Y-106840000D02*
X53527000Y-106840000D01*
X59527000Y-101760000D02*
X53527000Y-101760000D01*
X64897000Y-109000000D02*
X64897000Y-110270000D01*
X64897000Y-110270000D02*
X63627000Y-110270000D01*
X59527000Y-108720000D02*
X53527000Y-108720000D01*
X59527000Y-108960000D02*
X53527000Y-108960000D01*
X62584071Y-101000000D02*
X62187000Y-101000000D01*
X62584071Y-99220000D02*
X62187000Y-99220000D01*
X62584071Y-106840000D02*
X62187000Y-106840000D01*
X53527000Y-98460000D02*
X59527000Y-98460000D01*
G36*
X143294876Y-98156335D02*
G01*
X143336667Y-98175344D01*
X143369469Y-98198378D01*
X143393503Y-98224133D01*
X143410097Y-98257358D01*
X143420577Y-98302800D01*
X143426271Y-98365207D01*
X143428507Y-98449327D01*
X143428743Y-98504721D01*
X143428743Y-98720826D01*
X143391774Y-98737670D01*
X143362656Y-98749981D01*
X143348231Y-98754514D01*
X143345472Y-98741025D01*
X143343282Y-98704653D01*
X143341942Y-98651542D01*
X143341657Y-98609372D01*
X143340434Y-98548447D01*
X143337136Y-98500115D01*
X143332321Y-98470518D01*
X143328496Y-98464229D01*
X143302783Y-98470652D01*
X143262418Y-98487125D01*
X143215679Y-98509458D01*
X143170845Y-98533457D01*
X143136193Y-98554930D01*
X143120002Y-98569685D01*
X143119938Y-98569845D01*
X143121330Y-98597152D01*
X143133818Y-98623219D01*
X143155743Y-98644392D01*
X143187743Y-98651474D01*
X143215092Y-98650649D01*
X143253826Y-98650042D01*
X143274158Y-98659116D01*
X143286369Y-98683092D01*
X143287909Y-98687613D01*
X143293203Y-98721806D01*
X143279047Y-98742568D01*
X143242148Y-98752462D01*
X143202289Y-98754292D01*
X143130562Y-98740727D01*
X143093432Y-98721355D01*
X143047576Y-98675845D01*
X143023256Y-98619983D01*
X143021073Y-98560957D01*
X143041629Y-98505953D01*
X143072549Y-98471486D01*
X143103420Y-98452189D01*
X143151942Y-98427759D01*
X143208485Y-98402985D01*
X143217910Y-98399199D01*
X143280019Y-98371791D01*
X143315822Y-98347634D01*
X143327337Y-98323619D01*
X143316580Y-98296635D01*
X143298114Y-98275543D01*
X143254469Y-98249572D01*
X143206446Y-98247624D01*
X143162406Y-98267637D01*
X143130709Y-98307551D01*
X143126549Y-98317848D01*
X143102327Y-98355724D01*
X143066965Y-98383842D01*
X143022343Y-98406917D01*
X143022343Y-98341485D01*
X143024969Y-98301506D01*
X143036230Y-98269997D01*
X143061199Y-98236378D01*
X143085169Y-98210484D01*
X143122441Y-98173817D01*
X143151401Y-98154121D01*
X143182505Y-98146220D01*
X143217713Y-98144914D01*
X143294876Y-98156335D01*
G37*
D14*
X143294876Y-98156335D02*
X143336667Y-98175344D01*
X143369469Y-98198378D01*
X143393503Y-98224133D01*
X143410097Y-98257358D01*
X143420577Y-98302800D01*
X143426271Y-98365207D01*
X143428507Y-98449327D01*
X143428743Y-98504721D01*
X143428743Y-98720826D01*
X143391774Y-98737670D01*
X143362656Y-98749981D01*
X143348231Y-98754514D01*
X143345472Y-98741025D01*
X143343282Y-98704653D01*
X143341942Y-98651542D01*
X143341657Y-98609372D01*
X143340434Y-98548447D01*
X143337136Y-98500115D01*
X143332321Y-98470518D01*
X143328496Y-98464229D01*
X143302783Y-98470652D01*
X143262418Y-98487125D01*
X143215679Y-98509458D01*
X143170845Y-98533457D01*
X143136193Y-98554930D01*
X143120002Y-98569685D01*
X143119938Y-98569845D01*
X143121330Y-98597152D01*
X143133818Y-98623219D01*
X143155743Y-98644392D01*
X143187743Y-98651474D01*
X143215092Y-98650649D01*
X143253826Y-98650042D01*
X143274158Y-98659116D01*
X143286369Y-98683092D01*
X143287909Y-98687613D01*
X143293203Y-98721806D01*
X143279047Y-98742568D01*
X143242148Y-98752462D01*
X143202289Y-98754292D01*
X143130562Y-98740727D01*
X143093432Y-98721355D01*
X143047576Y-98675845D01*
X143023256Y-98619983D01*
X143021073Y-98560957D01*
X143041629Y-98505953D01*
X143072549Y-98471486D01*
X143103420Y-98452189D01*
X143151942Y-98427759D01*
X143208485Y-98402985D01*
X143217910Y-98399199D01*
X143280019Y-98371791D01*
X143315822Y-98347634D01*
X143327337Y-98323619D01*
X143316580Y-98296635D01*
X143298114Y-98275543D01*
X143254469Y-98249572D01*
X143206446Y-98247624D01*
X143162406Y-98267637D01*
X143130709Y-98307551D01*
X143126549Y-98317848D01*
X143102327Y-98355724D01*
X143066965Y-98383842D01*
X143022343Y-98406917D01*
X143022343Y-98341485D01*
X143024969Y-98301506D01*
X143036230Y-98269997D01*
X143061199Y-98236378D01*
X143085169Y-98210484D01*
X143122441Y-98173817D01*
X143151401Y-98154121D01*
X143182505Y-98146220D01*
X143217713Y-98144914D01*
X143294876Y-98156335D01*
G36*
X141679926Y-98149755D02*
G01*
X141745858Y-98174084D01*
X141799273Y-98217117D01*
X141820164Y-98247409D01*
X141842939Y-98302994D01*
X141842466Y-98343186D01*
X141818562Y-98370217D01*
X141809717Y-98374813D01*
X141771530Y-98389144D01*
X141752028Y-98385472D01*
X141745422Y-98361407D01*
X141745086Y-98348114D01*
X141732992Y-98299210D01*
X141701471Y-98264999D01*
X141657659Y-98248476D01*
X141608695Y-98252634D01*
X141568894Y-98274227D01*
X141555450Y-98286544D01*
X141545921Y-98301487D01*
X141539485Y-98324075D01*
X141535317Y-98359328D01*
X141532597Y-98412266D01*
X141530502Y-98487907D01*
X141529960Y-98511857D01*
X141527981Y-98593790D01*
X141525731Y-98651455D01*
X141522357Y-98689608D01*
X141517006Y-98713004D01*
X141508824Y-98726398D01*
X141496959Y-98734545D01*
X141489362Y-98738144D01*
X141457102Y-98750452D01*
X141438111Y-98754514D01*
X141431836Y-98740948D01*
X141428006Y-98699934D01*
X141426600Y-98630999D01*
X141427598Y-98533669D01*
X141427908Y-98518657D01*
X141430101Y-98429859D01*
X141432693Y-98365019D01*
X141436382Y-98319067D01*
X141441864Y-98286935D01*
X141449835Y-98263553D01*
X141460993Y-98243852D01*
X141466830Y-98235410D01*
X141500296Y-98198057D01*
X141537727Y-98169003D01*
X141542309Y-98166467D01*
X141609426Y-98146443D01*
X141679926Y-98149755D01*
G37*
X141679926Y-98149755D02*
X141745858Y-98174084D01*
X141799273Y-98217117D01*
X141820164Y-98247409D01*
X141842939Y-98302994D01*
X141842466Y-98343186D01*
X141818562Y-98370217D01*
X141809717Y-98374813D01*
X141771530Y-98389144D01*
X141752028Y-98385472D01*
X141745422Y-98361407D01*
X141745086Y-98348114D01*
X141732992Y-98299210D01*
X141701471Y-98264999D01*
X141657659Y-98248476D01*
X141608695Y-98252634D01*
X141568894Y-98274227D01*
X141555450Y-98286544D01*
X141545921Y-98301487D01*
X141539485Y-98324075D01*
X141535317Y-98359328D01*
X141532597Y-98412266D01*
X141530502Y-98487907D01*
X141529960Y-98511857D01*
X141527981Y-98593790D01*
X141525731Y-98651455D01*
X141522357Y-98689608D01*
X141517006Y-98713004D01*
X141508824Y-98726398D01*
X141496959Y-98734545D01*
X141489362Y-98738144D01*
X141457102Y-98750452D01*
X141438111Y-98754514D01*
X141431836Y-98740948D01*
X141428006Y-98699934D01*
X141426600Y-98630999D01*
X141427598Y-98533669D01*
X141427908Y-98518657D01*
X141430101Y-98429859D01*
X141432693Y-98365019D01*
X141436382Y-98319067D01*
X141441864Y-98286935D01*
X141449835Y-98263553D01*
X141460993Y-98243852D01*
X141466830Y-98235410D01*
X141500296Y-98198057D01*
X141537727Y-98169003D01*
X141542309Y-98166467D01*
X141609426Y-98146443D01*
X141679926Y-98149755D01*
G36*
X144018196Y-98295384D02*
G01*
X144031884Y-98246695D01*
X144054096Y-98210849D01*
X144086574Y-98182513D01*
X144100733Y-98173355D01*
X144165053Y-98149507D01*
X144235473Y-98148006D01*
X144303595Y-98166966D01*
X144361021Y-98204497D01*
X144388719Y-98238096D01*
X144410662Y-98299064D01*
X144412405Y-98347308D01*
X144408457Y-98411816D01*
X144259686Y-98476934D01*
X144187349Y-98510202D01*
X144140084Y-98536964D01*
X144115507Y-98560144D01*
X144111237Y-98582667D01*
X144124889Y-98607455D01*
X144139943Y-98623886D01*
X144183746Y-98650235D01*
X144231389Y-98652081D01*
X144275145Y-98631546D01*
X144307289Y-98590752D01*
X144313038Y-98576347D01*
X144340576Y-98531356D01*
X144372258Y-98512182D01*
X144415714Y-98495779D01*
X144415714Y-98557966D01*
X144411872Y-98600283D01*
X144396823Y-98635969D01*
X144365280Y-98676943D01*
X144360592Y-98682267D01*
X144325506Y-98718720D01*
X144295347Y-98738283D01*
X144257615Y-98747283D01*
X144226335Y-98750230D01*
X144170385Y-98750965D01*
X144130555Y-98741660D01*
X144105708Y-98727846D01*
X144066656Y-98697467D01*
X144039625Y-98664613D01*
X144022517Y-98623294D01*
X144013238Y-98567521D01*
X144009693Y-98491305D01*
X144009410Y-98452622D01*
X144010372Y-98406247D01*
X144098007Y-98406247D01*
X144099023Y-98431126D01*
X144101556Y-98435200D01*
X144118274Y-98429665D01*
X144154249Y-98415017D01*
X144202331Y-98394190D01*
X144212386Y-98389714D01*
X144273152Y-98358814D01*
X144306632Y-98331657D01*
X144313990Y-98306220D01*
X144296391Y-98280481D01*
X144281856Y-98269109D01*
X144229410Y-98246364D01*
X144180322Y-98250122D01*
X144139227Y-98277884D01*
X144110758Y-98327152D01*
X144101631Y-98366257D01*
X144098007Y-98406247D01*
X144010372Y-98406247D01*
X144011285Y-98362249D01*
X144018196Y-98295384D01*
G37*
X144018196Y-98295384D02*
X144031884Y-98246695D01*
X144054096Y-98210849D01*
X144086574Y-98182513D01*
X144100733Y-98173355D01*
X144165053Y-98149507D01*
X144235473Y-98148006D01*
X144303595Y-98166966D01*
X144361021Y-98204497D01*
X144388719Y-98238096D01*
X144410662Y-98299064D01*
X144412405Y-98347308D01*
X144408457Y-98411816D01*
X144259686Y-98476934D01*
X144187349Y-98510202D01*
X144140084Y-98536964D01*
X144115507Y-98560144D01*
X144111237Y-98582667D01*
X144124889Y-98607455D01*
X144139943Y-98623886D01*
X144183746Y-98650235D01*
X144231389Y-98652081D01*
X144275145Y-98631546D01*
X144307289Y-98590752D01*
X144313038Y-98576347D01*
X144340576Y-98531356D01*
X144372258Y-98512182D01*
X144415714Y-98495779D01*
X144415714Y-98557966D01*
X144411872Y-98600283D01*
X144396823Y-98635969D01*
X144365280Y-98676943D01*
X144360592Y-98682267D01*
X144325506Y-98718720D01*
X144295347Y-98738283D01*
X144257615Y-98747283D01*
X144226335Y-98750230D01*
X144170385Y-98750965D01*
X144130555Y-98741660D01*
X144105708Y-98727846D01*
X144066656Y-98697467D01*
X144039625Y-98664613D01*
X144022517Y-98623294D01*
X144013238Y-98567521D01*
X144009693Y-98491305D01*
X144009410Y-98452622D01*
X144010372Y-98406247D01*
X144098007Y-98406247D01*
X144099023Y-98431126D01*
X144101556Y-98435200D01*
X144118274Y-98429665D01*
X144154249Y-98415017D01*
X144202331Y-98394190D01*
X144212386Y-98389714D01*
X144273152Y-98358814D01*
X144306632Y-98331657D01*
X144313990Y-98306220D01*
X144296391Y-98280481D01*
X144281856Y-98269109D01*
X144229410Y-98246364D01*
X144180322Y-98250122D01*
X144139227Y-98277884D01*
X144110758Y-98327152D01*
X144101631Y-98366257D01*
X144098007Y-98406247D01*
X144010372Y-98406247D01*
X144011285Y-98362249D01*
X144018196Y-98295384D01*
G36*
X141934726Y-98290086D02*
G01*
X141957135Y-98238600D01*
X141992124Y-98198443D01*
X142019375Y-98177861D01*
X142068907Y-98155625D01*
X142126316Y-98145304D01*
X142179682Y-98148067D01*
X142209543Y-98159212D01*
X142221261Y-98162383D01*
X142229037Y-98150557D01*
X142234465Y-98118866D01*
X142238571Y-98070593D01*
X142243067Y-98016829D01*
X142249313Y-97984482D01*
X142260676Y-97965985D01*
X142280528Y-97953770D01*
X142293000Y-97948362D01*
X142340171Y-97928601D01*
X142340117Y-98265358D01*
X142339933Y-98373837D01*
X142339219Y-98457287D01*
X142337675Y-98519704D01*
X142335001Y-98565085D01*
X142330894Y-98597429D01*
X142325055Y-98620733D01*
X142317182Y-98638995D01*
X142311221Y-98649418D01*
X142261855Y-98705945D01*
X142199264Y-98741377D01*
X142130013Y-98754090D01*
X142060668Y-98742463D01*
X142019375Y-98721568D01*
X141976025Y-98685422D01*
X141946481Y-98641276D01*
X141928655Y-98583462D01*
X141920463Y-98506313D01*
X141919302Y-98449714D01*
X141919458Y-98445647D01*
X142020857Y-98445647D01*
X142021476Y-98510550D01*
X142024314Y-98553514D01*
X142030840Y-98581622D01*
X142042523Y-98601953D01*
X142056483Y-98617288D01*
X142103365Y-98646890D01*
X142153701Y-98649419D01*
X142201276Y-98624705D01*
X142204979Y-98621356D01*
X142220783Y-98603935D01*
X142230693Y-98583209D01*
X142236058Y-98552362D01*
X142238228Y-98504577D01*
X142238571Y-98451748D01*
X142237827Y-98385381D01*
X142234748Y-98341106D01*
X142228061Y-98312009D01*
X142216496Y-98291173D01*
X142207013Y-98280107D01*
X142162960Y-98252198D01*
X142112224Y-98248843D01*
X142063796Y-98270159D01*
X142054450Y-98278073D01*
X142038540Y-98295647D01*
X142028610Y-98316587D01*
X142023278Y-98347782D01*
X142021163Y-98396122D01*
X142020857Y-98445647D01*
X141919458Y-98445647D01*
X141922810Y-98358568D01*
X141934726Y-98290086D01*
G37*
X141934726Y-98290086D02*
X141957135Y-98238600D01*
X141992124Y-98198443D01*
X142019375Y-98177861D01*
X142068907Y-98155625D01*
X142126316Y-98145304D01*
X142179682Y-98148067D01*
X142209543Y-98159212D01*
X142221261Y-98162383D01*
X142229037Y-98150557D01*
X142234465Y-98118866D01*
X142238571Y-98070593D01*
X142243067Y-98016829D01*
X142249313Y-97984482D01*
X142260676Y-97965985D01*
X142280528Y-97953770D01*
X142293000Y-97948362D01*
X142340171Y-97928601D01*
X142340117Y-98265358D01*
X142339933Y-98373837D01*
X142339219Y-98457287D01*
X142337675Y-98519704D01*
X142335001Y-98565085D01*
X142330894Y-98597429D01*
X142325055Y-98620733D01*
X142317182Y-98638995D01*
X142311221Y-98649418D01*
X142261855Y-98705945D01*
X142199264Y-98741377D01*
X142130013Y-98754090D01*
X142060668Y-98742463D01*
X142019375Y-98721568D01*
X141976025Y-98685422D01*
X141946481Y-98641276D01*
X141928655Y-98583462D01*
X141920463Y-98506313D01*
X141919302Y-98449714D01*
X141919458Y-98445647D01*
X142020857Y-98445647D01*
X142021476Y-98510550D01*
X142024314Y-98553514D01*
X142030840Y-98581622D01*
X142042523Y-98601953D01*
X142056483Y-98617288D01*
X142103365Y-98646890D01*
X142153701Y-98649419D01*
X142201276Y-98624705D01*
X142204979Y-98621356D01*
X142220783Y-98603935D01*
X142230693Y-98583209D01*
X142236058Y-98552362D01*
X142238228Y-98504577D01*
X142238571Y-98451748D01*
X142237827Y-98385381D01*
X142234748Y-98341106D01*
X142228061Y-98312009D01*
X142216496Y-98291173D01*
X142207013Y-98280107D01*
X142162960Y-98252198D01*
X142112224Y-98248843D01*
X142063796Y-98270159D01*
X142054450Y-98278073D01*
X142038540Y-98295647D01*
X142028610Y-98316587D01*
X142023278Y-98347782D01*
X142021163Y-98396122D01*
X142020857Y-98445647D01*
X141919458Y-98445647D01*
X141922810Y-98358568D01*
X141934726Y-98290086D01*
G36*
X143802600Y-98158752D02*
G01*
X143819948Y-98166334D01*
X143861356Y-98199128D01*
X143896765Y-98246547D01*
X143918664Y-98297151D01*
X143922229Y-98322098D01*
X143910279Y-98356927D01*
X143884067Y-98375357D01*
X143855964Y-98386516D01*
X143843095Y-98388572D01*
X143836829Y-98373649D01*
X143824456Y-98341175D01*
X143819028Y-98326502D01*
X143788590Y-98275744D01*
X143744520Y-98250427D01*
X143688010Y-98251206D01*
X143683825Y-98252203D01*
X143653655Y-98266507D01*
X143631476Y-98294393D01*
X143616327Y-98339287D01*
X143607250Y-98404615D01*
X143603286Y-98493804D01*
X143602914Y-98541261D01*
X143602730Y-98616071D01*
X143601522Y-98667069D01*
X143598309Y-98699471D01*
X143592109Y-98718495D01*
X143581940Y-98729356D01*
X143566819Y-98737272D01*
X143565946Y-98737670D01*
X143536828Y-98749981D01*
X143522403Y-98754514D01*
X143520186Y-98740809D01*
X143518289Y-98702925D01*
X143516847Y-98645715D01*
X143515998Y-98574027D01*
X143515829Y-98521565D01*
X143516692Y-98420047D01*
X143520070Y-98343032D01*
X143527142Y-98286023D01*
X143539088Y-98244526D01*
X143557090Y-98214043D01*
X143582327Y-98190080D01*
X143607247Y-98173355D01*
X143667171Y-98151097D01*
X143736911Y-98146076D01*
X143802600Y-98158752D01*
G37*
X143802600Y-98158752D02*
X143819948Y-98166334D01*
X143861356Y-98199128D01*
X143896765Y-98246547D01*
X143918664Y-98297151D01*
X143922229Y-98322098D01*
X143910279Y-98356927D01*
X143884067Y-98375357D01*
X143855964Y-98386516D01*
X143843095Y-98388572D01*
X143836829Y-98373649D01*
X143824456Y-98341175D01*
X143819028Y-98326502D01*
X143788590Y-98275744D01*
X143744520Y-98250427D01*
X143688010Y-98251206D01*
X143683825Y-98252203D01*
X143653655Y-98266507D01*
X143631476Y-98294393D01*
X143616327Y-98339287D01*
X143607250Y-98404615D01*
X143603286Y-98493804D01*
X143602914Y-98541261D01*
X143602730Y-98616071D01*
X143601522Y-98667069D01*
X143598309Y-98699471D01*
X143592109Y-98718495D01*
X143581940Y-98729356D01*
X143566819Y-98737272D01*
X143565946Y-98737670D01*
X143536828Y-98749981D01*
X143522403Y-98754514D01*
X143520186Y-98740809D01*
X143518289Y-98702925D01*
X143516847Y-98645715D01*
X143515998Y-98574027D01*
X143515829Y-98521565D01*
X143516692Y-98420047D01*
X143520070Y-98343032D01*
X143527142Y-98286023D01*
X143539088Y-98244526D01*
X143557090Y-98214043D01*
X143582327Y-98190080D01*
X143607247Y-98173355D01*
X143667171Y-98151097D01*
X143736911Y-98146076D01*
X143802600Y-98158752D01*
G36*
X137887096Y-98308159D02*
G01*
X137892068Y-98271949D01*
X137900713Y-98245299D01*
X137914005Y-98221722D01*
X137916943Y-98217338D01*
X137966313Y-98158249D01*
X138020109Y-98123947D01*
X138085602Y-98110331D01*
X138107842Y-98109665D01*
X138191115Y-98121962D01*
X138259145Y-98157733D01*
X138309351Y-98215301D01*
X138327185Y-98252312D01*
X138341063Y-98307882D01*
X138348167Y-98378096D01*
X138348840Y-98454727D01*
X138343427Y-98529552D01*
X138332270Y-98594342D01*
X138315714Y-98640873D01*
X138310626Y-98648887D01*
X138250355Y-98708707D01*
X138178769Y-98744535D01*
X138101092Y-98755020D01*
X138022548Y-98738810D01*
X138000689Y-98729092D01*
X137958122Y-98699143D01*
X137920763Y-98659433D01*
X137917232Y-98654397D01*
X137902881Y-98630124D01*
X137893394Y-98604178D01*
X137887790Y-98570022D01*
X137885086Y-98521119D01*
X137884299Y-98450935D01*
X137884286Y-98435200D01*
X137884322Y-98430192D01*
X138029429Y-98430192D01*
X138030273Y-98496430D01*
X138033596Y-98540386D01*
X138040583Y-98568779D01*
X138052416Y-98588325D01*
X138058457Y-98594857D01*
X138093186Y-98619680D01*
X138126903Y-98618548D01*
X138160995Y-98597016D01*
X138181329Y-98574029D01*
X138193371Y-98540478D01*
X138200134Y-98487569D01*
X138200598Y-98481399D01*
X138201752Y-98385513D01*
X138189688Y-98314299D01*
X138164570Y-98268194D01*
X138126560Y-98247635D01*
X138112992Y-98246514D01*
X138077364Y-98252152D01*
X138052994Y-98271686D01*
X138038093Y-98309042D01*
X138030875Y-98368150D01*
X138029429Y-98430192D01*
X137884322Y-98430192D01*
X137884826Y-98360413D01*
X137887096Y-98308159D01*
G37*
X137887096Y-98308159D02*
X137892068Y-98271949D01*
X137900713Y-98245299D01*
X137914005Y-98221722D01*
X137916943Y-98217338D01*
X137966313Y-98158249D01*
X138020109Y-98123947D01*
X138085602Y-98110331D01*
X138107842Y-98109665D01*
X138191115Y-98121962D01*
X138259145Y-98157733D01*
X138309351Y-98215301D01*
X138327185Y-98252312D01*
X138341063Y-98307882D01*
X138348167Y-98378096D01*
X138348840Y-98454727D01*
X138343427Y-98529552D01*
X138332270Y-98594342D01*
X138315714Y-98640873D01*
X138310626Y-98648887D01*
X138250355Y-98708707D01*
X138178769Y-98744535D01*
X138101092Y-98755020D01*
X138022548Y-98738810D01*
X138000689Y-98729092D01*
X137958122Y-98699143D01*
X137920763Y-98659433D01*
X137917232Y-98654397D01*
X137902881Y-98630124D01*
X137893394Y-98604178D01*
X137887790Y-98570022D01*
X137885086Y-98521119D01*
X137884299Y-98450935D01*
X137884286Y-98435200D01*
X137884322Y-98430192D01*
X138029429Y-98430192D01*
X138030273Y-98496430D01*
X138033596Y-98540386D01*
X138040583Y-98568779D01*
X138052416Y-98588325D01*
X138058457Y-98594857D01*
X138093186Y-98619680D01*
X138126903Y-98618548D01*
X138160995Y-98597016D01*
X138181329Y-98574029D01*
X138193371Y-98540478D01*
X138200134Y-98487569D01*
X138200598Y-98481399D01*
X138201752Y-98385513D01*
X138189688Y-98314299D01*
X138164570Y-98268194D01*
X138126560Y-98247635D01*
X138112992Y-98246514D01*
X138077364Y-98252152D01*
X138052994Y-98271686D01*
X138038093Y-98309042D01*
X138030875Y-98368150D01*
X138029429Y-98430192D01*
X137884322Y-98430192D01*
X137884826Y-98360413D01*
X137887096Y-98308159D01*
G36*
X139021550Y-98236212D02*
G01*
X139055456Y-98187302D01*
X139116653Y-98137878D01*
X139184063Y-98113359D01*
X139252880Y-98111797D01*
X139318303Y-98131239D01*
X139375527Y-98169735D01*
X139419749Y-98225335D01*
X139446167Y-98296086D01*
X139451510Y-98348162D01*
X139450903Y-98369893D01*
X139445822Y-98386531D01*
X139431855Y-98401437D01*
X139404589Y-98417973D01*
X139359612Y-98439498D01*
X139292511Y-98469374D01*
X139292171Y-98469524D01*
X139230407Y-98497813D01*
X139179759Y-98522933D01*
X139145404Y-98542179D01*
X139132518Y-98552848D01*
X139132514Y-98552934D01*
X139143872Y-98576166D01*
X139170431Y-98601774D01*
X139200923Y-98620221D01*
X139216370Y-98623886D01*
X139258515Y-98611212D01*
X139294808Y-98579471D01*
X139312517Y-98544572D01*
X139329552Y-98518845D01*
X139362922Y-98489546D01*
X139402149Y-98464235D01*
X139436756Y-98450471D01*
X139443993Y-98449714D01*
X139452139Y-98462160D01*
X139452630Y-98493972D01*
X139446643Y-98536866D01*
X139435357Y-98582558D01*
X139419950Y-98622761D01*
X139419171Y-98624322D01*
X139372804Y-98689062D01*
X139312711Y-98733097D01*
X139244465Y-98754711D01*
X139173638Y-98752185D01*
X139105804Y-98723804D01*
X139102788Y-98721808D01*
X139049427Y-98673448D01*
X139014340Y-98610352D01*
X138994922Y-98527387D01*
X138992316Y-98504078D01*
X138987701Y-98394055D01*
X138993233Y-98342748D01*
X139132514Y-98342748D01*
X139134324Y-98374753D01*
X139144222Y-98384093D01*
X139168898Y-98377105D01*
X139207795Y-98360587D01*
X139251275Y-98339881D01*
X139252356Y-98339333D01*
X139289209Y-98319949D01*
X139304000Y-98307013D01*
X139300353Y-98293451D01*
X139284995Y-98275632D01*
X139245923Y-98249845D01*
X139203846Y-98247950D01*
X139166103Y-98266717D01*
X139140034Y-98302915D01*
X139132514Y-98342748D01*
X138993233Y-98342748D01*
X138997194Y-98306027D01*
X139021550Y-98236212D01*
G37*
X139021550Y-98236212D02*
X139055456Y-98187302D01*
X139116653Y-98137878D01*
X139184063Y-98113359D01*
X139252880Y-98111797D01*
X139318303Y-98131239D01*
X139375527Y-98169735D01*
X139419749Y-98225335D01*
X139446167Y-98296086D01*
X139451510Y-98348162D01*
X139450903Y-98369893D01*
X139445822Y-98386531D01*
X139431855Y-98401437D01*
X139404589Y-98417973D01*
X139359612Y-98439498D01*
X139292511Y-98469374D01*
X139292171Y-98469524D01*
X139230407Y-98497813D01*
X139179759Y-98522933D01*
X139145404Y-98542179D01*
X139132518Y-98552848D01*
X139132514Y-98552934D01*
X139143872Y-98576166D01*
X139170431Y-98601774D01*
X139200923Y-98620221D01*
X139216370Y-98623886D01*
X139258515Y-98611212D01*
X139294808Y-98579471D01*
X139312517Y-98544572D01*
X139329552Y-98518845D01*
X139362922Y-98489546D01*
X139402149Y-98464235D01*
X139436756Y-98450471D01*
X139443993Y-98449714D01*
X139452139Y-98462160D01*
X139452630Y-98493972D01*
X139446643Y-98536866D01*
X139435357Y-98582558D01*
X139419950Y-98622761D01*
X139419171Y-98624322D01*
X139372804Y-98689062D01*
X139312711Y-98733097D01*
X139244465Y-98754711D01*
X139173638Y-98752185D01*
X139105804Y-98723804D01*
X139102788Y-98721808D01*
X139049427Y-98673448D01*
X139014340Y-98610352D01*
X138994922Y-98527387D01*
X138992316Y-98504078D01*
X138987701Y-98394055D01*
X138993233Y-98342748D01*
X139132514Y-98342748D01*
X139134324Y-98374753D01*
X139144222Y-98384093D01*
X139168898Y-98377105D01*
X139207795Y-98360587D01*
X139251275Y-98339881D01*
X139252356Y-98339333D01*
X139289209Y-98319949D01*
X139304000Y-98307013D01*
X139300353Y-98293451D01*
X139284995Y-98275632D01*
X139245923Y-98249845D01*
X139203846Y-98247950D01*
X139166103Y-98266717D01*
X139140034Y-98302915D01*
X139132514Y-98342748D01*
X138993233Y-98342748D01*
X138997194Y-98306027D01*
X139021550Y-98236212D01*
G36*
X138443677Y-98350333D02*
G01*
X138446450Y-98302958D01*
X138450388Y-98269290D01*
X138455849Y-98245498D01*
X138463192Y-98227753D01*
X138472777Y-98212224D01*
X138476887Y-98206381D01*
X138531405Y-98151185D01*
X138600336Y-98119890D01*
X138680072Y-98111165D01*
X138749744Y-98119918D01*
X138805201Y-98147568D01*
X138854148Y-98198480D01*
X138867629Y-98217338D01*
X138882314Y-98242015D01*
X138891842Y-98268816D01*
X138897293Y-98304587D01*
X138899747Y-98356169D01*
X138900286Y-98424267D01*
X138897852Y-98517588D01*
X138889394Y-98587657D01*
X138873174Y-98639931D01*
X138847454Y-98679869D01*
X138810497Y-98712929D01*
X138807782Y-98714886D01*
X138771360Y-98734908D01*
X138727502Y-98744815D01*
X138671724Y-98747257D01*
X138581048Y-98747257D01*
X138581010Y-98835283D01*
X138580166Y-98884308D01*
X138575024Y-98913065D01*
X138561587Y-98930311D01*
X138535858Y-98944808D01*
X138529679Y-98947769D01*
X138500764Y-98961648D01*
X138478376Y-98970414D01*
X138461729Y-98971171D01*
X138450036Y-98961023D01*
X138442510Y-98937073D01*
X138438366Y-98896426D01*
X138436815Y-98836186D01*
X138437071Y-98753455D01*
X138438349Y-98645339D01*
X138438748Y-98613000D01*
X138440185Y-98501524D01*
X138441472Y-98428603D01*
X138580971Y-98428603D01*
X138581755Y-98490499D01*
X138585240Y-98530997D01*
X138593124Y-98557708D01*
X138607105Y-98578244D01*
X138616597Y-98588260D01*
X138655404Y-98617567D01*
X138689763Y-98619952D01*
X138725216Y-98595750D01*
X138726114Y-98594857D01*
X138740539Y-98576153D01*
X138749313Y-98550732D01*
X138753739Y-98511584D01*
X138755118Y-98451697D01*
X138755143Y-98438430D01*
X138751812Y-98355901D01*
X138740969Y-98298691D01*
X138721340Y-98263766D01*
X138691650Y-98248094D01*
X138674491Y-98246514D01*
X138633766Y-98253926D01*
X138605832Y-98278330D01*
X138589017Y-98322980D01*
X138581650Y-98391130D01*
X138580971Y-98428603D01*
X138441472Y-98428603D01*
X138441708Y-98415245D01*
X138443677Y-98350333D01*
G37*
X138443677Y-98350333D02*
X138446450Y-98302958D01*
X138450388Y-98269290D01*
X138455849Y-98245498D01*
X138463192Y-98227753D01*
X138472777Y-98212224D01*
X138476887Y-98206381D01*
X138531405Y-98151185D01*
X138600336Y-98119890D01*
X138680072Y-98111165D01*
X138749744Y-98119918D01*
X138805201Y-98147568D01*
X138854148Y-98198480D01*
X138867629Y-98217338D01*
X138882314Y-98242015D01*
X138891842Y-98268816D01*
X138897293Y-98304587D01*
X138899747Y-98356169D01*
X138900286Y-98424267D01*
X138897852Y-98517588D01*
X138889394Y-98587657D01*
X138873174Y-98639931D01*
X138847454Y-98679869D01*
X138810497Y-98712929D01*
X138807782Y-98714886D01*
X138771360Y-98734908D01*
X138727502Y-98744815D01*
X138671724Y-98747257D01*
X138581048Y-98747257D01*
X138581010Y-98835283D01*
X138580166Y-98884308D01*
X138575024Y-98913065D01*
X138561587Y-98930311D01*
X138535858Y-98944808D01*
X138529679Y-98947769D01*
X138500764Y-98961648D01*
X138478376Y-98970414D01*
X138461729Y-98971171D01*
X138450036Y-98961023D01*
X138442510Y-98937073D01*
X138438366Y-98896426D01*
X138436815Y-98836186D01*
X138437071Y-98753455D01*
X138438349Y-98645339D01*
X138438748Y-98613000D01*
X138440185Y-98501524D01*
X138441472Y-98428603D01*
X138580971Y-98428603D01*
X138581755Y-98490499D01*
X138585240Y-98530997D01*
X138593124Y-98557708D01*
X138607105Y-98578244D01*
X138616597Y-98588260D01*
X138655404Y-98617567D01*
X138689763Y-98619952D01*
X138725216Y-98595750D01*
X138726114Y-98594857D01*
X138740539Y-98576153D01*
X138749313Y-98550732D01*
X138753739Y-98511584D01*
X138755118Y-98451697D01*
X138755143Y-98438430D01*
X138751812Y-98355901D01*
X138740969Y-98298691D01*
X138721340Y-98263766D01*
X138691650Y-98248094D01*
X138674491Y-98246514D01*
X138633766Y-98253926D01*
X138605832Y-98278330D01*
X138589017Y-98322980D01*
X138581650Y-98391130D01*
X138580971Y-98428603D01*
X138441472Y-98428603D01*
X138441708Y-98415245D01*
X138443677Y-98350333D01*
G36*
X142929833Y-98158663D02*
G01*
X142932048Y-98196850D01*
X142933784Y-98254886D01*
X142934899Y-98328180D01*
X142935257Y-98405055D01*
X142935257Y-98665196D01*
X142889326Y-98711127D01*
X142857675Y-98739429D01*
X142829890Y-98750893D01*
X142791915Y-98750168D01*
X142776840Y-98748321D01*
X142729726Y-98742948D01*
X142690756Y-98739869D01*
X142681257Y-98739585D01*
X142649233Y-98741445D01*
X142603432Y-98746114D01*
X142585674Y-98748321D01*
X142542057Y-98751735D01*
X142512745Y-98744320D01*
X142483680Y-98721427D01*
X142473188Y-98711127D01*
X142427257Y-98665196D01*
X142427257Y-98178602D01*
X142464226Y-98161758D01*
X142496059Y-98149282D01*
X142514683Y-98144914D01*
X142519458Y-98158718D01*
X142523921Y-98197286D01*
X142527775Y-98256356D01*
X142530722Y-98331663D01*
X142532143Y-98395286D01*
X142536114Y-98645657D01*
X142570759Y-98650556D01*
X142602268Y-98647131D01*
X142617708Y-98636041D01*
X142622023Y-98615308D01*
X142625708Y-98571145D01*
X142628469Y-98509146D01*
X142630012Y-98434909D01*
X142630235Y-98396706D01*
X142630457Y-98176783D01*
X142676166Y-98160849D01*
X142708518Y-98150015D01*
X142726115Y-98144962D01*
X142726623Y-98144914D01*
X142728388Y-98158648D01*
X142730329Y-98196730D01*
X142732282Y-98254482D01*
X142734084Y-98327227D01*
X142735343Y-98395286D01*
X142739314Y-98645657D01*
X142826400Y-98645657D01*
X142830396Y-98417240D01*
X142834392Y-98188822D01*
X142876847Y-98166868D01*
X142908192Y-98151793D01*
X142926744Y-98144951D01*
X142927279Y-98144914D01*
X142929833Y-98158663D01*
G37*
X142929833Y-98158663D02*
X142932048Y-98196850D01*
X142933784Y-98254886D01*
X142934899Y-98328180D01*
X142935257Y-98405055D01*
X142935257Y-98665196D01*
X142889326Y-98711127D01*
X142857675Y-98739429D01*
X142829890Y-98750893D01*
X142791915Y-98750168D01*
X142776840Y-98748321D01*
X142729726Y-98742948D01*
X142690756Y-98739869D01*
X142681257Y-98739585D01*
X142649233Y-98741445D01*
X142603432Y-98746114D01*
X142585674Y-98748321D01*
X142542057Y-98751735D01*
X142512745Y-98744320D01*
X142483680Y-98721427D01*
X142473188Y-98711127D01*
X142427257Y-98665196D01*
X142427257Y-98178602D01*
X142464226Y-98161758D01*
X142496059Y-98149282D01*
X142514683Y-98144914D01*
X142519458Y-98158718D01*
X142523921Y-98197286D01*
X142527775Y-98256356D01*
X142530722Y-98331663D01*
X142532143Y-98395286D01*
X142536114Y-98645657D01*
X142570759Y-98650556D01*
X142602268Y-98647131D01*
X142617708Y-98636041D01*
X142622023Y-98615308D01*
X142625708Y-98571145D01*
X142628469Y-98509146D01*
X142630012Y-98434909D01*
X142630235Y-98396706D01*
X142630457Y-98176783D01*
X142676166Y-98160849D01*
X142708518Y-98150015D01*
X142726115Y-98144962D01*
X142726623Y-98144914D01*
X142728388Y-98158648D01*
X142730329Y-98196730D01*
X142732282Y-98254482D01*
X142734084Y-98327227D01*
X142735343Y-98395286D01*
X142739314Y-98645657D01*
X142826400Y-98645657D01*
X142830396Y-98417240D01*
X142834392Y-98188822D01*
X142876847Y-98166868D01*
X142908192Y-98151793D01*
X142926744Y-98144951D01*
X142927279Y-98144914D01*
X142929833Y-98158663D01*
G36*
X141189744Y-98150968D02*
G01*
X141246616Y-98172087D01*
X141247267Y-98172493D01*
X141282440Y-98198380D01*
X141308407Y-98228633D01*
X141326670Y-98268058D01*
X141338732Y-98321462D01*
X141346096Y-98393651D01*
X141350264Y-98489432D01*
X141350629Y-98503078D01*
X141355876Y-98708842D01*
X141311716Y-98731678D01*
X141279763Y-98747110D01*
X141260470Y-98754423D01*
X141259578Y-98754514D01*
X141256239Y-98741022D01*
X141253587Y-98704626D01*
X141251956Y-98651452D01*
X141251600Y-98608393D01*
X141251592Y-98538641D01*
X141248403Y-98494837D01*
X141237288Y-98473944D01*
X141213501Y-98472925D01*
X141172296Y-98488741D01*
X141110086Y-98517815D01*
X141064341Y-98541963D01*
X141040813Y-98562913D01*
X141033896Y-98585747D01*
X141033886Y-98586877D01*
X141045299Y-98626212D01*
X141079092Y-98647462D01*
X141130809Y-98650539D01*
X141168061Y-98650006D01*
X141187703Y-98660735D01*
X141199952Y-98686505D01*
X141207002Y-98719337D01*
X141196842Y-98737966D01*
X141193017Y-98740632D01*
X141157001Y-98751340D01*
X141106566Y-98752856D01*
X141054626Y-98745759D01*
X141017822Y-98732788D01*
X140966938Y-98689585D01*
X140938014Y-98629446D01*
X140932286Y-98582462D01*
X140936657Y-98540082D01*
X140952475Y-98505488D01*
X140983797Y-98474763D01*
X141034678Y-98443990D01*
X141109176Y-98409252D01*
X141113714Y-98407288D01*
X141180821Y-98376287D01*
X141222232Y-98350862D01*
X141239981Y-98328014D01*
X141236107Y-98304745D01*
X141212643Y-98278056D01*
X141205627Y-98271914D01*
X141158630Y-98248100D01*
X141109933Y-98249103D01*
X141067522Y-98272451D01*
X141039384Y-98315675D01*
X141036769Y-98324160D01*
X141011308Y-98365308D01*
X140979001Y-98385128D01*
X140932286Y-98404770D01*
X140932286Y-98353950D01*
X140946496Y-98280082D01*
X140988675Y-98212327D01*
X141010624Y-98189661D01*
X141060517Y-98160569D01*
X141123967Y-98147400D01*
X141189744Y-98150968D01*
G37*
X141189744Y-98150968D02*
X141246616Y-98172087D01*
X141247267Y-98172493D01*
X141282440Y-98198380D01*
X141308407Y-98228633D01*
X141326670Y-98268058D01*
X141338732Y-98321462D01*
X141346096Y-98393651D01*
X141350264Y-98489432D01*
X141350629Y-98503078D01*
X141355876Y-98708842D01*
X141311716Y-98731678D01*
X141279763Y-98747110D01*
X141260470Y-98754423D01*
X141259578Y-98754514D01*
X141256239Y-98741022D01*
X141253587Y-98704626D01*
X141251956Y-98651452D01*
X141251600Y-98608393D01*
X141251592Y-98538641D01*
X141248403Y-98494837D01*
X141237288Y-98473944D01*
X141213501Y-98472925D01*
X141172296Y-98488741D01*
X141110086Y-98517815D01*
X141064341Y-98541963D01*
X141040813Y-98562913D01*
X141033896Y-98585747D01*
X141033886Y-98586877D01*
X141045299Y-98626212D01*
X141079092Y-98647462D01*
X141130809Y-98650539D01*
X141168061Y-98650006D01*
X141187703Y-98660735D01*
X141199952Y-98686505D01*
X141207002Y-98719337D01*
X141196842Y-98737966D01*
X141193017Y-98740632D01*
X141157001Y-98751340D01*
X141106566Y-98752856D01*
X141054626Y-98745759D01*
X141017822Y-98732788D01*
X140966938Y-98689585D01*
X140938014Y-98629446D01*
X140932286Y-98582462D01*
X140936657Y-98540082D01*
X140952475Y-98505488D01*
X140983797Y-98474763D01*
X141034678Y-98443990D01*
X141109176Y-98409252D01*
X141113714Y-98407288D01*
X141180821Y-98376287D01*
X141222232Y-98350862D01*
X141239981Y-98328014D01*
X141236107Y-98304745D01*
X141212643Y-98278056D01*
X141205627Y-98271914D01*
X141158630Y-98248100D01*
X141109933Y-98249103D01*
X141067522Y-98272451D01*
X141039384Y-98315675D01*
X141036769Y-98324160D01*
X141011308Y-98365308D01*
X140979001Y-98385128D01*
X140932286Y-98404770D01*
X140932286Y-98353950D01*
X140946496Y-98280082D01*
X140988675Y-98212327D01*
X141010624Y-98189661D01*
X141060517Y-98160569D01*
X141123967Y-98147400D01*
X141189744Y-98150968D01*
G36*
X140525886Y-98051289D02*
G01*
X140530139Y-98110613D01*
X140535025Y-98145572D01*
X140541795Y-98160820D01*
X140551702Y-98161015D01*
X140554914Y-98159195D01*
X140597644Y-98146015D01*
X140653227Y-98146785D01*
X140709737Y-98160333D01*
X140745082Y-98177861D01*
X140781321Y-98205861D01*
X140807813Y-98237549D01*
X140825999Y-98277813D01*
X140837322Y-98331543D01*
X140843222Y-98403626D01*
X140845143Y-98498951D01*
X140845177Y-98517237D01*
X140845200Y-98722646D01*
X140799491Y-98738580D01*
X140767027Y-98749420D01*
X140749215Y-98754468D01*
X140748691Y-98754514D01*
X140746937Y-98740828D01*
X140745444Y-98703076D01*
X140744326Y-98646224D01*
X140743697Y-98575234D01*
X140743600Y-98532073D01*
X140743398Y-98446973D01*
X140742358Y-98385981D01*
X140739831Y-98344177D01*
X140735164Y-98316642D01*
X140727707Y-98298456D01*
X140716811Y-98284698D01*
X140710007Y-98278073D01*
X140663272Y-98251375D01*
X140612272Y-98249375D01*
X140566001Y-98271955D01*
X140557444Y-98280107D01*
X140544893Y-98295436D01*
X140536188Y-98313618D01*
X140530631Y-98339909D01*
X140527526Y-98379562D01*
X140526176Y-98437832D01*
X140525886Y-98518173D01*
X140525886Y-98722646D01*
X140480177Y-98738580D01*
X140447713Y-98749420D01*
X140429901Y-98754468D01*
X140429377Y-98754514D01*
X140428037Y-98740623D01*
X140426828Y-98701439D01*
X140425801Y-98640700D01*
X140425002Y-98562141D01*
X140424481Y-98469498D01*
X140424286Y-98366509D01*
X140424286Y-97969342D01*
X140471457Y-97949444D01*
X140518629Y-97929547D01*
X140525886Y-98051289D01*
G37*
X140525886Y-98051289D02*
X140530139Y-98110613D01*
X140535025Y-98145572D01*
X140541795Y-98160820D01*
X140551702Y-98161015D01*
X140554914Y-98159195D01*
X140597644Y-98146015D01*
X140653227Y-98146785D01*
X140709737Y-98160333D01*
X140745082Y-98177861D01*
X140781321Y-98205861D01*
X140807813Y-98237549D01*
X140825999Y-98277813D01*
X140837322Y-98331543D01*
X140843222Y-98403626D01*
X140845143Y-98498951D01*
X140845177Y-98517237D01*
X140845200Y-98722646D01*
X140799491Y-98738580D01*
X140767027Y-98749420D01*
X140749215Y-98754468D01*
X140748691Y-98754514D01*
X140746937Y-98740828D01*
X140745444Y-98703076D01*
X140744326Y-98646224D01*
X140743697Y-98575234D01*
X140743600Y-98532073D01*
X140743398Y-98446973D01*
X140742358Y-98385981D01*
X140739831Y-98344177D01*
X140735164Y-98316642D01*
X140727707Y-98298456D01*
X140716811Y-98284698D01*
X140710007Y-98278073D01*
X140663272Y-98251375D01*
X140612272Y-98249375D01*
X140566001Y-98271955D01*
X140557444Y-98280107D01*
X140544893Y-98295436D01*
X140536188Y-98313618D01*
X140530631Y-98339909D01*
X140527526Y-98379562D01*
X140526176Y-98437832D01*
X140525886Y-98518173D01*
X140525886Y-98722646D01*
X140480177Y-98738580D01*
X140447713Y-98749420D01*
X140429901Y-98754468D01*
X140429377Y-98754514D01*
X140428037Y-98740623D01*
X140426828Y-98701439D01*
X140425801Y-98640700D01*
X140425002Y-98562141D01*
X140424481Y-98469498D01*
X140424286Y-98366509D01*
X140424286Y-97969342D01*
X140471457Y-97949444D01*
X140518629Y-97929547D01*
X140525886Y-98051289D01*
G36*
X139866093Y-98127780D02*
G01*
X139912672Y-98154723D01*
X139945057Y-98181466D01*
X139968742Y-98209484D01*
X139985059Y-98243748D01*
X139995339Y-98289227D01*
X140000914Y-98350892D01*
X140003116Y-98433711D01*
X140003371Y-98493246D01*
X140003371Y-98712391D01*
X139941686Y-98740044D01*
X139880000Y-98767697D01*
X139872743Y-98527670D01*
X139869744Y-98438028D01*
X139866598Y-98372962D01*
X139862701Y-98328026D01*
X139857447Y-98298770D01*
X139850231Y-98280748D01*
X139840450Y-98269511D01*
X139837312Y-98267079D01*
X139789761Y-98248083D01*
X139741697Y-98255600D01*
X139713086Y-98275543D01*
X139701447Y-98289675D01*
X139693391Y-98308220D01*
X139688271Y-98336334D01*
X139685441Y-98379173D01*
X139684256Y-98441895D01*
X139684057Y-98507261D01*
X139684018Y-98589268D01*
X139682614Y-98647316D01*
X139677914Y-98686465D01*
X139667987Y-98711780D01*
X139650903Y-98728323D01*
X139624732Y-98741156D01*
X139589775Y-98754491D01*
X139551596Y-98769007D01*
X139556141Y-98511389D01*
X139557971Y-98418519D01*
X139560112Y-98349889D01*
X139563181Y-98300711D01*
X139567794Y-98266198D01*
X139574568Y-98241562D01*
X139584119Y-98222016D01*
X139595634Y-98204770D01*
X139651190Y-98149680D01*
X139718980Y-98117822D01*
X139792713Y-98110191D01*
X139866093Y-98127780D01*
G37*
X139866093Y-98127780D02*
X139912672Y-98154723D01*
X139945057Y-98181466D01*
X139968742Y-98209484D01*
X139985059Y-98243748D01*
X139995339Y-98289227D01*
X140000914Y-98350892D01*
X140003116Y-98433711D01*
X140003371Y-98493246D01*
X140003371Y-98712391D01*
X139941686Y-98740044D01*
X139880000Y-98767697D01*
X139872743Y-98527670D01*
X139869744Y-98438028D01*
X139866598Y-98372962D01*
X139862701Y-98328026D01*
X139857447Y-98298770D01*
X139850231Y-98280748D01*
X139840450Y-98269511D01*
X139837312Y-98267079D01*
X139789761Y-98248083D01*
X139741697Y-98255600D01*
X139713086Y-98275543D01*
X139701447Y-98289675D01*
X139693391Y-98308220D01*
X139688271Y-98336334D01*
X139685441Y-98379173D01*
X139684256Y-98441895D01*
X139684057Y-98507261D01*
X139684018Y-98589268D01*
X139682614Y-98647316D01*
X139677914Y-98686465D01*
X139667987Y-98711780D01*
X139650903Y-98728323D01*
X139624732Y-98741156D01*
X139589775Y-98754491D01*
X139551596Y-98769007D01*
X139556141Y-98511389D01*
X139557971Y-98418519D01*
X139560112Y-98349889D01*
X139563181Y-98300711D01*
X139567794Y-98266198D01*
X139574568Y-98241562D01*
X139584119Y-98222016D01*
X139595634Y-98204770D01*
X139651190Y-98149680D01*
X139718980Y-98117822D01*
X139792713Y-98110191D01*
X139866093Y-98127780D01*
G36*
X141253910Y-93442348D02*
G01*
X141332454Y-93442778D01*
X141389298Y-93443942D01*
X141428105Y-93446207D01*
X141452538Y-93449940D01*
X141466262Y-93455506D01*
X141472940Y-93463273D01*
X141476236Y-93473605D01*
X141476556Y-93474943D01*
X141481562Y-93499079D01*
X141490829Y-93546701D01*
X141503392Y-93612741D01*
X141518287Y-93692128D01*
X141534551Y-93779796D01*
X141535119Y-93782875D01*
X141551410Y-93868789D01*
X141566652Y-93944696D01*
X141579861Y-94006045D01*
X141590054Y-94048282D01*
X141596248Y-94066855D01*
X141596543Y-94067184D01*
X141614788Y-94076253D01*
X141652405Y-94091367D01*
X141701271Y-94109262D01*
X141701543Y-94109358D01*
X141763093Y-94132493D01*
X141835657Y-94161965D01*
X141904057Y-94191597D01*
X141907294Y-94193062D01*
X142018702Y-94243626D01*
X142265399Y-94075160D01*
X142341077Y-94023803D01*
X142409631Y-93977889D01*
X142467088Y-93940030D01*
X142509476Y-93912837D01*
X142532825Y-93898921D01*
X142535042Y-93897889D01*
X142552010Y-93902484D01*
X142583701Y-93924655D01*
X142631352Y-93965447D01*
X142696198Y-94025905D01*
X142762397Y-94090227D01*
X142826214Y-94153612D01*
X142883329Y-94211451D01*
X142930305Y-94260175D01*
X142963703Y-94296210D01*
X142980085Y-94315984D01*
X142980694Y-94317002D01*
X142982505Y-94330572D01*
X142975683Y-94352733D01*
X142958540Y-94386478D01*
X142929393Y-94434800D01*
X142886555Y-94500692D01*
X142829448Y-94585517D01*
X142778766Y-94660177D01*
X142733461Y-94727140D01*
X142696150Y-94782516D01*
X142669452Y-94822420D01*
X142655985Y-94842962D01*
X142655137Y-94844356D01*
X142656781Y-94864038D01*
X142669245Y-94902293D01*
X142690048Y-94951889D01*
X142697462Y-94967728D01*
X142729814Y-95038290D01*
X142764328Y-95118353D01*
X142792365Y-95187629D01*
X142812568Y-95239045D01*
X142828615Y-95278119D01*
X142837888Y-95298541D01*
X142839041Y-95300114D01*
X142856096Y-95302721D01*
X142896298Y-95309863D01*
X142954302Y-95320523D01*
X143024763Y-95333685D01*
X143102335Y-95348333D01*
X143181672Y-95363449D01*
X143257431Y-95378018D01*
X143324264Y-95391022D01*
X143376828Y-95401445D01*
X143409776Y-95408270D01*
X143417857Y-95410199D01*
X143426205Y-95414962D01*
X143432506Y-95425718D01*
X143437045Y-95446098D01*
X143440104Y-95479734D01*
X143441967Y-95530255D01*
X143442918Y-95601292D01*
X143443240Y-95696476D01*
X143443257Y-95735492D01*
X143443257Y-96052799D01*
X143367057Y-96067839D01*
X143324663Y-96075995D01*
X143261400Y-96087899D01*
X143184962Y-96102116D01*
X143103043Y-96117210D01*
X143080400Y-96121355D01*
X143004806Y-96136053D01*
X142938953Y-96150505D01*
X142888366Y-96163375D01*
X142858574Y-96173322D01*
X142853612Y-96176287D01*
X142841426Y-96197283D01*
X142823953Y-96237967D01*
X142804577Y-96290322D01*
X142800734Y-96301600D01*
X142775339Y-96371523D01*
X142743817Y-96450418D01*
X142712969Y-96521266D01*
X142712817Y-96521595D01*
X142661447Y-96632733D01*
X142830399Y-96881253D01*
X142999352Y-97129772D01*
X142782429Y-97347058D01*
X142716819Y-97411726D01*
X142656979Y-97468733D01*
X142606267Y-97515033D01*
X142568046Y-97547584D01*
X142545675Y-97563343D01*
X142542466Y-97564343D01*
X142523626Y-97556469D01*
X142485180Y-97534578D01*
X142431330Y-97501267D01*
X142366276Y-97459131D01*
X142295940Y-97411943D01*
X142224555Y-97363810D01*
X142160908Y-97321928D01*
X142109041Y-97288871D01*
X142072995Y-97267218D01*
X142056867Y-97259543D01*
X142037189Y-97266037D01*
X141999875Y-97283150D01*
X141952621Y-97307326D01*
X141947612Y-97310013D01*
X141883977Y-97341927D01*
X141840341Y-97357579D01*
X141813202Y-97357745D01*
X141799057Y-97343204D01*
X141798975Y-97343000D01*
X141791905Y-97325779D01*
X141775042Y-97284899D01*
X141749695Y-97223525D01*
X141717171Y-97144819D01*
X141678778Y-97051947D01*
X141635822Y-96948072D01*
X141594222Y-96847502D01*
X141548504Y-96736516D01*
X141506526Y-96633703D01*
X141469548Y-96542215D01*
X141438827Y-96465201D01*
X141415622Y-96405815D01*
X141401190Y-96367209D01*
X141396743Y-96352800D01*
X141407896Y-96336272D01*
X141437069Y-96309930D01*
X141475971Y-96280887D01*
X141586757Y-96189039D01*
X141673351Y-96083759D01*
X141734716Y-95967266D01*
X141769815Y-95841776D01*
X141777608Y-95709507D01*
X141771943Y-95648457D01*
X141741078Y-95521795D01*
X141687920Y-95409941D01*
X141615767Y-95314001D01*
X141527917Y-95235076D01*
X141427665Y-95174270D01*
X141318310Y-95132687D01*
X141203147Y-95111428D01*
X141085475Y-95111599D01*
X140968590Y-95134301D01*
X140855789Y-95180638D01*
X140750369Y-95251713D01*
X140706368Y-95291911D01*
X140621979Y-95395129D01*
X140563222Y-95507925D01*
X140529704Y-95627010D01*
X140521035Y-95749095D01*
X140536823Y-95870893D01*
X140576678Y-95989116D01*
X140640207Y-96100475D01*
X140727021Y-96201684D01*
X140824029Y-96280887D01*
X140864437Y-96311162D01*
X140892982Y-96337219D01*
X140903257Y-96352825D01*
X140897877Y-96369843D01*
X140882575Y-96410500D01*
X140858612Y-96471642D01*
X140827244Y-96550119D01*
X140789732Y-96642780D01*
X140747333Y-96746472D01*
X140705663Y-96847526D01*
X140659690Y-96958607D01*
X140617107Y-97061541D01*
X140579221Y-97153165D01*
X140547340Y-97230316D01*
X140522771Y-97289831D01*
X140506820Y-97328544D01*
X140500910Y-97343000D01*
X140486948Y-97357685D01*
X140459940Y-97357642D01*
X140416413Y-97342099D01*
X140352890Y-97310284D01*
X140352388Y-97310013D01*
X140304560Y-97285323D01*
X140265897Y-97267338D01*
X140244095Y-97259614D01*
X140243133Y-97259543D01*
X140226721Y-97267378D01*
X140190487Y-97289165D01*
X140138474Y-97322328D01*
X140074725Y-97364291D01*
X140004060Y-97411943D01*
X139932116Y-97460191D01*
X139867274Y-97502151D01*
X139813735Y-97535227D01*
X139775697Y-97556821D01*
X139757533Y-97564343D01*
X139740808Y-97554457D01*
X139707180Y-97526826D01*
X139660010Y-97484495D01*
X139602658Y-97430505D01*
X139538484Y-97367899D01*
X139517497Y-97346983D01*
X139300499Y-97129623D01*
X139465668Y-96887220D01*
X139515864Y-96812781D01*
X139559919Y-96745972D01*
X139595362Y-96690665D01*
X139619719Y-96650729D01*
X139630522Y-96630036D01*
X139630838Y-96628563D01*
X139625143Y-96609058D01*
X139609826Y-96569822D01*
X139587537Y-96517430D01*
X139571893Y-96482355D01*
X139542641Y-96415201D01*
X139515094Y-96347358D01*
X139493737Y-96290034D01*
X139487935Y-96272572D01*
X139471452Y-96225938D01*
X139455340Y-96189905D01*
X139446490Y-96176287D01*
X139426960Y-96167952D01*
X139384334Y-96156137D01*
X139324145Y-96142181D01*
X139251922Y-96127422D01*
X139219600Y-96121355D01*
X139137522Y-96106273D01*
X139058795Y-96091669D01*
X138991109Y-96078980D01*
X138942160Y-96069642D01*
X138932943Y-96067839D01*
X138856743Y-96052799D01*
X138856743Y-95735492D01*
X138856914Y-95631154D01*
X138857616Y-95552213D01*
X138859134Y-95495038D01*
X138861749Y-95455999D01*
X138865746Y-95431465D01*
X138871409Y-95417805D01*
X138879020Y-95411389D01*
X138882143Y-95410199D01*
X138900978Y-95405980D01*
X138942588Y-95397562D01*
X139001630Y-95385961D01*
X139072757Y-95372195D01*
X139150625Y-95357280D01*
X139229887Y-95342232D01*
X139305198Y-95328069D01*
X139371213Y-95315806D01*
X139422587Y-95306461D01*
X139453975Y-95301050D01*
X139460959Y-95300114D01*
X139467285Y-95287596D01*
X139481290Y-95254246D01*
X139500355Y-95206377D01*
X139507634Y-95187629D01*
X139536996Y-95115195D01*
X139571571Y-95035170D01*
X139602537Y-94967728D01*
X139625323Y-94916159D01*
X139640482Y-94873785D01*
X139645542Y-94847834D01*
X139644736Y-94844356D01*
X139634041Y-94827936D01*
X139609620Y-94791417D01*
X139574095Y-94738687D01*
X139530087Y-94673635D01*
X139480217Y-94600151D01*
X139470356Y-94585645D01*
X139412492Y-94499704D01*
X139369956Y-94434261D01*
X139341054Y-94386304D01*
X139324090Y-94352820D01*
X139317367Y-94330795D01*
X139319190Y-94317217D01*
X139319236Y-94317131D01*
X139333586Y-94299297D01*
X139365323Y-94264817D01*
X139411010Y-94217268D01*
X139467204Y-94160222D01*
X139530468Y-94097255D01*
X139537602Y-94090227D01*
X139617330Y-94013020D01*
X139678857Y-93956330D01*
X139723421Y-93919110D01*
X139752257Y-93900315D01*
X139764958Y-93897889D01*
X139783494Y-93908471D01*
X139821961Y-93932916D01*
X139876386Y-93968612D01*
X139942798Y-94012947D01*
X140017225Y-94063311D01*
X140034601Y-94075160D01*
X140281297Y-94243626D01*
X140392706Y-94193062D01*
X140460457Y-94163595D01*
X140533183Y-94133959D01*
X140595703Y-94110330D01*
X140598457Y-94109358D01*
X140647360Y-94091457D01*
X140685057Y-94076320D01*
X140703425Y-94067210D01*
X140703456Y-94067184D01*
X140709285Y-94050717D01*
X140719192Y-94010219D01*
X140732195Y-93950242D01*
X140747309Y-93875340D01*
X140763552Y-93790064D01*
X140764881Y-93782875D01*
X140781175Y-93695014D01*
X140796133Y-93615260D01*
X140808791Y-93548681D01*
X140818186Y-93500347D01*
X140823354Y-93475325D01*
X140823444Y-93474943D01*
X140826589Y-93464299D01*
X140832704Y-93456262D01*
X140845453Y-93450467D01*
X140868500Y-93446547D01*
X140905509Y-93444135D01*
X140960144Y-93442865D01*
X141036067Y-93442371D01*
X141136944Y-93442286D01*
X141150000Y-93442286D01*
X141253910Y-93442348D01*
G37*
X141253910Y-93442348D02*
X141332454Y-93442778D01*
X141389298Y-93443942D01*
X141428105Y-93446207D01*
X141452538Y-93449940D01*
X141466262Y-93455506D01*
X141472940Y-93463273D01*
X141476236Y-93473605D01*
X141476556Y-93474943D01*
X141481562Y-93499079D01*
X141490829Y-93546701D01*
X141503392Y-93612741D01*
X141518287Y-93692128D01*
X141534551Y-93779796D01*
X141535119Y-93782875D01*
X141551410Y-93868789D01*
X141566652Y-93944696D01*
X141579861Y-94006045D01*
X141590054Y-94048282D01*
X141596248Y-94066855D01*
X141596543Y-94067184D01*
X141614788Y-94076253D01*
X141652405Y-94091367D01*
X141701271Y-94109262D01*
X141701543Y-94109358D01*
X141763093Y-94132493D01*
X141835657Y-94161965D01*
X141904057Y-94191597D01*
X141907294Y-94193062D01*
X142018702Y-94243626D01*
X142265399Y-94075160D01*
X142341077Y-94023803D01*
X142409631Y-93977889D01*
X142467088Y-93940030D01*
X142509476Y-93912837D01*
X142532825Y-93898921D01*
X142535042Y-93897889D01*
X142552010Y-93902484D01*
X142583701Y-93924655D01*
X142631352Y-93965447D01*
X142696198Y-94025905D01*
X142762397Y-94090227D01*
X142826214Y-94153612D01*
X142883329Y-94211451D01*
X142930305Y-94260175D01*
X142963703Y-94296210D01*
X142980085Y-94315984D01*
X142980694Y-94317002D01*
X142982505Y-94330572D01*
X142975683Y-94352733D01*
X142958540Y-94386478D01*
X142929393Y-94434800D01*
X142886555Y-94500692D01*
X142829448Y-94585517D01*
X142778766Y-94660177D01*
X142733461Y-94727140D01*
X142696150Y-94782516D01*
X142669452Y-94822420D01*
X142655985Y-94842962D01*
X142655137Y-94844356D01*
X142656781Y-94864038D01*
X142669245Y-94902293D01*
X142690048Y-94951889D01*
X142697462Y-94967728D01*
X142729814Y-95038290D01*
X142764328Y-95118353D01*
X142792365Y-95187629D01*
X142812568Y-95239045D01*
X142828615Y-95278119D01*
X142837888Y-95298541D01*
X142839041Y-95300114D01*
X142856096Y-95302721D01*
X142896298Y-95309863D01*
X142954302Y-95320523D01*
X143024763Y-95333685D01*
X143102335Y-95348333D01*
X143181672Y-95363449D01*
X143257431Y-95378018D01*
X143324264Y-95391022D01*
X143376828Y-95401445D01*
X143409776Y-95408270D01*
X143417857Y-95410199D01*
X143426205Y-95414962D01*
X143432506Y-95425718D01*
X143437045Y-95446098D01*
X143440104Y-95479734D01*
X143441967Y-95530255D01*
X143442918Y-95601292D01*
X143443240Y-95696476D01*
X143443257Y-95735492D01*
X143443257Y-96052799D01*
X143367057Y-96067839D01*
X143324663Y-96075995D01*
X143261400Y-96087899D01*
X143184962Y-96102116D01*
X143103043Y-96117210D01*
X143080400Y-96121355D01*
X143004806Y-96136053D01*
X142938953Y-96150505D01*
X142888366Y-96163375D01*
X142858574Y-96173322D01*
X142853612Y-96176287D01*
X142841426Y-96197283D01*
X142823953Y-96237967D01*
X142804577Y-96290322D01*
X142800734Y-96301600D01*
X142775339Y-96371523D01*
X142743817Y-96450418D01*
X142712969Y-96521266D01*
X142712817Y-96521595D01*
X142661447Y-96632733D01*
X142830399Y-96881253D01*
X142999352Y-97129772D01*
X142782429Y-97347058D01*
X142716819Y-97411726D01*
X142656979Y-97468733D01*
X142606267Y-97515033D01*
X142568046Y-97547584D01*
X142545675Y-97563343D01*
X142542466Y-97564343D01*
X142523626Y-97556469D01*
X142485180Y-97534578D01*
X142431330Y-97501267D01*
X142366276Y-97459131D01*
X142295940Y-97411943D01*
X142224555Y-97363810D01*
X142160908Y-97321928D01*
X142109041Y-97288871D01*
X142072995Y-97267218D01*
X142056867Y-97259543D01*
X142037189Y-97266037D01*
X141999875Y-97283150D01*
X141952621Y-97307326D01*
X141947612Y-97310013D01*
X141883977Y-97341927D01*
X141840341Y-97357579D01*
X141813202Y-97357745D01*
X141799057Y-97343204D01*
X141798975Y-97343000D01*
X141791905Y-97325779D01*
X141775042Y-97284899D01*
X141749695Y-97223525D01*
X141717171Y-97144819D01*
X141678778Y-97051947D01*
X141635822Y-96948072D01*
X141594222Y-96847502D01*
X141548504Y-96736516D01*
X141506526Y-96633703D01*
X141469548Y-96542215D01*
X141438827Y-96465201D01*
X141415622Y-96405815D01*
X141401190Y-96367209D01*
X141396743Y-96352800D01*
X141407896Y-96336272D01*
X141437069Y-96309930D01*
X141475971Y-96280887D01*
X141586757Y-96189039D01*
X141673351Y-96083759D01*
X141734716Y-95967266D01*
X141769815Y-95841776D01*
X141777608Y-95709507D01*
X141771943Y-95648457D01*
X141741078Y-95521795D01*
X141687920Y-95409941D01*
X141615767Y-95314001D01*
X141527917Y-95235076D01*
X141427665Y-95174270D01*
X141318310Y-95132687D01*
X141203147Y-95111428D01*
X141085475Y-95111599D01*
X140968590Y-95134301D01*
X140855789Y-95180638D01*
X140750369Y-95251713D01*
X140706368Y-95291911D01*
X140621979Y-95395129D01*
X140563222Y-95507925D01*
X140529704Y-95627010D01*
X140521035Y-95749095D01*
X140536823Y-95870893D01*
X140576678Y-95989116D01*
X140640207Y-96100475D01*
X140727021Y-96201684D01*
X140824029Y-96280887D01*
X140864437Y-96311162D01*
X140892982Y-96337219D01*
X140903257Y-96352825D01*
X140897877Y-96369843D01*
X140882575Y-96410500D01*
X140858612Y-96471642D01*
X140827244Y-96550119D01*
X140789732Y-96642780D01*
X140747333Y-96746472D01*
X140705663Y-96847526D01*
X140659690Y-96958607D01*
X140617107Y-97061541D01*
X140579221Y-97153165D01*
X140547340Y-97230316D01*
X140522771Y-97289831D01*
X140506820Y-97328544D01*
X140500910Y-97343000D01*
X140486948Y-97357685D01*
X140459940Y-97357642D01*
X140416413Y-97342099D01*
X140352890Y-97310284D01*
X140352388Y-97310013D01*
X140304560Y-97285323D01*
X140265897Y-97267338D01*
X140244095Y-97259614D01*
X140243133Y-97259543D01*
X140226721Y-97267378D01*
X140190487Y-97289165D01*
X140138474Y-97322328D01*
X140074725Y-97364291D01*
X140004060Y-97411943D01*
X139932116Y-97460191D01*
X139867274Y-97502151D01*
X139813735Y-97535227D01*
X139775697Y-97556821D01*
X139757533Y-97564343D01*
X139740808Y-97554457D01*
X139707180Y-97526826D01*
X139660010Y-97484495D01*
X139602658Y-97430505D01*
X139538484Y-97367899D01*
X139517497Y-97346983D01*
X139300499Y-97129623D01*
X139465668Y-96887220D01*
X139515864Y-96812781D01*
X139559919Y-96745972D01*
X139595362Y-96690665D01*
X139619719Y-96650729D01*
X139630522Y-96630036D01*
X139630838Y-96628563D01*
X139625143Y-96609058D01*
X139609826Y-96569822D01*
X139587537Y-96517430D01*
X139571893Y-96482355D01*
X139542641Y-96415201D01*
X139515094Y-96347358D01*
X139493737Y-96290034D01*
X139487935Y-96272572D01*
X139471452Y-96225938D01*
X139455340Y-96189905D01*
X139446490Y-96176287D01*
X139426960Y-96167952D01*
X139384334Y-96156137D01*
X139324145Y-96142181D01*
X139251922Y-96127422D01*
X139219600Y-96121355D01*
X139137522Y-96106273D01*
X139058795Y-96091669D01*
X138991109Y-96078980D01*
X138942160Y-96069642D01*
X138932943Y-96067839D01*
X138856743Y-96052799D01*
X138856743Y-95735492D01*
X138856914Y-95631154D01*
X138857616Y-95552213D01*
X138859134Y-95495038D01*
X138861749Y-95455999D01*
X138865746Y-95431465D01*
X138871409Y-95417805D01*
X138879020Y-95411389D01*
X138882143Y-95410199D01*
X138900978Y-95405980D01*
X138942588Y-95397562D01*
X139001630Y-95385961D01*
X139072757Y-95372195D01*
X139150625Y-95357280D01*
X139229887Y-95342232D01*
X139305198Y-95328069D01*
X139371213Y-95315806D01*
X139422587Y-95306461D01*
X139453975Y-95301050D01*
X139460959Y-95300114D01*
X139467285Y-95287596D01*
X139481290Y-95254246D01*
X139500355Y-95206377D01*
X139507634Y-95187629D01*
X139536996Y-95115195D01*
X139571571Y-95035170D01*
X139602537Y-94967728D01*
X139625323Y-94916159D01*
X139640482Y-94873785D01*
X139645542Y-94847834D01*
X139644736Y-94844356D01*
X139634041Y-94827936D01*
X139609620Y-94791417D01*
X139574095Y-94738687D01*
X139530087Y-94673635D01*
X139480217Y-94600151D01*
X139470356Y-94585645D01*
X139412492Y-94499704D01*
X139369956Y-94434261D01*
X139341054Y-94386304D01*
X139324090Y-94352820D01*
X139317367Y-94330795D01*
X139319190Y-94317217D01*
X139319236Y-94317131D01*
X139333586Y-94299297D01*
X139365323Y-94264817D01*
X139411010Y-94217268D01*
X139467204Y-94160222D01*
X139530468Y-94097255D01*
X139537602Y-94090227D01*
X139617330Y-94013020D01*
X139678857Y-93956330D01*
X139723421Y-93919110D01*
X139752257Y-93900315D01*
X139764958Y-93897889D01*
X139783494Y-93908471D01*
X139821961Y-93932916D01*
X139876386Y-93968612D01*
X139942798Y-94012947D01*
X140017225Y-94063311D01*
X140034601Y-94075160D01*
X140281297Y-94243626D01*
X140392706Y-94193062D01*
X140460457Y-94163595D01*
X140533183Y-94133959D01*
X140595703Y-94110330D01*
X140598457Y-94109358D01*
X140647360Y-94091457D01*
X140685057Y-94076320D01*
X140703425Y-94067210D01*
X140703456Y-94067184D01*
X140709285Y-94050717D01*
X140719192Y-94010219D01*
X140732195Y-93950242D01*
X140747309Y-93875340D01*
X140763552Y-93790064D01*
X140764881Y-93782875D01*
X140781175Y-93695014D01*
X140796133Y-93615260D01*
X140808791Y-93548681D01*
X140818186Y-93500347D01*
X140823354Y-93475325D01*
X140823444Y-93474943D01*
X140826589Y-93464299D01*
X140832704Y-93456262D01*
X140845453Y-93450467D01*
X140868500Y-93446547D01*
X140905509Y-93444135D01*
X140960144Y-93442865D01*
X141036067Y-93442371D01*
X141136944Y-93442286D01*
X141150000Y-93442286D01*
X141253910Y-93442348D01*
%LPC*%
D15*
X126212600Y-101727000D03*
D16*
X118592600Y-101727000D03*
D15*
X94526000Y-114808000D03*
D16*
X94526000Y-107188000D03*
D15*
X126212600Y-114935000D03*
D16*
X118592600Y-114935000D03*
D15*
X126212600Y-111633000D03*
D16*
X118592600Y-111633000D03*
D15*
X126212600Y-108331000D03*
D16*
X118592600Y-108331000D03*
D15*
X126212600Y-105029000D03*
D16*
X118592600Y-105029000D03*
D15*
X101130000Y-114808000D03*
D16*
X101130000Y-107188000D03*
D15*
X97828000Y-114808000D03*
D16*
X97828000Y-107188000D03*
D15*
X126212600Y-98425000D03*
D16*
X118592600Y-98425000D03*
D17*
X106299000Y-96393000D03*
D16*
X106299000Y-98933000D03*
X106299000Y-101473000D03*
X106299000Y-104013000D03*
X106299000Y-106553000D03*
X106299000Y-109093000D03*
X106299000Y-111633000D03*
X106299000Y-114173000D03*
X113919000Y-114173000D03*
X113919000Y-111633000D03*
X113919000Y-109093000D03*
X113919000Y-106553000D03*
X113919000Y-104013000D03*
X113919000Y-101473000D03*
X113919000Y-98933000D03*
X113919000Y-96393000D03*
D18*
X130429000Y-96266000D03*
D19*
X132969000Y-96266000D03*
D18*
X130556000Y-102235000D03*
D19*
X133096000Y-102235000D03*
D18*
X130556000Y-108204000D03*
D19*
X133096000Y-108204000D03*
D18*
X130556000Y-114173000D03*
D19*
X133096000Y-114173000D03*
D20*
X139000000Y-109000000D03*
D21*
X139000000Y-106460000D03*
X139000000Y-103920000D03*
X139000000Y-101380000D03*
D22*
X100400000Y-98425000D03*
D21*
X100400000Y-100965000D03*
X97860000Y-98425000D03*
X97860000Y-100965000D03*
X95320000Y-98425000D03*
X95320000Y-100965000D03*
D23*
X121183400Y-95224600D03*
X123683400Y-95224600D03*
D24*
X70500000Y-101000000D03*
X77000000Y-101000000D03*
X77000000Y-96500000D03*
X70500000Y-96500000D03*
X88500000Y-101000000D03*
X82000000Y-101000000D03*
X82000000Y-96500000D03*
X88500000Y-96500000D03*
X70500000Y-109800000D03*
X77000000Y-109800000D03*
X70500000Y-114300000D03*
X77000000Y-114300000D03*
X88500000Y-109800000D03*
X82000000Y-109800000D03*
X88500000Y-114300000D03*
X82000000Y-114300000D03*
D20*
X63627000Y-109000000D03*
D21*
X63627000Y-106460000D03*
X63627000Y-103920000D03*
X63627000Y-101380000D03*
X63627000Y-98840000D03*
M02*
