G04 #@! TF.GenerationSoftware,KiCad,Pcbnew,6.0.5-a6ca702e91~116~ubuntu20.04.1*
G04 #@! TF.CreationDate,2022-06-19T16:15:55+02:00*
G04 #@! TF.ProjectId,PCF8574,50434638-3537-4342-9e6b-696361645f70,1.0*
G04 #@! TF.SameCoordinates,Original*
G04 #@! TF.FileFunction,Copper,L1,Top*
G04 #@! TF.FilePolarity,Positive*
%FSLAX46Y46*%
G04 Gerber Fmt 4.6, Leading zero omitted, Abs format (unit mm)*
G04 Created by KiCad (PCBNEW 6.0.5-a6ca702e91~116~ubuntu20.04.1) date 2022-06-19 16:15:55*
%MOMM*%
%LPD*%
G01*
G04 APERTURE LIST*
G04 #@! TA.AperFunction,ComponentPad*
%ADD10C,1.600000*%
G04 #@! TD*
G04 #@! TA.AperFunction,ComponentPad*
%ADD11O,1.600000X1.600000*%
G04 #@! TD*
G04 #@! TA.AperFunction,ComponentPad*
%ADD12R,1.600000X1.600000*%
G04 #@! TD*
G04 #@! TA.AperFunction,ComponentPad*
%ADD13R,1.800000X1.800000*%
G04 #@! TD*
G04 #@! TA.AperFunction,ComponentPad*
%ADD14C,1.800000*%
G04 #@! TD*
G04 #@! TA.AperFunction,ComponentPad*
%ADD15R,1.700000X1.700000*%
G04 #@! TD*
G04 #@! TA.AperFunction,ComponentPad*
%ADD16O,1.700000X1.700000*%
G04 #@! TD*
G04 #@! TA.AperFunction,ComponentPad*
%ADD17C,1.400000*%
G04 #@! TD*
G04 #@! TA.AperFunction,ComponentPad*
%ADD18C,2.000000*%
G04 #@! TD*
G04 #@! TA.AperFunction,Conductor*
%ADD19C,0.500000*%
G04 #@! TD*
G04 APERTURE END LIST*
D10*
X126212600Y-101727000D03*
D11*
X118592600Y-101727000D03*
D10*
X94526000Y-114808000D03*
D11*
X94526000Y-107188000D03*
D10*
X126212600Y-114935000D03*
D11*
X118592600Y-114935000D03*
D10*
X126212600Y-111633000D03*
D11*
X118592600Y-111633000D03*
D10*
X126212600Y-108331000D03*
D11*
X118592600Y-108331000D03*
D10*
X126212600Y-105029000D03*
D11*
X118592600Y-105029000D03*
D10*
X101130000Y-114808000D03*
D11*
X101130000Y-107188000D03*
D10*
X97828000Y-114808000D03*
D11*
X97828000Y-107188000D03*
D10*
X126212600Y-98425000D03*
D11*
X118592600Y-98425000D03*
D12*
X106299000Y-96393000D03*
D11*
X106299000Y-98933000D03*
X106299000Y-101473000D03*
X106299000Y-104013000D03*
X106299000Y-106553000D03*
X106299000Y-109093000D03*
X106299000Y-111633000D03*
X106299000Y-114173000D03*
X113919000Y-114173000D03*
X113919000Y-111633000D03*
X113919000Y-109093000D03*
X113919000Y-106553000D03*
X113919000Y-104013000D03*
X113919000Y-101473000D03*
X113919000Y-98933000D03*
X113919000Y-96393000D03*
D13*
X130429000Y-96266000D03*
D14*
X132969000Y-96266000D03*
D13*
X130556000Y-102235000D03*
D14*
X133096000Y-102235000D03*
D13*
X130556000Y-108204000D03*
D14*
X133096000Y-108204000D03*
D13*
X130556000Y-114173000D03*
D14*
X133096000Y-114173000D03*
D15*
X139000000Y-109000000D03*
D16*
X139000000Y-106460000D03*
X139000000Y-103920000D03*
X139000000Y-101380000D03*
D15*
X100400000Y-98425000D03*
D16*
X100400000Y-100965000D03*
X97860000Y-98425000D03*
X97860000Y-100965000D03*
X95320000Y-98425000D03*
X95320000Y-100965000D03*
D17*
X121183400Y-95224600D03*
X123683400Y-95224600D03*
D18*
X70500000Y-101000000D03*
X77000000Y-101000000D03*
X77000000Y-96500000D03*
X70500000Y-96500000D03*
X88500000Y-101000000D03*
X82000000Y-101000000D03*
X82000000Y-96500000D03*
X88500000Y-96500000D03*
X70500000Y-109800000D03*
X77000000Y-109800000D03*
X70500000Y-114300000D03*
X77000000Y-114300000D03*
X88500000Y-109800000D03*
X82000000Y-109800000D03*
X88500000Y-114300000D03*
X82000000Y-114300000D03*
D15*
X63627000Y-109000000D03*
D16*
X63627000Y-106460000D03*
X63627000Y-103920000D03*
X63627000Y-101380000D03*
X63627000Y-98840000D03*
D19*
X101130000Y-114808000D02*
X102707001Y-116385001D01*
X132969000Y-102108000D02*
X133096000Y-102235000D01*
X126212600Y-98425000D02*
X126212600Y-101727000D01*
X133096000Y-102235000D02*
X133096000Y-103507792D01*
X97828000Y-114808000D02*
X101130000Y-114808000D01*
X121183400Y-95224600D02*
X115087400Y-95224600D01*
X132156791Y-116385001D02*
X133096000Y-115445792D01*
X115087400Y-95224600D02*
X113919000Y-96393000D01*
X63627000Y-109000000D02*
X63627000Y-110350000D01*
X102707001Y-116385001D02*
X132156791Y-116385001D01*
X93726001Y-115607999D02*
X94526000Y-114808000D01*
X133096000Y-108204000D02*
X133096000Y-109476792D01*
X133096000Y-109476792D02*
X133096000Y-114173000D01*
X133096000Y-108204000D02*
X138204000Y-108204000D01*
X138204000Y-108204000D02*
X139000000Y-109000000D01*
X69227001Y-115950001D02*
X93383999Y-115950001D01*
X94526000Y-114808000D02*
X97828000Y-114808000D01*
X93383999Y-115950001D02*
X93726001Y-115607999D01*
X133096000Y-115445792D02*
X133096000Y-114173000D01*
X63627000Y-110350000D02*
X69227001Y-115950001D01*
X132969000Y-96266000D02*
X132969000Y-102108000D01*
X133096000Y-103507792D02*
X133096000Y-108204000D01*
X107210199Y-94764199D02*
X69793799Y-94764199D01*
X66294000Y-98263998D02*
X66294000Y-101253000D01*
X66294000Y-101253000D02*
X63627000Y-103920000D01*
X118338600Y-101473000D02*
X118592600Y-101727000D01*
X113919000Y-101473000D02*
X107210199Y-94764199D01*
X113919000Y-101473000D02*
X118338600Y-101473000D01*
X69793799Y-94764199D02*
X66294000Y-98263998D01*
X96117930Y-102965011D02*
X104806989Y-102965011D01*
X105499001Y-102272999D02*
X106299000Y-101473000D01*
X95320000Y-100965000D02*
X95320000Y-102167081D01*
X104806989Y-102965011D02*
X105499001Y-102272999D01*
X95320000Y-102167081D02*
X96117930Y-102965011D01*
X126212600Y-114935000D02*
X129794000Y-114935000D01*
X129794000Y-114935000D02*
X130556000Y-114173000D01*
X118592600Y-114935000D02*
X114681000Y-114935000D01*
X114681000Y-114935000D02*
X113919000Y-114173000D01*
X113919000Y-111633000D02*
X118592600Y-111633000D01*
X126212600Y-111633000D02*
X129641600Y-108204000D01*
X129641600Y-108204000D02*
X130556000Y-108204000D01*
X130556000Y-103987600D02*
X130556000Y-102235000D01*
X126212600Y-108331000D02*
X130556000Y-103987600D01*
X113919000Y-109093000D02*
X117830600Y-109093000D01*
X117830600Y-109093000D02*
X118592600Y-108331000D01*
X113919000Y-106553000D02*
X117068600Y-106553000D01*
X117068600Y-106553000D02*
X118592600Y-105029000D01*
X130429000Y-97666000D02*
X130429000Y-96266000D01*
X127662601Y-103578999D02*
X127662601Y-100432399D01*
X126212600Y-105029000D02*
X127662601Y-103578999D01*
X127662601Y-100432399D02*
X130429000Y-97666000D01*
X101727000Y-100965000D02*
X100400000Y-100965000D01*
X106299000Y-96393000D02*
X101727000Y-100965000D01*
X99160001Y-102265001D02*
X102966999Y-102265001D01*
X105499001Y-99732999D02*
X106299000Y-98933000D01*
X97860000Y-100965000D02*
X99160001Y-102265001D01*
X102966999Y-102265001D02*
X105499001Y-99732999D01*
X69503847Y-94064189D02*
X65328800Y-98239236D01*
X113919000Y-98933000D02*
X118084600Y-98933000D01*
X65328800Y-99678200D02*
X63627000Y-101380000D01*
X113919000Y-98933000D02*
X112787630Y-98933000D01*
X112787630Y-98933000D02*
X107918819Y-94064189D01*
X65328800Y-98239236D02*
X65328800Y-99678200D01*
X118084600Y-98933000D02*
X118592600Y-98425000D01*
X107918819Y-94064189D02*
X69503847Y-94064189D01*
X78450001Y-99549999D02*
X89288399Y-99549999D01*
X89288399Y-99549999D02*
X93751400Y-104013000D01*
X70500000Y-101000000D02*
X77000000Y-101000000D01*
X77000000Y-101000000D02*
X78450001Y-99549999D01*
X93751400Y-104013000D02*
X106299000Y-104013000D01*
X83414213Y-101000000D02*
X88500000Y-101000000D01*
X89499999Y-101999999D02*
X88500000Y-101000000D01*
X106299000Y-106553000D02*
X104459010Y-104713010D01*
X104459010Y-104713010D02*
X92213010Y-104713010D01*
X82000000Y-101000000D02*
X83414213Y-101000000D01*
X92213010Y-104713010D02*
X89499999Y-101999999D01*
X89196001Y-108349999D02*
X78450001Y-108349999D01*
X77000000Y-109800000D02*
X70500000Y-109800000D01*
X89939002Y-109093000D02*
X89196001Y-108349999D01*
X78450001Y-108349999D02*
X77999999Y-108800001D01*
X106299000Y-109093000D02*
X89939002Y-109093000D01*
X77999999Y-108800001D02*
X77000000Y-109800000D01*
X104466000Y-109800000D02*
X106299000Y-111633000D01*
X82000000Y-109800000D02*
X88500000Y-109800000D01*
X88500000Y-109800000D02*
X104466000Y-109800000D01*
G04 #@! TA.AperFunction,Conductor*
G36*
X148709421Y-91536702D02*
G01*
X148755914Y-91590358D01*
X148767300Y-91642700D01*
X148767300Y-118665500D01*
X148747298Y-118733621D01*
X148693642Y-118780114D01*
X148641300Y-118791500D01*
X60375300Y-118791500D01*
X60307179Y-118771498D01*
X60260686Y-118717842D01*
X60249300Y-118665500D01*
X60249300Y-103886695D01*
X62264251Y-103886695D01*
X62264548Y-103891848D01*
X62264548Y-103891851D01*
X62272099Y-104022802D01*
X62277110Y-104109715D01*
X62278247Y-104114761D01*
X62278248Y-104114767D01*
X62294009Y-104184700D01*
X62326222Y-104327639D01*
X62380879Y-104462243D01*
X62396997Y-104501937D01*
X62410266Y-104534616D01*
X62526987Y-104725088D01*
X62673250Y-104893938D01*
X62749846Y-104957529D01*
X62829339Y-105023525D01*
X62845126Y-105036632D01*
X62918955Y-105079774D01*
X62967679Y-105131412D01*
X62980750Y-105201195D01*
X62954019Y-105266967D01*
X62913562Y-105300327D01*
X62905457Y-105304546D01*
X62896738Y-105310036D01*
X62726433Y-105437905D01*
X62718726Y-105444748D01*
X62571590Y-105598717D01*
X62565104Y-105606727D01*
X62445098Y-105782649D01*
X62440001Y-105791621D01*
X62350338Y-105984783D01*
X62346775Y-105994470D01*
X62291389Y-106194183D01*
X62292912Y-106202607D01*
X62305292Y-106206000D01*
X64945344Y-106206000D01*
X64958875Y-106202027D01*
X64960180Y-106192947D01*
X64918214Y-106025875D01*
X64914894Y-106016124D01*
X64829972Y-105820814D01*
X64825105Y-105811739D01*
X64709426Y-105632926D01*
X64703136Y-105624757D01*
X64559806Y-105467240D01*
X64552273Y-105460215D01*
X64385139Y-105328222D01*
X64376556Y-105322520D01*
X64339602Y-105302120D01*
X64289631Y-105251687D01*
X64274859Y-105182245D01*
X64299975Y-105115839D01*
X64327327Y-105089232D01*
X64350797Y-105072491D01*
X64506860Y-104961173D01*
X64665096Y-104803489D01*
X64724594Y-104720689D01*
X64792435Y-104626277D01*
X64795453Y-104622077D01*
X64813745Y-104585067D01*
X64892136Y-104426453D01*
X64892137Y-104426451D01*
X64894430Y-104421811D01*
X64959370Y-104208069D01*
X64988529Y-103986590D01*
X64988737Y-103978079D01*
X64990074Y-103923365D01*
X64990074Y-103923361D01*
X64990156Y-103920000D01*
X64972870Y-103709747D01*
X64987223Y-103640219D01*
X65009351Y-103610330D01*
X66782911Y-101836770D01*
X66797323Y-101824384D01*
X66808918Y-101815851D01*
X66808923Y-101815846D01*
X66814818Y-101811508D01*
X66819557Y-101805930D01*
X66819560Y-101805927D01*
X66849035Y-101771232D01*
X66855965Y-101763716D01*
X66861661Y-101758020D01*
X66863924Y-101755159D01*
X66863929Y-101755154D01*
X66879285Y-101735744D01*
X66882074Y-101732342D01*
X66924596Y-101682291D01*
X66924597Y-101682290D01*
X66929333Y-101676715D01*
X66932661Y-101670198D01*
X66936027Y-101665150D01*
X66939190Y-101660028D01*
X66943735Y-101654284D01*
X66974664Y-101588105D01*
X66976563Y-101584221D01*
X67009769Y-101519192D01*
X67011510Y-101512077D01*
X67013613Y-101506422D01*
X67015522Y-101500683D01*
X67018622Y-101494050D01*
X67033491Y-101422565D01*
X67034461Y-101418282D01*
X67051808Y-101347390D01*
X67052500Y-101336236D01*
X67052535Y-101336238D01*
X67052775Y-101332266D01*
X67053152Y-101328045D01*
X67054641Y-101320885D01*
X67052546Y-101243458D01*
X67052500Y-101240050D01*
X67052500Y-98630369D01*
X67072502Y-98562248D01*
X67089405Y-98541274D01*
X67471496Y-98159183D01*
X93984389Y-98159183D01*
X93985912Y-98167607D01*
X93998292Y-98171000D01*
X95047885Y-98171000D01*
X95063124Y-98166525D01*
X95064329Y-98165135D01*
X95066000Y-98157452D01*
X95066000Y-98152885D01*
X95574000Y-98152885D01*
X95578475Y-98168124D01*
X95579865Y-98169329D01*
X95587548Y-98171000D01*
X97587885Y-98171000D01*
X97603124Y-98166525D01*
X97604329Y-98165135D01*
X97606000Y-98157452D01*
X97606000Y-98152885D01*
X98114000Y-98152885D01*
X98118475Y-98168124D01*
X98119865Y-98169329D01*
X98127548Y-98171000D01*
X100127885Y-98171000D01*
X100143124Y-98166525D01*
X100144329Y-98165135D01*
X100146000Y-98157452D01*
X100146000Y-98152885D01*
X100654000Y-98152885D01*
X100658475Y-98168124D01*
X100659865Y-98169329D01*
X100667548Y-98171000D01*
X101739884Y-98171000D01*
X101755123Y-98166525D01*
X101756328Y-98165135D01*
X101757999Y-98157452D01*
X101757999Y-97530331D01*
X101757629Y-97523510D01*
X101752105Y-97472648D01*
X101748479Y-97457396D01*
X101703324Y-97336946D01*
X101694786Y-97321351D01*
X101618285Y-97219276D01*
X101605724Y-97206715D01*
X101503649Y-97130214D01*
X101488054Y-97121676D01*
X101367606Y-97076522D01*
X101352351Y-97072895D01*
X101301486Y-97067369D01*
X101294672Y-97067000D01*
X100672115Y-97067000D01*
X100656876Y-97071475D01*
X100655671Y-97072865D01*
X100654000Y-97080548D01*
X100654000Y-98152885D01*
X100146000Y-98152885D01*
X100146000Y-97085116D01*
X100141525Y-97069877D01*
X100140135Y-97068672D01*
X100132452Y-97067001D01*
X99505331Y-97067001D01*
X99498510Y-97067371D01*
X99447648Y-97072895D01*
X99432396Y-97076521D01*
X99311946Y-97121676D01*
X99296351Y-97130214D01*
X99194276Y-97206715D01*
X99181715Y-97219276D01*
X99105214Y-97321351D01*
X99096676Y-97336946D01*
X99055100Y-97447849D01*
X99012458Y-97504613D01*
X98945897Y-97529313D01*
X98876548Y-97514105D01*
X98843925Y-97488419D01*
X98792806Y-97432240D01*
X98785273Y-97425215D01*
X98618139Y-97293222D01*
X98609552Y-97287517D01*
X98423117Y-97184599D01*
X98413705Y-97180369D01*
X98212959Y-97109280D01*
X98202988Y-97106646D01*
X98131837Y-97093972D01*
X98118540Y-97095432D01*
X98114000Y-97109989D01*
X98114000Y-98152885D01*
X97606000Y-98152885D01*
X97606000Y-97108102D01*
X97602082Y-97094758D01*
X97587806Y-97092771D01*
X97549324Y-97098660D01*
X97539288Y-97101051D01*
X97336868Y-97167212D01*
X97327359Y-97171209D01*
X97138463Y-97269542D01*
X97129738Y-97275036D01*
X96959433Y-97402905D01*
X96951726Y-97409748D01*
X96804590Y-97563717D01*
X96798104Y-97571727D01*
X96693193Y-97725521D01*
X96638282Y-97770524D01*
X96567757Y-97778695D01*
X96504010Y-97747441D01*
X96483313Y-97722957D01*
X96402427Y-97597926D01*
X96396136Y-97589757D01*
X96252806Y-97432240D01*
X96245273Y-97425215D01*
X96078139Y-97293222D01*
X96069552Y-97287517D01*
X95883117Y-97184599D01*
X95873705Y-97180369D01*
X95672959Y-97109280D01*
X95662988Y-97106646D01*
X95591837Y-97093972D01*
X95578540Y-97095432D01*
X95574000Y-97109989D01*
X95574000Y-98152885D01*
X95066000Y-98152885D01*
X95066000Y-97108102D01*
X95062082Y-97094758D01*
X95047806Y-97092771D01*
X95009324Y-97098660D01*
X94999288Y-97101051D01*
X94796868Y-97167212D01*
X94787359Y-97171209D01*
X94598463Y-97269542D01*
X94589738Y-97275036D01*
X94419433Y-97402905D01*
X94411726Y-97409748D01*
X94264590Y-97563717D01*
X94258104Y-97571727D01*
X94138098Y-97747649D01*
X94133000Y-97756623D01*
X94043338Y-97949783D01*
X94039775Y-97959470D01*
X93984389Y-98159183D01*
X67471496Y-98159183D01*
X67898009Y-97732670D01*
X69632160Y-97732670D01*
X69637887Y-97740320D01*
X69809042Y-97845205D01*
X69817837Y-97849687D01*
X70027988Y-97936734D01*
X70037373Y-97939783D01*
X70258554Y-97992885D01*
X70268301Y-97994428D01*
X70495070Y-98012275D01*
X70504930Y-98012275D01*
X70731699Y-97994428D01*
X70741446Y-97992885D01*
X70962627Y-97939783D01*
X70972012Y-97936734D01*
X71182163Y-97849687D01*
X71190958Y-97845205D01*
X71358445Y-97742568D01*
X71367400Y-97732670D01*
X76132160Y-97732670D01*
X76137887Y-97740320D01*
X76309042Y-97845205D01*
X76317837Y-97849687D01*
X76527988Y-97936734D01*
X76537373Y-97939783D01*
X76758554Y-97992885D01*
X76768301Y-97994428D01*
X76995070Y-98012275D01*
X77004930Y-98012275D01*
X77231699Y-97994428D01*
X77241446Y-97992885D01*
X77462627Y-97939783D01*
X77472012Y-97936734D01*
X77682163Y-97849687D01*
X77690958Y-97845205D01*
X77858445Y-97742568D01*
X77867400Y-97732670D01*
X81132160Y-97732670D01*
X81137887Y-97740320D01*
X81309042Y-97845205D01*
X81317837Y-97849687D01*
X81527988Y-97936734D01*
X81537373Y-97939783D01*
X81758554Y-97992885D01*
X81768301Y-97994428D01*
X81995070Y-98012275D01*
X82004930Y-98012275D01*
X82231699Y-97994428D01*
X82241446Y-97992885D01*
X82462627Y-97939783D01*
X82472012Y-97936734D01*
X82682163Y-97849687D01*
X82690958Y-97845205D01*
X82858445Y-97742568D01*
X82867400Y-97732670D01*
X87632160Y-97732670D01*
X87637887Y-97740320D01*
X87809042Y-97845205D01*
X87817837Y-97849687D01*
X88027988Y-97936734D01*
X88037373Y-97939783D01*
X88258554Y-97992885D01*
X88268301Y-97994428D01*
X88495070Y-98012275D01*
X88504930Y-98012275D01*
X88731699Y-97994428D01*
X88741446Y-97992885D01*
X88962627Y-97939783D01*
X88972012Y-97936734D01*
X89182163Y-97849687D01*
X89190958Y-97845205D01*
X89358445Y-97742568D01*
X89367907Y-97732110D01*
X89364124Y-97723334D01*
X88512812Y-96872022D01*
X88498868Y-96864408D01*
X88497035Y-96864539D01*
X88490420Y-96868790D01*
X87638920Y-97720290D01*
X87632160Y-97732670D01*
X82867400Y-97732670D01*
X82867907Y-97732110D01*
X82864124Y-97723334D01*
X82012812Y-96872022D01*
X81998868Y-96864408D01*
X81997035Y-96864539D01*
X81990420Y-96868790D01*
X81138920Y-97720290D01*
X81132160Y-97732670D01*
X77867400Y-97732670D01*
X77867907Y-97732110D01*
X77864124Y-97723334D01*
X77012812Y-96872022D01*
X76998868Y-96864408D01*
X76997035Y-96864539D01*
X76990420Y-96868790D01*
X76138920Y-97720290D01*
X76132160Y-97732670D01*
X71367400Y-97732670D01*
X71367907Y-97732110D01*
X71364124Y-97723334D01*
X70512812Y-96872022D01*
X70498868Y-96864408D01*
X70497035Y-96864539D01*
X70490420Y-96868790D01*
X69638920Y-97720290D01*
X69632160Y-97732670D01*
X67898009Y-97732670D01*
X68825202Y-96805477D01*
X68887514Y-96771451D01*
X68958329Y-96776516D01*
X69015165Y-96819063D01*
X69036815Y-96865157D01*
X69060214Y-96962618D01*
X69063266Y-96972012D01*
X69150313Y-97182163D01*
X69154795Y-97190958D01*
X69257432Y-97358445D01*
X69267890Y-97367907D01*
X69276666Y-97364124D01*
X70410905Y-96229885D01*
X70473217Y-96195859D01*
X70544032Y-96200924D01*
X70589095Y-96229885D01*
X71720290Y-97361080D01*
X71732670Y-97367840D01*
X71740320Y-97362113D01*
X71845205Y-97190958D01*
X71849687Y-97182163D01*
X71936734Y-96972012D01*
X71939783Y-96962627D01*
X71992885Y-96741446D01*
X71994428Y-96731699D01*
X72012275Y-96504930D01*
X72012275Y-96495070D01*
X71994428Y-96268301D01*
X71992885Y-96258554D01*
X71939783Y-96037373D01*
X71936734Y-96027988D01*
X71849687Y-95817837D01*
X71845205Y-95809042D01*
X71787290Y-95714534D01*
X71768751Y-95646001D01*
X71790207Y-95578324D01*
X71844846Y-95532991D01*
X71894722Y-95522699D01*
X75605278Y-95522699D01*
X75673399Y-95542701D01*
X75719892Y-95596357D01*
X75729996Y-95666631D01*
X75712710Y-95714534D01*
X75654795Y-95809042D01*
X75650313Y-95817837D01*
X75563266Y-96027988D01*
X75560217Y-96037373D01*
X75507115Y-96258554D01*
X75505572Y-96268301D01*
X75487725Y-96495070D01*
X75487725Y-96504930D01*
X75505572Y-96731699D01*
X75507115Y-96741446D01*
X75560217Y-96962627D01*
X75563266Y-96972012D01*
X75650313Y-97182163D01*
X75654795Y-97190958D01*
X75757432Y-97358445D01*
X75767890Y-97367907D01*
X75776666Y-97364124D01*
X76910905Y-96229885D01*
X76973217Y-96195859D01*
X77044032Y-96200924D01*
X77089095Y-96229885D01*
X78220290Y-97361080D01*
X78232670Y-97367840D01*
X78240320Y-97362113D01*
X78345205Y-97190958D01*
X78349687Y-97182163D01*
X78436734Y-96972012D01*
X78439783Y-96962627D01*
X78492885Y-96741446D01*
X78494428Y-96731699D01*
X78512275Y-96504930D01*
X78512275Y-96495070D01*
X78494428Y-96268301D01*
X78492885Y-96258554D01*
X78439783Y-96037373D01*
X78436734Y-96027988D01*
X78349687Y-95817837D01*
X78345205Y-95809042D01*
X78287290Y-95714534D01*
X78268751Y-95646001D01*
X78290207Y-95578324D01*
X78344846Y-95532991D01*
X78394722Y-95522699D01*
X80605278Y-95522699D01*
X80673399Y-95542701D01*
X80719892Y-95596357D01*
X80729996Y-95666631D01*
X80712710Y-95714534D01*
X80654795Y-95809042D01*
X80650313Y-95817837D01*
X80563266Y-96027988D01*
X80560217Y-96037373D01*
X80507115Y-96258554D01*
X80505572Y-96268301D01*
X80487725Y-96495070D01*
X80487725Y-96504930D01*
X80505572Y-96731699D01*
X80507115Y-96741446D01*
X80560217Y-96962627D01*
X80563266Y-96972012D01*
X80650313Y-97182163D01*
X80654795Y-97190958D01*
X80757432Y-97358445D01*
X80767890Y-97367907D01*
X80776666Y-97364124D01*
X81910905Y-96229885D01*
X81973217Y-96195859D01*
X82044032Y-96200924D01*
X82089095Y-96229885D01*
X83220290Y-97361080D01*
X83232670Y-97367840D01*
X83240320Y-97362113D01*
X83345205Y-97190958D01*
X83349687Y-97182163D01*
X83436734Y-96972012D01*
X83439783Y-96962627D01*
X83492885Y-96741446D01*
X83494428Y-96731699D01*
X83512275Y-96504930D01*
X83512275Y-96495070D01*
X83494428Y-96268301D01*
X83492885Y-96258554D01*
X83439783Y-96037373D01*
X83436734Y-96027988D01*
X83349687Y-95817837D01*
X83345205Y-95809042D01*
X83287290Y-95714534D01*
X83268751Y-95646001D01*
X83290207Y-95578324D01*
X83344846Y-95532991D01*
X83394722Y-95522699D01*
X87105278Y-95522699D01*
X87173399Y-95542701D01*
X87219892Y-95596357D01*
X87229996Y-95666631D01*
X87212710Y-95714534D01*
X87154795Y-95809042D01*
X87150313Y-95817837D01*
X87063266Y-96027988D01*
X87060217Y-96037373D01*
X87007115Y-96258554D01*
X87005572Y-96268301D01*
X86987725Y-96495070D01*
X86987725Y-96504930D01*
X87005572Y-96731699D01*
X87007115Y-96741446D01*
X87060217Y-96962627D01*
X87063266Y-96972012D01*
X87150313Y-97182163D01*
X87154795Y-97190958D01*
X87257432Y-97358445D01*
X87267890Y-97367907D01*
X87276666Y-97364124D01*
X88410905Y-96229885D01*
X88473217Y-96195859D01*
X88544032Y-96200924D01*
X88589095Y-96229885D01*
X89720290Y-97361080D01*
X89732670Y-97367840D01*
X89740320Y-97362113D01*
X89845205Y-97190958D01*
X89849687Y-97182163D01*
X89936734Y-96972012D01*
X89939783Y-96962627D01*
X89992885Y-96741446D01*
X89994428Y-96731699D01*
X90012275Y-96504930D01*
X90012275Y-96495070D01*
X89994428Y-96268301D01*
X89992885Y-96258554D01*
X89939783Y-96037373D01*
X89936734Y-96027988D01*
X89849687Y-95817837D01*
X89845205Y-95809042D01*
X89787290Y-95714534D01*
X89768751Y-95646001D01*
X89790207Y-95578324D01*
X89844846Y-95532991D01*
X89894722Y-95522699D01*
X104864500Y-95522699D01*
X104932621Y-95542701D01*
X104979114Y-95596357D01*
X104990500Y-95648699D01*
X104990500Y-96576629D01*
X104970498Y-96644750D01*
X104953595Y-96665724D01*
X101576282Y-100043037D01*
X101513970Y-100077063D01*
X101443155Y-100071998D01*
X101393992Y-100038740D01*
X101332434Y-99971087D01*
X101301383Y-99907241D01*
X101309779Y-99836743D01*
X101354957Y-99781975D01*
X101381400Y-99768307D01*
X101488052Y-99728325D01*
X101503649Y-99719786D01*
X101605724Y-99643285D01*
X101618285Y-99630724D01*
X101694786Y-99528649D01*
X101703324Y-99513054D01*
X101748478Y-99392606D01*
X101752105Y-99377351D01*
X101757631Y-99326486D01*
X101758000Y-99319672D01*
X101758000Y-98697115D01*
X101753525Y-98681876D01*
X101752135Y-98680671D01*
X101744452Y-98679000D01*
X94003225Y-98679000D01*
X93989694Y-98682973D01*
X93988257Y-98692966D01*
X94018565Y-98827446D01*
X94021645Y-98837275D01*
X94101770Y-99034603D01*
X94106413Y-99043794D01*
X94217694Y-99225388D01*
X94223777Y-99233699D01*
X94363213Y-99394667D01*
X94370580Y-99401883D01*
X94534434Y-99537916D01*
X94542881Y-99543831D01*
X94611969Y-99584203D01*
X94660693Y-99635842D01*
X94673764Y-99705625D01*
X94647033Y-99771396D01*
X94606584Y-99804752D01*
X94593607Y-99811507D01*
X94589474Y-99814610D01*
X94589471Y-99814612D01*
X94419100Y-99942530D01*
X94414965Y-99945635D01*
X94389894Y-99971870D01*
X94294210Y-100071998D01*
X94260629Y-100107138D01*
X94257720Y-100111403D01*
X94257714Y-100111411D01*
X94206377Y-100186669D01*
X94134743Y-100291680D01*
X94115493Y-100333151D01*
X94068272Y-100434881D01*
X94040688Y-100494305D01*
X93980989Y-100709570D01*
X93957251Y-100931695D01*
X93957548Y-100936848D01*
X93957548Y-100936851D01*
X93964707Y-101061012D01*
X93970110Y-101154715D01*
X93971247Y-101159761D01*
X93971248Y-101159767D01*
X93989726Y-101241758D01*
X94019222Y-101372639D01*
X94068338Y-101493598D01*
X94099246Y-101569715D01*
X94103266Y-101579616D01*
X94144956Y-101647648D01*
X94217291Y-101765688D01*
X94219987Y-101770088D01*
X94366250Y-101938938D01*
X94438619Y-101999020D01*
X94512224Y-102060128D01*
X94551859Y-102119031D01*
X94557324Y-102146858D01*
X94561085Y-102193100D01*
X94561500Y-102203314D01*
X94561500Y-102211374D01*
X94563049Y-102224664D01*
X94564789Y-102239588D01*
X94565222Y-102243963D01*
X94570379Y-102307359D01*
X94571140Y-102316718D01*
X94573396Y-102323682D01*
X94574587Y-102329641D01*
X94575971Y-102335496D01*
X94576818Y-102342762D01*
X94601735Y-102411408D01*
X94603152Y-102415536D01*
X94611162Y-102440260D01*
X94625649Y-102484980D01*
X94629445Y-102491235D01*
X94631951Y-102496709D01*
X94634670Y-102502139D01*
X94637167Y-102509018D01*
X94641180Y-102515138D01*
X94641180Y-102515139D01*
X94677186Y-102570057D01*
X94679523Y-102573761D01*
X94717405Y-102636188D01*
X94721121Y-102640396D01*
X94721122Y-102640397D01*
X94724803Y-102644565D01*
X94724776Y-102644589D01*
X94727429Y-102647581D01*
X94730132Y-102650814D01*
X94734144Y-102656933D01*
X94753978Y-102675722D01*
X94790383Y-102710209D01*
X94792825Y-102712587D01*
X95119643Y-103039405D01*
X95153669Y-103101717D01*
X95148604Y-103172532D01*
X95106057Y-103229368D01*
X95039537Y-103254179D01*
X95030548Y-103254500D01*
X94117771Y-103254500D01*
X94049650Y-103234498D01*
X94028676Y-103217595D01*
X89872169Y-99061088D01*
X89859783Y-99046676D01*
X89851250Y-99035081D01*
X89851245Y-99035076D01*
X89846907Y-99029181D01*
X89841329Y-99024442D01*
X89841326Y-99024439D01*
X89806631Y-98994964D01*
X89799115Y-98988034D01*
X89793420Y-98982339D01*
X89777135Y-98969455D01*
X89771148Y-98964718D01*
X89767744Y-98961927D01*
X89717696Y-98919408D01*
X89717694Y-98919407D01*
X89712114Y-98914666D01*
X89705598Y-98911338D01*
X89700549Y-98907971D01*
X89695420Y-98904804D01*
X89689683Y-98900265D01*
X89623524Y-98869344D01*
X89619624Y-98867438D01*
X89554591Y-98834230D01*
X89547483Y-98832491D01*
X89541840Y-98830392D01*
X89536077Y-98828475D01*
X89529449Y-98825377D01*
X89457982Y-98810512D01*
X89453698Y-98809542D01*
X89433444Y-98804586D01*
X89382789Y-98792191D01*
X89377187Y-98791843D01*
X89377184Y-98791843D01*
X89371635Y-98791499D01*
X89371637Y-98791463D01*
X89367644Y-98791224D01*
X89363452Y-98790850D01*
X89356284Y-98789359D01*
X89292519Y-98791084D01*
X89278878Y-98791453D01*
X89275471Y-98791499D01*
X78517071Y-98791499D01*
X78498121Y-98790066D01*
X78483886Y-98787900D01*
X78483882Y-98787900D01*
X78476652Y-98786800D01*
X78469360Y-98787393D01*
X78469357Y-98787393D01*
X78423983Y-98791084D01*
X78413768Y-98791499D01*
X78405708Y-98791499D01*
X78392418Y-98793048D01*
X78377494Y-98794788D01*
X78373119Y-98795221D01*
X78307662Y-98800545D01*
X78307659Y-98800546D01*
X78300364Y-98801139D01*
X78293400Y-98803395D01*
X78287441Y-98804586D01*
X78281586Y-98805970D01*
X78274320Y-98806817D01*
X78205674Y-98831734D01*
X78201546Y-98833151D01*
X78139065Y-98853392D01*
X78139063Y-98853393D01*
X78132102Y-98855648D01*
X78125847Y-98859444D01*
X78120373Y-98861950D01*
X78114943Y-98864669D01*
X78108064Y-98867166D01*
X78101944Y-98871179D01*
X78101943Y-98871179D01*
X78047025Y-98907185D01*
X78043321Y-98909522D01*
X77980894Y-98947404D01*
X77972517Y-98954802D01*
X77972493Y-98954775D01*
X77969501Y-98957428D01*
X77966268Y-98960131D01*
X77960149Y-98964143D01*
X77930952Y-98994964D01*
X77906873Y-99020382D01*
X77904495Y-99022824D01*
X77435907Y-99491412D01*
X77373595Y-99525438D01*
X77317398Y-99524836D01*
X77241524Y-99506620D01*
X77241518Y-99506619D01*
X77236711Y-99505465D01*
X77000000Y-99486835D01*
X76763289Y-99505465D01*
X76758482Y-99506619D01*
X76758476Y-99506620D01*
X76613988Y-99541309D01*
X76532406Y-99560895D01*
X76527835Y-99562788D01*
X76527833Y-99562789D01*
X76317611Y-99649865D01*
X76317607Y-99649867D01*
X76313037Y-99651760D01*
X76308817Y-99654346D01*
X76114798Y-99773241D01*
X76114792Y-99773245D01*
X76110584Y-99775824D01*
X75930031Y-99930031D01*
X75775824Y-100110584D01*
X75758327Y-100139137D01*
X75732467Y-100181336D01*
X75679819Y-100228967D01*
X75625035Y-100241500D01*
X71874965Y-100241500D01*
X71806844Y-100221498D01*
X71767533Y-100181336D01*
X71741673Y-100139137D01*
X71724176Y-100110584D01*
X71569969Y-99930031D01*
X71389416Y-99775824D01*
X71385208Y-99773245D01*
X71385202Y-99773241D01*
X71191183Y-99654346D01*
X71186963Y-99651760D01*
X71182393Y-99649867D01*
X71182389Y-99649865D01*
X70972167Y-99562789D01*
X70972165Y-99562788D01*
X70967594Y-99560895D01*
X70886012Y-99541309D01*
X70741524Y-99506620D01*
X70741518Y-99506619D01*
X70736711Y-99505465D01*
X70500000Y-99486835D01*
X70263289Y-99505465D01*
X70258482Y-99506619D01*
X70258476Y-99506620D01*
X70113988Y-99541309D01*
X70032406Y-99560895D01*
X70027835Y-99562788D01*
X70027833Y-99562789D01*
X69817611Y-99649865D01*
X69817607Y-99649867D01*
X69813037Y-99651760D01*
X69808817Y-99654346D01*
X69614798Y-99773241D01*
X69614792Y-99773245D01*
X69610584Y-99775824D01*
X69430031Y-99930031D01*
X69275824Y-100110584D01*
X69273245Y-100114792D01*
X69273241Y-100114798D01*
X69154541Y-100308499D01*
X69151760Y-100313037D01*
X69149867Y-100317607D01*
X69149865Y-100317611D01*
X69077924Y-100491293D01*
X69060895Y-100532406D01*
X69046436Y-100592634D01*
X69010915Y-100740590D01*
X69005465Y-100763289D01*
X68986835Y-101000000D01*
X69005465Y-101236711D01*
X69006619Y-101241518D01*
X69006620Y-101241524D01*
X69039247Y-101377425D01*
X69060895Y-101467594D01*
X69062788Y-101472165D01*
X69062789Y-101472167D01*
X69149825Y-101682291D01*
X69151760Y-101686963D01*
X69154346Y-101691183D01*
X69273241Y-101885202D01*
X69273245Y-101885208D01*
X69275824Y-101889416D01*
X69430031Y-102069969D01*
X69433787Y-102073177D01*
X69443687Y-102081632D01*
X69610584Y-102224176D01*
X69614792Y-102226755D01*
X69614798Y-102226759D01*
X69768907Y-102321197D01*
X69813037Y-102348240D01*
X69817607Y-102350133D01*
X69817611Y-102350135D01*
X70027833Y-102437211D01*
X70032406Y-102439105D01*
X70112609Y-102458360D01*
X70258476Y-102493380D01*
X70258482Y-102493381D01*
X70263289Y-102494535D01*
X70500000Y-102513165D01*
X70736711Y-102494535D01*
X70741518Y-102493381D01*
X70741524Y-102493380D01*
X70887391Y-102458360D01*
X70967594Y-102439105D01*
X70972167Y-102437211D01*
X71182389Y-102350135D01*
X71182393Y-102350133D01*
X71186963Y-102348240D01*
X71231093Y-102321197D01*
X71385202Y-102226759D01*
X71385208Y-102226755D01*
X71389416Y-102224176D01*
X71556313Y-102081632D01*
X71566213Y-102073177D01*
X71569969Y-102069969D01*
X71724176Y-101889416D01*
X71767533Y-101818664D01*
X71820181Y-101771033D01*
X71874965Y-101758500D01*
X75625035Y-101758500D01*
X75693156Y-101778502D01*
X75732466Y-101818663D01*
X75775824Y-101889416D01*
X75930031Y-102069969D01*
X75933787Y-102073177D01*
X75943687Y-102081632D01*
X76110584Y-102224176D01*
X76114792Y-102226755D01*
X76114798Y-102226759D01*
X76268907Y-102321197D01*
X76313037Y-102348240D01*
X76317607Y-102350133D01*
X76317611Y-102350135D01*
X76527833Y-102437211D01*
X76532406Y-102439105D01*
X76612609Y-102458360D01*
X76758476Y-102493380D01*
X76758482Y-102493381D01*
X76763289Y-102494535D01*
X77000000Y-102513165D01*
X77236711Y-102494535D01*
X77241518Y-102493381D01*
X77241524Y-102493380D01*
X77387391Y-102458360D01*
X77467594Y-102439105D01*
X77472167Y-102437211D01*
X77682389Y-102350135D01*
X77682393Y-102350133D01*
X77686963Y-102348240D01*
X77731093Y-102321197D01*
X77885202Y-102226759D01*
X77885208Y-102226755D01*
X77889416Y-102224176D01*
X78056313Y-102081632D01*
X78066213Y-102073177D01*
X78069969Y-102069969D01*
X78224176Y-101889416D01*
X78226755Y-101885208D01*
X78226759Y-101885202D01*
X78345654Y-101691183D01*
X78348240Y-101686963D01*
X78350176Y-101682291D01*
X78437211Y-101472167D01*
X78437212Y-101472165D01*
X78439105Y-101467594D01*
X78460753Y-101377425D01*
X78493380Y-101241524D01*
X78493381Y-101241518D01*
X78494535Y-101236711D01*
X78513165Y-101000000D01*
X78494535Y-100763289D01*
X78493381Y-100758482D01*
X78493380Y-100758476D01*
X78475164Y-100682602D01*
X78478711Y-100611694D01*
X78508588Y-100564093D01*
X78727277Y-100345404D01*
X78789589Y-100311378D01*
X78816372Y-100308499D01*
X80465068Y-100308499D01*
X80533189Y-100328501D01*
X80579682Y-100382157D01*
X80589786Y-100452431D01*
X80581478Y-100482715D01*
X80560895Y-100532406D01*
X80546436Y-100592634D01*
X80510915Y-100740590D01*
X80505465Y-100763289D01*
X80486835Y-101000000D01*
X80505465Y-101236711D01*
X80506619Y-101241518D01*
X80506620Y-101241524D01*
X80539247Y-101377425D01*
X80560895Y-101467594D01*
X80562788Y-101472165D01*
X80562789Y-101472167D01*
X80649825Y-101682291D01*
X80651760Y-101686963D01*
X80654346Y-101691183D01*
X80773241Y-101885202D01*
X80773245Y-101885208D01*
X80775824Y-101889416D01*
X80930031Y-102069969D01*
X80933787Y-102073177D01*
X80943687Y-102081632D01*
X81110584Y-102224176D01*
X81114792Y-102226755D01*
X81114798Y-102226759D01*
X81268907Y-102321197D01*
X81313037Y-102348240D01*
X81317607Y-102350133D01*
X81317611Y-102350135D01*
X81527833Y-102437211D01*
X81532406Y-102439105D01*
X81612609Y-102458360D01*
X81758476Y-102493380D01*
X81758482Y-102493381D01*
X81763289Y-102494535D01*
X82000000Y-102513165D01*
X82236711Y-102494535D01*
X82241518Y-102493381D01*
X82241524Y-102493380D01*
X82387391Y-102458360D01*
X82467594Y-102439105D01*
X82472167Y-102437211D01*
X82682389Y-102350135D01*
X82682393Y-102350133D01*
X82686963Y-102348240D01*
X82731093Y-102321197D01*
X82885202Y-102226759D01*
X82885208Y-102226755D01*
X82889416Y-102224176D01*
X83056313Y-102081632D01*
X83066213Y-102073177D01*
X83069969Y-102069969D01*
X83224176Y-101889416D01*
X83267533Y-101818664D01*
X83320181Y-101771033D01*
X83374965Y-101758500D01*
X87125035Y-101758500D01*
X87193156Y-101778502D01*
X87232466Y-101818663D01*
X87275824Y-101889416D01*
X87430031Y-102069969D01*
X87433787Y-102073177D01*
X87443687Y-102081632D01*
X87610584Y-102224176D01*
X87614792Y-102226755D01*
X87614798Y-102226759D01*
X87768907Y-102321197D01*
X87813037Y-102348240D01*
X87817607Y-102350133D01*
X87817611Y-102350135D01*
X88027833Y-102437211D01*
X88032406Y-102439105D01*
X88112609Y-102458360D01*
X88258476Y-102493380D01*
X88258482Y-102493381D01*
X88263289Y-102494535D01*
X88500000Y-102513165D01*
X88736711Y-102494535D01*
X88741518Y-102493381D01*
X88741524Y-102493380D01*
X88817398Y-102475164D01*
X88888306Y-102478711D01*
X88935907Y-102508588D01*
X91629240Y-105201921D01*
X91641626Y-105216333D01*
X91650159Y-105227928D01*
X91650164Y-105227933D01*
X91654502Y-105233828D01*
X91660080Y-105238567D01*
X91660083Y-105238570D01*
X91694778Y-105268045D01*
X91702294Y-105274975D01*
X91707989Y-105280670D01*
X91710871Y-105282950D01*
X91730261Y-105298291D01*
X91733665Y-105301082D01*
X91765611Y-105328222D01*
X91789295Y-105348343D01*
X91795811Y-105351671D01*
X91800860Y-105355038D01*
X91805989Y-105358205D01*
X91811726Y-105362744D01*
X91877885Y-105393665D01*
X91881779Y-105395568D01*
X91946818Y-105428779D01*
X91953926Y-105430518D01*
X91959569Y-105432617D01*
X91965332Y-105434534D01*
X91971960Y-105437632D01*
X91979122Y-105439122D01*
X91979123Y-105439122D01*
X92043422Y-105452496D01*
X92047706Y-105453466D01*
X92118620Y-105470818D01*
X92124222Y-105471166D01*
X92124225Y-105471166D01*
X92129774Y-105471510D01*
X92129772Y-105471546D01*
X92133765Y-105471785D01*
X92137957Y-105472159D01*
X92145125Y-105473650D01*
X92222530Y-105471556D01*
X92225938Y-105471510D01*
X104092639Y-105471510D01*
X104160760Y-105491512D01*
X104181734Y-105508415D01*
X104963329Y-106290010D01*
X104997355Y-106352322D01*
X104999755Y-106390087D01*
X104985981Y-106547525D01*
X104985502Y-106553000D01*
X105005457Y-106781087D01*
X105006881Y-106786400D01*
X105006881Y-106786402D01*
X105053374Y-106959913D01*
X105064716Y-107002243D01*
X105067039Y-107007224D01*
X105067039Y-107007225D01*
X105159151Y-107204762D01*
X105159154Y-107204767D01*
X105161477Y-107209749D01*
X105230421Y-107308211D01*
X105286249Y-107387941D01*
X105292802Y-107397300D01*
X105454700Y-107559198D01*
X105459208Y-107562355D01*
X105459211Y-107562357D01*
X105505892Y-107595043D01*
X105642251Y-107690523D01*
X105647233Y-107692846D01*
X105647238Y-107692849D01*
X105681457Y-107708805D01*
X105734742Y-107755722D01*
X105754203Y-107823999D01*
X105733661Y-107891959D01*
X105681457Y-107937195D01*
X105647238Y-107953151D01*
X105647233Y-107953154D01*
X105642251Y-107955477D01*
X105538979Y-108027789D01*
X105459211Y-108083643D01*
X105459208Y-108083645D01*
X105454700Y-108086802D01*
X105292802Y-108248700D01*
X105270345Y-108280771D01*
X105214890Y-108325099D01*
X105167133Y-108334500D01*
X102138188Y-108334500D01*
X102070067Y-108314498D01*
X102023574Y-108260842D01*
X102013470Y-108190568D01*
X102042964Y-108125988D01*
X102049093Y-108119405D01*
X102136198Y-108032300D01*
X102267523Y-107844749D01*
X102269846Y-107839767D01*
X102269849Y-107839762D01*
X102361961Y-107642225D01*
X102361961Y-107642224D01*
X102364284Y-107637243D01*
X102365945Y-107631046D01*
X102422119Y-107421402D01*
X102422119Y-107421400D01*
X102423543Y-107416087D01*
X102443498Y-107188000D01*
X102423543Y-106959913D01*
X102418405Y-106940739D01*
X102365707Y-106744067D01*
X102365706Y-106744065D01*
X102364284Y-106738757D01*
X102361961Y-106733775D01*
X102269849Y-106536238D01*
X102269846Y-106536233D01*
X102267523Y-106531251D01*
X102150882Y-106364671D01*
X102139357Y-106348211D01*
X102139355Y-106348208D01*
X102136198Y-106343700D01*
X101974300Y-106181802D01*
X101969792Y-106178645D01*
X101969789Y-106178643D01*
X101870424Y-106109067D01*
X101786749Y-106050477D01*
X101781767Y-106048154D01*
X101781762Y-106048151D01*
X101584225Y-105956039D01*
X101584224Y-105956039D01*
X101579243Y-105953716D01*
X101573935Y-105952294D01*
X101573933Y-105952293D01*
X101363402Y-105895881D01*
X101363400Y-105895881D01*
X101358087Y-105894457D01*
X101130000Y-105874502D01*
X100901913Y-105894457D01*
X100896600Y-105895881D01*
X100896598Y-105895881D01*
X100686067Y-105952293D01*
X100686065Y-105952294D01*
X100680757Y-105953716D01*
X100675776Y-105956039D01*
X100675775Y-105956039D01*
X100478238Y-106048151D01*
X100478233Y-106048154D01*
X100473251Y-106050477D01*
X100389576Y-106109067D01*
X100290211Y-106178643D01*
X100290208Y-106178645D01*
X100285700Y-106181802D01*
X100123802Y-106343700D01*
X100120645Y-106348208D01*
X100120643Y-106348211D01*
X100109118Y-106364671D01*
X99992477Y-106531251D01*
X99990154Y-106536233D01*
X99990151Y-106536238D01*
X99898039Y-106733775D01*
X99895716Y-106738757D01*
X99894294Y-106744065D01*
X99894293Y-106744067D01*
X99841595Y-106940739D01*
X99836457Y-106959913D01*
X99816502Y-107188000D01*
X99836457Y-107416087D01*
X99837881Y-107421400D01*
X99837881Y-107421402D01*
X99894056Y-107631046D01*
X99895716Y-107637243D01*
X99898039Y-107642224D01*
X99898039Y-107642225D01*
X99990151Y-107839762D01*
X99990154Y-107839767D01*
X99992477Y-107844749D01*
X100123802Y-108032300D01*
X100210907Y-108119405D01*
X100244933Y-108181717D01*
X100239868Y-108252532D01*
X100197321Y-108309368D01*
X100130801Y-108334179D01*
X100121812Y-108334500D01*
X98836188Y-108334500D01*
X98768067Y-108314498D01*
X98721574Y-108260842D01*
X98711470Y-108190568D01*
X98740964Y-108125988D01*
X98747093Y-108119405D01*
X98834198Y-108032300D01*
X98965523Y-107844749D01*
X98967846Y-107839767D01*
X98967849Y-107839762D01*
X99059961Y-107642225D01*
X99059961Y-107642224D01*
X99062284Y-107637243D01*
X99063945Y-107631046D01*
X99120119Y-107421402D01*
X99120119Y-107421400D01*
X99121543Y-107416087D01*
X99141498Y-107188000D01*
X99121543Y-106959913D01*
X99116405Y-106940739D01*
X99063707Y-106744067D01*
X99063706Y-106744065D01*
X99062284Y-106738757D01*
X99059961Y-106733775D01*
X98967849Y-106536238D01*
X98967846Y-106536233D01*
X98965523Y-106531251D01*
X98848882Y-106364671D01*
X98837357Y-106348211D01*
X98837355Y-106348208D01*
X98834198Y-106343700D01*
X98672300Y-106181802D01*
X98667792Y-106178645D01*
X98667789Y-106178643D01*
X98568424Y-106109067D01*
X98484749Y-106050477D01*
X98479767Y-106048154D01*
X98479762Y-106048151D01*
X98282225Y-105956039D01*
X98282224Y-105956039D01*
X98277243Y-105953716D01*
X98271935Y-105952294D01*
X98271933Y-105952293D01*
X98061402Y-105895881D01*
X98061400Y-105895881D01*
X98056087Y-105894457D01*
X97828000Y-105874502D01*
X97599913Y-105894457D01*
X97594600Y-105895881D01*
X97594598Y-105895881D01*
X97384067Y-105952293D01*
X97384065Y-105952294D01*
X97378757Y-105953716D01*
X97373776Y-105956039D01*
X97373775Y-105956039D01*
X97176238Y-106048151D01*
X97176233Y-106048154D01*
X97171251Y-106050477D01*
X97087576Y-106109067D01*
X96988211Y-106178643D01*
X96988208Y-106178645D01*
X96983700Y-106181802D01*
X96821802Y-106343700D01*
X96818645Y-106348208D01*
X96818643Y-106348211D01*
X96807118Y-106364671D01*
X96690477Y-106531251D01*
X96688154Y-106536233D01*
X96688151Y-106536238D01*
X96596039Y-106733775D01*
X96593716Y-106738757D01*
X96592294Y-106744065D01*
X96592293Y-106744067D01*
X96539595Y-106940739D01*
X96534457Y-106959913D01*
X96514502Y-107188000D01*
X96534457Y-107416087D01*
X96535881Y-107421400D01*
X96535881Y-107421402D01*
X96592056Y-107631046D01*
X96593716Y-107637243D01*
X96596039Y-107642224D01*
X96596039Y-107642225D01*
X96688151Y-107839762D01*
X96688154Y-107839767D01*
X96690477Y-107844749D01*
X96821802Y-108032300D01*
X96908907Y-108119405D01*
X96942933Y-108181717D01*
X96937868Y-108252532D01*
X96895321Y-108309368D01*
X96828801Y-108334179D01*
X96819812Y-108334500D01*
X95534188Y-108334500D01*
X95466067Y-108314498D01*
X95419574Y-108260842D01*
X95409470Y-108190568D01*
X95438964Y-108125988D01*
X95445093Y-108119405D01*
X95532198Y-108032300D01*
X95663523Y-107844749D01*
X95665846Y-107839767D01*
X95665849Y-107839762D01*
X95757961Y-107642225D01*
X95757961Y-107642224D01*
X95760284Y-107637243D01*
X95761945Y-107631046D01*
X95818119Y-107421402D01*
X95818119Y-107421400D01*
X95819543Y-107416087D01*
X95839498Y-107188000D01*
X95819543Y-106959913D01*
X95814405Y-106940739D01*
X95761707Y-106744067D01*
X95761706Y-106744065D01*
X95760284Y-106738757D01*
X95757961Y-106733775D01*
X95665849Y-106536238D01*
X95665846Y-106536233D01*
X95663523Y-106531251D01*
X95546882Y-106364671D01*
X95535357Y-106348211D01*
X95535355Y-106348208D01*
X95532198Y-106343700D01*
X95370300Y-106181802D01*
X95365792Y-106178645D01*
X95365789Y-106178643D01*
X95266424Y-106109067D01*
X95182749Y-106050477D01*
X95177767Y-106048154D01*
X95177762Y-106048151D01*
X94980225Y-105956039D01*
X94980224Y-105956039D01*
X94975243Y-105953716D01*
X94969935Y-105952294D01*
X94969933Y-105952293D01*
X94759402Y-105895881D01*
X94759400Y-105895881D01*
X94754087Y-105894457D01*
X94526000Y-105874502D01*
X94297913Y-105894457D01*
X94292600Y-105895881D01*
X94292598Y-105895881D01*
X94082067Y-105952293D01*
X94082065Y-105952294D01*
X94076757Y-105953716D01*
X94071776Y-105956039D01*
X94071775Y-105956039D01*
X93874238Y-106048151D01*
X93874233Y-106048154D01*
X93869251Y-106050477D01*
X93785576Y-106109067D01*
X93686211Y-106178643D01*
X93686208Y-106178645D01*
X93681700Y-106181802D01*
X93519802Y-106343700D01*
X93516645Y-106348208D01*
X93516643Y-106348211D01*
X93505118Y-106364671D01*
X93388477Y-106531251D01*
X93386154Y-106536233D01*
X93386151Y-106536238D01*
X93294039Y-106733775D01*
X93291716Y-106738757D01*
X93290294Y-106744065D01*
X93290293Y-106744067D01*
X93237595Y-106940739D01*
X93232457Y-106959913D01*
X93212502Y-107188000D01*
X93232457Y-107416087D01*
X93233881Y-107421400D01*
X93233881Y-107421402D01*
X93290056Y-107631046D01*
X93291716Y-107637243D01*
X93294039Y-107642224D01*
X93294039Y-107642225D01*
X93386151Y-107839762D01*
X93386154Y-107839767D01*
X93388477Y-107844749D01*
X93519802Y-108032300D01*
X93606907Y-108119405D01*
X93640933Y-108181717D01*
X93635868Y-108252532D01*
X93593321Y-108309368D01*
X93526801Y-108334179D01*
X93517812Y-108334500D01*
X90305373Y-108334500D01*
X90237252Y-108314498D01*
X90216278Y-108297595D01*
X89779771Y-107861088D01*
X89767385Y-107846676D01*
X89758852Y-107835081D01*
X89758847Y-107835076D01*
X89754509Y-107829181D01*
X89748931Y-107824442D01*
X89748928Y-107824439D01*
X89714233Y-107794964D01*
X89706717Y-107788034D01*
X89701022Y-107782339D01*
X89684737Y-107769455D01*
X89678750Y-107764718D01*
X89675346Y-107761927D01*
X89625298Y-107719408D01*
X89625296Y-107719407D01*
X89619716Y-107714666D01*
X89613200Y-107711338D01*
X89608151Y-107707971D01*
X89603022Y-107704804D01*
X89597285Y-107700265D01*
X89531126Y-107669344D01*
X89527226Y-107667438D01*
X89462193Y-107634230D01*
X89455085Y-107632491D01*
X89449442Y-107630392D01*
X89443679Y-107628475D01*
X89437051Y-107625377D01*
X89365584Y-107610512D01*
X89361300Y-107609542D01*
X89290391Y-107592191D01*
X89284789Y-107591843D01*
X89284786Y-107591843D01*
X89279237Y-107591499D01*
X89279239Y-107591463D01*
X89275246Y-107591224D01*
X89271054Y-107590850D01*
X89263886Y-107589359D01*
X89200121Y-107591084D01*
X89186480Y-107591453D01*
X89183073Y-107591499D01*
X78517071Y-107591499D01*
X78498121Y-107590066D01*
X78483886Y-107587900D01*
X78483882Y-107587900D01*
X78476652Y-107586800D01*
X78469360Y-107587393D01*
X78469357Y-107587393D01*
X78423983Y-107591084D01*
X78413768Y-107591499D01*
X78405708Y-107591499D01*
X78402074Y-107591923D01*
X78402068Y-107591923D01*
X78389043Y-107593442D01*
X78377481Y-107594790D01*
X78373133Y-107595220D01*
X78300365Y-107601139D01*
X78293404Y-107603394D01*
X78287464Y-107604581D01*
X78281589Y-107605970D01*
X78274320Y-107606817D01*
X78205671Y-107631735D01*
X78201543Y-107633152D01*
X78139065Y-107653392D01*
X78139063Y-107653393D01*
X78132102Y-107655648D01*
X78125847Y-107659444D01*
X78120373Y-107661950D01*
X78114943Y-107664669D01*
X78108064Y-107667166D01*
X78101944Y-107671179D01*
X78101943Y-107671179D01*
X78047025Y-107707185D01*
X78043321Y-107709522D01*
X77980894Y-107747404D01*
X77972517Y-107754802D01*
X77972493Y-107754775D01*
X77969501Y-107757428D01*
X77966268Y-107760131D01*
X77960149Y-107764143D01*
X77931942Y-107793919D01*
X77906873Y-107820382D01*
X77904495Y-107822824D01*
X77435907Y-108291412D01*
X77373595Y-108325438D01*
X77317398Y-108324836D01*
X77241524Y-108306620D01*
X77241518Y-108306619D01*
X77236711Y-108305465D01*
X77000000Y-108286835D01*
X76763289Y-108305465D01*
X76758482Y-108306619D01*
X76758476Y-108306620D01*
X76643686Y-108334179D01*
X76532406Y-108360895D01*
X76527835Y-108362788D01*
X76527833Y-108362789D01*
X76317611Y-108449865D01*
X76317607Y-108449867D01*
X76313037Y-108451760D01*
X76308817Y-108454346D01*
X76114798Y-108573241D01*
X76114792Y-108573245D01*
X76110584Y-108575824D01*
X75930031Y-108730031D01*
X75775824Y-108910584D01*
X75744010Y-108962500D01*
X75732467Y-108981336D01*
X75679819Y-109028967D01*
X75625035Y-109041500D01*
X71874965Y-109041500D01*
X71806844Y-109021498D01*
X71767533Y-108981336D01*
X71755990Y-108962500D01*
X71724176Y-108910584D01*
X71569969Y-108730031D01*
X71389416Y-108575824D01*
X71385208Y-108573245D01*
X71385202Y-108573241D01*
X71191183Y-108454346D01*
X71186963Y-108451760D01*
X71182393Y-108449867D01*
X71182389Y-108449865D01*
X70972167Y-108362789D01*
X70972165Y-108362788D01*
X70967594Y-108360895D01*
X70856314Y-108334179D01*
X70741524Y-108306620D01*
X70741518Y-108306619D01*
X70736711Y-108305465D01*
X70500000Y-108286835D01*
X70263289Y-108305465D01*
X70258482Y-108306619D01*
X70258476Y-108306620D01*
X70143686Y-108334179D01*
X70032406Y-108360895D01*
X70027835Y-108362788D01*
X70027833Y-108362789D01*
X69817611Y-108449865D01*
X69817607Y-108449867D01*
X69813037Y-108451760D01*
X69808817Y-108454346D01*
X69614798Y-108573241D01*
X69614792Y-108573245D01*
X69610584Y-108575824D01*
X69430031Y-108730031D01*
X69275824Y-108910584D01*
X69273245Y-108914792D01*
X69273241Y-108914798D01*
X69195598Y-109041500D01*
X69151760Y-109113037D01*
X69149867Y-109117607D01*
X69149865Y-109117611D01*
X69067853Y-109315607D01*
X69060895Y-109332406D01*
X69046539Y-109392204D01*
X69006791Y-109557767D01*
X69005465Y-109563289D01*
X68986835Y-109800000D01*
X69005465Y-110036711D01*
X69006619Y-110041518D01*
X69006620Y-110041524D01*
X69021225Y-110102357D01*
X69060895Y-110267594D01*
X69062788Y-110272165D01*
X69062789Y-110272167D01*
X69130165Y-110434827D01*
X69151760Y-110486963D01*
X69154346Y-110491183D01*
X69273241Y-110685202D01*
X69273245Y-110685208D01*
X69275824Y-110689416D01*
X69382494Y-110814310D01*
X69416818Y-110854498D01*
X69430031Y-110869969D01*
X69610584Y-111024176D01*
X69614792Y-111026755D01*
X69614798Y-111026759D01*
X69808817Y-111145654D01*
X69813037Y-111148240D01*
X69817607Y-111150133D01*
X69817611Y-111150135D01*
X70027833Y-111237211D01*
X70032406Y-111239105D01*
X70112609Y-111258360D01*
X70258476Y-111293380D01*
X70258482Y-111293381D01*
X70263289Y-111294535D01*
X70500000Y-111313165D01*
X70736711Y-111294535D01*
X70741518Y-111293381D01*
X70741524Y-111293380D01*
X70887391Y-111258360D01*
X70967594Y-111239105D01*
X70972167Y-111237211D01*
X71182389Y-111150135D01*
X71182393Y-111150133D01*
X71186963Y-111148240D01*
X71191183Y-111145654D01*
X71385202Y-111026759D01*
X71385208Y-111026755D01*
X71389416Y-111024176D01*
X71569969Y-110869969D01*
X71583183Y-110854498D01*
X71720963Y-110693178D01*
X71724176Y-110689416D01*
X71767533Y-110618664D01*
X71820181Y-110571033D01*
X71874965Y-110558500D01*
X75625035Y-110558500D01*
X75693156Y-110578502D01*
X75732466Y-110618663D01*
X75775824Y-110689416D01*
X75779037Y-110693178D01*
X75916818Y-110854498D01*
X75930031Y-110869969D01*
X76110584Y-111024176D01*
X76114792Y-111026755D01*
X76114798Y-111026759D01*
X76308817Y-111145654D01*
X76313037Y-111148240D01*
X76317607Y-111150133D01*
X76317611Y-111150135D01*
X76527833Y-111237211D01*
X76532406Y-111239105D01*
X76612609Y-111258360D01*
X76758476Y-111293380D01*
X76758482Y-111293381D01*
X76763289Y-111294535D01*
X77000000Y-111313165D01*
X77236711Y-111294535D01*
X77241518Y-111293381D01*
X77241524Y-111293380D01*
X77387391Y-111258360D01*
X77467594Y-111239105D01*
X77472167Y-111237211D01*
X77682389Y-111150135D01*
X77682393Y-111150133D01*
X77686963Y-111148240D01*
X77691183Y-111145654D01*
X77885202Y-111026759D01*
X77885208Y-111026755D01*
X77889416Y-111024176D01*
X78069969Y-110869969D01*
X78083183Y-110854498D01*
X78117506Y-110814310D01*
X78224176Y-110689416D01*
X78226755Y-110685208D01*
X78226759Y-110685202D01*
X78345654Y-110491183D01*
X78348240Y-110486963D01*
X78369836Y-110434827D01*
X78437211Y-110272167D01*
X78437212Y-110272165D01*
X78439105Y-110267594D01*
X78478775Y-110102357D01*
X78493380Y-110041524D01*
X78493381Y-110041518D01*
X78494535Y-110036711D01*
X78513165Y-109800000D01*
X78494535Y-109563289D01*
X78493381Y-109558482D01*
X78493380Y-109558476D01*
X78475164Y-109482602D01*
X78478711Y-109411694D01*
X78508588Y-109364093D01*
X78727277Y-109145404D01*
X78789589Y-109111378D01*
X78816372Y-109108499D01*
X80465068Y-109108499D01*
X80533189Y-109128501D01*
X80579682Y-109182157D01*
X80589786Y-109252431D01*
X80581478Y-109282715D01*
X80560895Y-109332406D01*
X80546539Y-109392204D01*
X80506791Y-109557767D01*
X80505465Y-109563289D01*
X80486835Y-109800000D01*
X80505465Y-110036711D01*
X80506619Y-110041518D01*
X80506620Y-110041524D01*
X80521225Y-110102357D01*
X80560895Y-110267594D01*
X80562788Y-110272165D01*
X80562789Y-110272167D01*
X80630165Y-110434827D01*
X80651760Y-110486963D01*
X80654346Y-110491183D01*
X80773241Y-110685202D01*
X80773245Y-110685208D01*
X80775824Y-110689416D01*
X80882494Y-110814310D01*
X80916818Y-110854498D01*
X80930031Y-110869969D01*
X81110584Y-111024176D01*
X81114792Y-111026755D01*
X81114798Y-111026759D01*
X81308817Y-111145654D01*
X81313037Y-111148240D01*
X81317607Y-111150133D01*
X81317611Y-111150135D01*
X81527833Y-111237211D01*
X81532406Y-111239105D01*
X81612609Y-111258360D01*
X81758476Y-111293380D01*
X81758482Y-111293381D01*
X81763289Y-111294535D01*
X82000000Y-111313165D01*
X82236711Y-111294535D01*
X82241518Y-111293381D01*
X82241524Y-111293380D01*
X82387391Y-111258360D01*
X82467594Y-111239105D01*
X82472167Y-111237211D01*
X82682389Y-111150135D01*
X82682393Y-111150133D01*
X82686963Y-111148240D01*
X82691183Y-111145654D01*
X82885202Y-111026759D01*
X82885208Y-111026755D01*
X82889416Y-111024176D01*
X83069969Y-110869969D01*
X83083183Y-110854498D01*
X83220963Y-110693178D01*
X83224176Y-110689416D01*
X83267533Y-110618664D01*
X83320181Y-110571033D01*
X83374965Y-110558500D01*
X87125035Y-110558500D01*
X87193156Y-110578502D01*
X87232466Y-110618663D01*
X87275824Y-110689416D01*
X87279037Y-110693178D01*
X87416818Y-110854498D01*
X87430031Y-110869969D01*
X87610584Y-111024176D01*
X87614792Y-111026755D01*
X87614798Y-111026759D01*
X87808817Y-111145654D01*
X87813037Y-111148240D01*
X87817607Y-111150133D01*
X87817611Y-111150135D01*
X88027833Y-111237211D01*
X88032406Y-111239105D01*
X88112609Y-111258360D01*
X88258476Y-111293380D01*
X88258482Y-111293381D01*
X88263289Y-111294535D01*
X88500000Y-111313165D01*
X88736711Y-111294535D01*
X88741518Y-111293381D01*
X88741524Y-111293380D01*
X88887391Y-111258360D01*
X88967594Y-111239105D01*
X88972167Y-111237211D01*
X89182389Y-111150135D01*
X89182393Y-111150133D01*
X89186963Y-111148240D01*
X89191183Y-111145654D01*
X89385202Y-111026759D01*
X89385208Y-111026755D01*
X89389416Y-111024176D01*
X89569969Y-110869969D01*
X89583183Y-110854498D01*
X89720963Y-110693178D01*
X89724176Y-110689416D01*
X89767533Y-110618664D01*
X89820181Y-110571033D01*
X89874965Y-110558500D01*
X104099629Y-110558500D01*
X104167750Y-110578502D01*
X104188724Y-110595405D01*
X104963329Y-111370010D01*
X104997355Y-111432322D01*
X104999755Y-111470087D01*
X104985502Y-111633000D01*
X105005457Y-111861087D01*
X105064716Y-112082243D01*
X105067039Y-112087224D01*
X105067039Y-112087225D01*
X105159151Y-112284762D01*
X105159154Y-112284767D01*
X105161477Y-112289749D01*
X105292802Y-112477300D01*
X105454700Y-112639198D01*
X105459208Y-112642355D01*
X105459211Y-112642357D01*
X105537389Y-112697098D01*
X105642251Y-112770523D01*
X105647233Y-112772846D01*
X105647238Y-112772849D01*
X105682049Y-112789081D01*
X105735334Y-112835998D01*
X105754795Y-112904275D01*
X105734253Y-112972235D01*
X105682049Y-113017471D01*
X105647489Y-113033586D01*
X105637993Y-113039069D01*
X105459533Y-113164028D01*
X105451125Y-113171084D01*
X105297084Y-113325125D01*
X105290028Y-113333533D01*
X105165069Y-113511993D01*
X105159586Y-113521489D01*
X105067510Y-113718947D01*
X105063764Y-113729239D01*
X105017606Y-113901503D01*
X105017942Y-113915599D01*
X105025884Y-113919000D01*
X107566967Y-113919000D01*
X107580498Y-113915027D01*
X107581727Y-113906478D01*
X107534236Y-113729239D01*
X107530490Y-113718947D01*
X107438414Y-113521489D01*
X107432931Y-113511993D01*
X107307972Y-113333533D01*
X107300916Y-113325125D01*
X107146875Y-113171084D01*
X107138467Y-113164028D01*
X106960007Y-113039069D01*
X106950511Y-113033586D01*
X106915951Y-113017471D01*
X106862666Y-112970554D01*
X106843205Y-112902277D01*
X106863747Y-112834317D01*
X106915951Y-112789081D01*
X106950762Y-112772849D01*
X106950767Y-112772846D01*
X106955749Y-112770523D01*
X107060611Y-112697098D01*
X107138789Y-112642357D01*
X107138792Y-112642355D01*
X107143300Y-112639198D01*
X107305198Y-112477300D01*
X107436523Y-112289749D01*
X107438846Y-112284767D01*
X107438849Y-112284762D01*
X107530961Y-112087225D01*
X107530961Y-112087224D01*
X107533284Y-112082243D01*
X107592543Y-111861087D01*
X107612498Y-111633000D01*
X107592543Y-111404913D01*
X107533284Y-111183757D01*
X107516722Y-111148240D01*
X107438849Y-110981238D01*
X107438846Y-110981233D01*
X107436523Y-110976251D01*
X107332355Y-110827484D01*
X107308357Y-110793211D01*
X107308355Y-110793208D01*
X107305198Y-110788700D01*
X107143300Y-110626802D01*
X107138792Y-110623645D01*
X107138789Y-110623643D01*
X107008699Y-110532553D01*
X106955749Y-110495477D01*
X106950767Y-110493154D01*
X106950762Y-110493151D01*
X106916543Y-110477195D01*
X106863258Y-110430278D01*
X106843797Y-110362001D01*
X106864339Y-110294041D01*
X106916543Y-110248805D01*
X106950762Y-110232849D01*
X106950767Y-110232846D01*
X106955749Y-110230523D01*
X107136598Y-110103891D01*
X107138789Y-110102357D01*
X107138792Y-110102355D01*
X107143300Y-110099198D01*
X107305198Y-109937300D01*
X107332623Y-109898134D01*
X107367579Y-109848211D01*
X107436523Y-109749749D01*
X107438846Y-109744767D01*
X107438849Y-109744762D01*
X107530961Y-109547225D01*
X107530961Y-109547224D01*
X107533284Y-109542243D01*
X107553038Y-109468523D01*
X107591119Y-109326402D01*
X107591119Y-109326400D01*
X107592543Y-109321087D01*
X107612498Y-109093000D01*
X107592543Y-108864913D01*
X107533284Y-108643757D01*
X107500402Y-108573241D01*
X107438849Y-108441238D01*
X107438846Y-108441233D01*
X107436523Y-108436251D01*
X107345754Y-108306620D01*
X107308357Y-108253211D01*
X107308355Y-108253208D01*
X107305198Y-108248700D01*
X107143300Y-108086802D01*
X107138792Y-108083645D01*
X107138789Y-108083643D01*
X107059021Y-108027789D01*
X106955749Y-107955477D01*
X106950767Y-107953154D01*
X106950762Y-107953151D01*
X106916543Y-107937195D01*
X106863258Y-107890278D01*
X106843797Y-107822001D01*
X106864339Y-107754041D01*
X106916543Y-107708805D01*
X106950762Y-107692849D01*
X106950767Y-107692846D01*
X106955749Y-107690523D01*
X107092108Y-107595043D01*
X107138789Y-107562357D01*
X107138792Y-107562355D01*
X107143300Y-107559198D01*
X107305198Y-107397300D01*
X107311752Y-107387941D01*
X107367579Y-107308211D01*
X107436523Y-107209749D01*
X107438846Y-107204767D01*
X107438849Y-107204762D01*
X107530961Y-107007225D01*
X107530961Y-107007224D01*
X107533284Y-107002243D01*
X107544627Y-106959913D01*
X107591119Y-106786402D01*
X107591119Y-106786400D01*
X107592543Y-106781087D01*
X107612498Y-106553000D01*
X107592543Y-106324913D01*
X107576411Y-106264707D01*
X107534707Y-106109067D01*
X107534706Y-106109065D01*
X107533284Y-106103757D01*
X107530961Y-106098775D01*
X107438849Y-105901238D01*
X107438846Y-105901233D01*
X107436523Y-105896251D01*
X107305198Y-105708700D01*
X107143300Y-105546802D01*
X107138792Y-105543645D01*
X107138789Y-105543643D01*
X107035838Y-105471556D01*
X106955749Y-105415477D01*
X106950767Y-105413154D01*
X106950762Y-105413151D01*
X106916543Y-105397195D01*
X106863258Y-105350278D01*
X106843797Y-105282001D01*
X106864339Y-105214041D01*
X106916543Y-105168805D01*
X106950762Y-105152849D01*
X106950767Y-105152846D01*
X106955749Y-105150523D01*
X107060611Y-105077098D01*
X107138789Y-105022357D01*
X107138792Y-105022355D01*
X107143300Y-105019198D01*
X107305198Y-104857300D01*
X107436523Y-104669749D01*
X107438846Y-104664767D01*
X107438849Y-104664762D01*
X107530961Y-104467225D01*
X107530961Y-104467224D01*
X107533284Y-104462243D01*
X107557398Y-104372251D01*
X107591119Y-104246402D01*
X107591119Y-104246400D01*
X107592543Y-104241087D01*
X107612498Y-104013000D01*
X107592543Y-103784913D01*
X107588413Y-103769500D01*
X107534707Y-103569067D01*
X107534706Y-103569065D01*
X107533284Y-103563757D01*
X107492341Y-103475954D01*
X107438849Y-103361238D01*
X107438846Y-103361233D01*
X107436523Y-103356251D01*
X107335957Y-103212628D01*
X107308357Y-103173211D01*
X107308355Y-103173208D01*
X107305198Y-103168700D01*
X107143300Y-103006802D01*
X107138792Y-103003645D01*
X107138789Y-103003643D01*
X107036333Y-102931903D01*
X106955749Y-102875477D01*
X106950767Y-102873154D01*
X106950762Y-102873151D01*
X106916543Y-102857195D01*
X106863258Y-102810278D01*
X106843797Y-102742001D01*
X106864339Y-102674041D01*
X106916543Y-102628805D01*
X106950762Y-102612849D01*
X106950767Y-102612846D01*
X106955749Y-102610523D01*
X107094790Y-102513165D01*
X107138789Y-102482357D01*
X107138792Y-102482355D01*
X107143300Y-102479198D01*
X107305198Y-102317300D01*
X107436523Y-102129749D01*
X107438846Y-102124767D01*
X107438849Y-102124762D01*
X107530961Y-101927225D01*
X107530961Y-101927224D01*
X107533284Y-101922243D01*
X107538937Y-101901148D01*
X107591119Y-101706402D01*
X107591119Y-101706400D01*
X107592543Y-101701087D01*
X107612498Y-101473000D01*
X107592543Y-101244913D01*
X107581876Y-101205102D01*
X107534707Y-101029067D01*
X107534706Y-101029065D01*
X107533284Y-101023757D01*
X107493677Y-100938819D01*
X107438849Y-100821238D01*
X107438846Y-100821233D01*
X107436523Y-100816251D01*
X107356804Y-100702401D01*
X107308357Y-100633211D01*
X107308355Y-100633208D01*
X107305198Y-100628700D01*
X107143300Y-100466802D01*
X107138792Y-100463645D01*
X107138789Y-100463643D01*
X107060611Y-100408902D01*
X106955749Y-100335477D01*
X106950767Y-100333154D01*
X106950762Y-100333151D01*
X106916543Y-100317195D01*
X106863258Y-100270278D01*
X106843797Y-100202001D01*
X106864339Y-100134041D01*
X106916543Y-100088805D01*
X106950762Y-100072849D01*
X106950767Y-100072846D01*
X106955749Y-100070523D01*
X107106668Y-99964848D01*
X107138789Y-99942357D01*
X107138792Y-99942355D01*
X107143300Y-99939198D01*
X107305198Y-99777300D01*
X107310911Y-99769142D01*
X107367579Y-99688211D01*
X107436523Y-99589749D01*
X107438846Y-99584767D01*
X107438849Y-99584762D01*
X107530961Y-99387225D01*
X107530961Y-99387224D01*
X107533284Y-99382243D01*
X107575314Y-99225388D01*
X107591119Y-99166402D01*
X107591119Y-99166400D01*
X107592543Y-99161087D01*
X107612498Y-98933000D01*
X107592543Y-98704913D01*
X107572569Y-98630369D01*
X107534707Y-98489067D01*
X107534706Y-98489065D01*
X107533284Y-98483757D01*
X107530961Y-98478775D01*
X107438849Y-98281238D01*
X107438846Y-98281233D01*
X107436523Y-98276251D01*
X107327654Y-98120770D01*
X107308357Y-98093211D01*
X107308355Y-98093208D01*
X107305198Y-98088700D01*
X107143300Y-97926802D01*
X107138789Y-97923643D01*
X107134576Y-97920108D01*
X107135527Y-97918974D01*
X107095529Y-97868929D01*
X107088224Y-97798310D01*
X107120258Y-97734951D01*
X107181462Y-97698970D01*
X107198517Y-97695918D01*
X107209316Y-97694745D01*
X107345705Y-97643615D01*
X107462261Y-97556261D01*
X107549615Y-97439705D01*
X107600745Y-97303316D01*
X107607500Y-97241134D01*
X107607500Y-96538371D01*
X107627502Y-96470250D01*
X107681158Y-96423757D01*
X107751432Y-96413653D01*
X107816012Y-96443147D01*
X107822595Y-96449276D01*
X112583329Y-101210010D01*
X112617355Y-101272322D01*
X112619755Y-101310087D01*
X112613344Y-101383365D01*
X112605502Y-101473000D01*
X112625457Y-101701087D01*
X112626881Y-101706400D01*
X112626881Y-101706402D01*
X112679064Y-101901148D01*
X112684716Y-101922243D01*
X112687039Y-101927224D01*
X112687039Y-101927225D01*
X112779151Y-102124762D01*
X112779154Y-102124767D01*
X112781477Y-102129749D01*
X112912802Y-102317300D01*
X113074700Y-102479198D01*
X113079208Y-102482355D01*
X113079211Y-102482357D01*
X113123210Y-102513165D01*
X113262251Y-102610523D01*
X113267233Y-102612846D01*
X113267238Y-102612849D01*
X113301457Y-102628805D01*
X113354742Y-102675722D01*
X113374203Y-102743999D01*
X113353661Y-102811959D01*
X113301457Y-102857195D01*
X113267238Y-102873151D01*
X113267233Y-102873154D01*
X113262251Y-102875477D01*
X113181667Y-102931903D01*
X113079211Y-103003643D01*
X113079208Y-103003645D01*
X113074700Y-103006802D01*
X112912802Y-103168700D01*
X112909645Y-103173208D01*
X112909643Y-103173211D01*
X112882043Y-103212628D01*
X112781477Y-103356251D01*
X112779154Y-103361233D01*
X112779151Y-103361238D01*
X112725659Y-103475954D01*
X112684716Y-103563757D01*
X112683294Y-103569065D01*
X112683293Y-103569067D01*
X112629587Y-103769500D01*
X112625457Y-103784913D01*
X112605502Y-104013000D01*
X112625457Y-104241087D01*
X112626881Y-104246400D01*
X112626881Y-104246402D01*
X112660603Y-104372251D01*
X112684716Y-104462243D01*
X112687039Y-104467224D01*
X112687039Y-104467225D01*
X112779151Y-104664762D01*
X112779154Y-104664767D01*
X112781477Y-104669749D01*
X112912802Y-104857300D01*
X113074700Y-105019198D01*
X113079208Y-105022355D01*
X113079211Y-105022357D01*
X113157389Y-105077098D01*
X113262251Y-105150523D01*
X113267233Y-105152846D01*
X113267238Y-105152849D01*
X113301457Y-105168805D01*
X113354742Y-105215722D01*
X113374203Y-105283999D01*
X113353661Y-105351959D01*
X113301457Y-105397195D01*
X113267238Y-105413151D01*
X113267233Y-105413154D01*
X113262251Y-105415477D01*
X113182162Y-105471556D01*
X113079211Y-105543643D01*
X113079208Y-105543645D01*
X113074700Y-105546802D01*
X112912802Y-105708700D01*
X112781477Y-105896251D01*
X112779154Y-105901233D01*
X112779151Y-105901238D01*
X112687039Y-106098775D01*
X112684716Y-106103757D01*
X112683294Y-106109065D01*
X112683293Y-106109067D01*
X112641589Y-106264707D01*
X112625457Y-106324913D01*
X112605502Y-106553000D01*
X112625457Y-106781087D01*
X112626881Y-106786400D01*
X112626881Y-106786402D01*
X112673374Y-106959913D01*
X112684716Y-107002243D01*
X112687039Y-107007224D01*
X112687039Y-107007225D01*
X112779151Y-107204762D01*
X112779154Y-107204767D01*
X112781477Y-107209749D01*
X112850421Y-107308211D01*
X112906249Y-107387941D01*
X112912802Y-107397300D01*
X113074700Y-107559198D01*
X113079208Y-107562355D01*
X113079211Y-107562357D01*
X113125892Y-107595043D01*
X113262251Y-107690523D01*
X113267233Y-107692846D01*
X113267238Y-107692849D01*
X113301457Y-107708805D01*
X113354742Y-107755722D01*
X113374203Y-107823999D01*
X113353661Y-107891959D01*
X113301457Y-107937195D01*
X113267238Y-107953151D01*
X113267233Y-107953154D01*
X113262251Y-107955477D01*
X113158979Y-108027789D01*
X113079211Y-108083643D01*
X113079208Y-108083645D01*
X113074700Y-108086802D01*
X112912802Y-108248700D01*
X112909645Y-108253208D01*
X112909643Y-108253211D01*
X112872246Y-108306620D01*
X112781477Y-108436251D01*
X112779154Y-108441233D01*
X112779151Y-108441238D01*
X112717598Y-108573241D01*
X112684716Y-108643757D01*
X112625457Y-108864913D01*
X112605502Y-109093000D01*
X112625457Y-109321087D01*
X112626881Y-109326400D01*
X112626881Y-109326402D01*
X112664963Y-109468523D01*
X112684716Y-109542243D01*
X112687039Y-109547224D01*
X112687039Y-109547225D01*
X112779151Y-109744762D01*
X112779154Y-109744767D01*
X112781477Y-109749749D01*
X112850421Y-109848211D01*
X112885378Y-109898134D01*
X112912802Y-109937300D01*
X113074700Y-110099198D01*
X113079208Y-110102355D01*
X113079211Y-110102357D01*
X113081402Y-110103891D01*
X113262251Y-110230523D01*
X113267233Y-110232846D01*
X113267238Y-110232849D01*
X113301457Y-110248805D01*
X113354742Y-110295722D01*
X113374203Y-110363999D01*
X113353661Y-110431959D01*
X113301457Y-110477195D01*
X113267238Y-110493151D01*
X113267233Y-110493154D01*
X113262251Y-110495477D01*
X113209301Y-110532553D01*
X113079211Y-110623643D01*
X113079208Y-110623645D01*
X113074700Y-110626802D01*
X112912802Y-110788700D01*
X112909645Y-110793208D01*
X112909643Y-110793211D01*
X112885645Y-110827484D01*
X112781477Y-110976251D01*
X112779154Y-110981233D01*
X112779151Y-110981238D01*
X112701278Y-111148240D01*
X112684716Y-111183757D01*
X112625457Y-111404913D01*
X112605502Y-111633000D01*
X112625457Y-111861087D01*
X112684716Y-112082243D01*
X112687039Y-112087224D01*
X112687039Y-112087225D01*
X112779151Y-112284762D01*
X112779154Y-112284767D01*
X112781477Y-112289749D01*
X112912802Y-112477300D01*
X113074700Y-112639198D01*
X113079208Y-112642355D01*
X113079211Y-112642357D01*
X113157389Y-112697098D01*
X113262251Y-112770523D01*
X113267233Y-112772846D01*
X113267238Y-112772849D01*
X113301457Y-112788805D01*
X113354742Y-112835722D01*
X113374203Y-112903999D01*
X113353661Y-112971959D01*
X113301457Y-113017195D01*
X113267238Y-113033151D01*
X113267233Y-113033154D01*
X113262251Y-113035477D01*
X113215961Y-113067890D01*
X113079211Y-113163643D01*
X113079208Y-113163645D01*
X113074700Y-113166802D01*
X112912802Y-113328700D01*
X112781477Y-113516251D01*
X112779154Y-113521233D01*
X112779151Y-113521238D01*
X112696124Y-113699293D01*
X112684716Y-113723757D01*
X112683294Y-113729065D01*
X112683293Y-113729067D01*
X112627535Y-113937156D01*
X112625457Y-113944913D01*
X112605502Y-114173000D01*
X112625457Y-114401087D01*
X112626881Y-114406400D01*
X112626881Y-114406402D01*
X112679866Y-114604141D01*
X112684716Y-114622243D01*
X112687039Y-114627224D01*
X112687039Y-114627225D01*
X112779151Y-114824762D01*
X112779154Y-114824767D01*
X112781477Y-114829749D01*
X112784634Y-114834257D01*
X112906765Y-115008678D01*
X112912802Y-115017300D01*
X113074700Y-115179198D01*
X113079208Y-115182355D01*
X113079211Y-115182357D01*
X113092270Y-115191501D01*
X113262251Y-115310523D01*
X113267233Y-115312846D01*
X113267238Y-115312849D01*
X113424769Y-115386306D01*
X113478054Y-115433223D01*
X113497515Y-115501500D01*
X113476973Y-115569460D01*
X113422951Y-115615526D01*
X113371519Y-115626501D01*
X106845298Y-115626501D01*
X106777177Y-115606499D01*
X106730684Y-115552843D01*
X106720580Y-115482569D01*
X106750074Y-115417989D01*
X106792048Y-115386306D01*
X106950511Y-115312414D01*
X106960007Y-115306931D01*
X107138467Y-115181972D01*
X107146875Y-115174916D01*
X107300916Y-115020875D01*
X107307972Y-115012467D01*
X107432931Y-114834007D01*
X107438414Y-114824511D01*
X107530490Y-114627053D01*
X107534236Y-114616761D01*
X107580394Y-114444497D01*
X107580058Y-114430401D01*
X107572116Y-114427000D01*
X105031033Y-114427000D01*
X105017502Y-114430973D01*
X105016273Y-114439522D01*
X105063764Y-114616761D01*
X105067510Y-114627053D01*
X105159586Y-114824511D01*
X105165069Y-114834007D01*
X105290028Y-115012467D01*
X105297084Y-115020875D01*
X105451125Y-115174916D01*
X105459533Y-115181972D01*
X105637993Y-115306931D01*
X105647489Y-115312414D01*
X105805952Y-115386306D01*
X105859237Y-115433223D01*
X105878698Y-115501501D01*
X105858156Y-115569461D01*
X105804133Y-115615526D01*
X105752702Y-115626501D01*
X103073372Y-115626501D01*
X103005251Y-115606499D01*
X102984277Y-115589596D01*
X102465671Y-115070990D01*
X102431645Y-115008678D01*
X102429245Y-114970913D01*
X102443019Y-114813475D01*
X102443498Y-114808000D01*
X102423543Y-114579913D01*
X102395865Y-114476617D01*
X102365707Y-114364067D01*
X102365706Y-114364065D01*
X102364284Y-114358757D01*
X102339184Y-114304930D01*
X102269849Y-114156238D01*
X102269846Y-114156233D01*
X102267523Y-114151251D01*
X102136198Y-113963700D01*
X101974300Y-113801802D01*
X101969792Y-113798645D01*
X101969789Y-113798643D01*
X101891611Y-113743902D01*
X101786749Y-113670477D01*
X101781767Y-113668154D01*
X101781762Y-113668151D01*
X101584225Y-113576039D01*
X101584224Y-113576039D01*
X101579243Y-113573716D01*
X101573935Y-113572294D01*
X101573933Y-113572293D01*
X101363402Y-113515881D01*
X101363400Y-113515881D01*
X101358087Y-113514457D01*
X101130000Y-113494502D01*
X100901913Y-113514457D01*
X100896600Y-113515881D01*
X100896598Y-113515881D01*
X100686067Y-113572293D01*
X100686065Y-113572294D01*
X100680757Y-113573716D01*
X100675776Y-113576039D01*
X100675775Y-113576039D01*
X100478238Y-113668151D01*
X100478233Y-113668154D01*
X100473251Y-113670477D01*
X100368389Y-113743902D01*
X100290211Y-113798643D01*
X100290208Y-113798645D01*
X100285700Y-113801802D01*
X100123802Y-113963700D01*
X100101345Y-113995771D01*
X100045890Y-114040099D01*
X99998133Y-114049500D01*
X98959867Y-114049500D01*
X98891746Y-114029498D01*
X98856655Y-113995772D01*
X98834198Y-113963700D01*
X98672300Y-113801802D01*
X98667792Y-113798645D01*
X98667789Y-113798643D01*
X98589611Y-113743902D01*
X98484749Y-113670477D01*
X98479767Y-113668154D01*
X98479762Y-113668151D01*
X98282225Y-113576039D01*
X98282224Y-113576039D01*
X98277243Y-113573716D01*
X98271935Y-113572294D01*
X98271933Y-113572293D01*
X98061402Y-113515881D01*
X98061400Y-113515881D01*
X98056087Y-113514457D01*
X97828000Y-113494502D01*
X97599913Y-113514457D01*
X97594600Y-113515881D01*
X97594598Y-113515881D01*
X97384067Y-113572293D01*
X97384065Y-113572294D01*
X97378757Y-113573716D01*
X97373776Y-113576039D01*
X97373775Y-113576039D01*
X97176238Y-113668151D01*
X97176233Y-113668154D01*
X97171251Y-113670477D01*
X97066389Y-113743902D01*
X96988211Y-113798643D01*
X96988208Y-113798645D01*
X96983700Y-113801802D01*
X96821802Y-113963700D01*
X96799345Y-113995771D01*
X96743890Y-114040099D01*
X96696133Y-114049500D01*
X95657867Y-114049500D01*
X95589746Y-114029498D01*
X95554655Y-113995772D01*
X95532198Y-113963700D01*
X95370300Y-113801802D01*
X95365792Y-113798645D01*
X95365789Y-113798643D01*
X95287611Y-113743902D01*
X95182749Y-113670477D01*
X95177767Y-113668154D01*
X95177762Y-113668151D01*
X94980225Y-113576039D01*
X94980224Y-113576039D01*
X94975243Y-113573716D01*
X94969935Y-113572294D01*
X94969933Y-113572293D01*
X94759402Y-113515881D01*
X94759400Y-113515881D01*
X94754087Y-113514457D01*
X94526000Y-113494502D01*
X94297913Y-113514457D01*
X94292600Y-113515881D01*
X94292598Y-113515881D01*
X94082067Y-113572293D01*
X94082065Y-113572294D01*
X94076757Y-113573716D01*
X94071776Y-113576039D01*
X94071775Y-113576039D01*
X93874238Y-113668151D01*
X93874233Y-113668154D01*
X93869251Y-113670477D01*
X93764389Y-113743902D01*
X93686211Y-113798643D01*
X93686208Y-113798645D01*
X93681700Y-113801802D01*
X93519802Y-113963700D01*
X93388477Y-114151251D01*
X93386154Y-114156233D01*
X93386151Y-114156238D01*
X93316816Y-114304930D01*
X93291716Y-114358757D01*
X93290294Y-114364065D01*
X93290293Y-114364067D01*
X93260135Y-114476617D01*
X93232457Y-114579913D01*
X93212502Y-114808000D01*
X93212981Y-114813475D01*
X93226755Y-114970913D01*
X93212766Y-115040518D01*
X93190329Y-115070990D01*
X93106723Y-115154596D01*
X93044411Y-115188622D01*
X93017628Y-115191501D01*
X89947301Y-115191501D01*
X89879180Y-115171499D01*
X89832687Y-115117843D01*
X89822583Y-115047569D01*
X89839868Y-114999667D01*
X89845207Y-114990955D01*
X89849687Y-114982163D01*
X89936734Y-114772012D01*
X89939783Y-114762627D01*
X89992885Y-114541446D01*
X89994428Y-114531699D01*
X90012275Y-114304930D01*
X90012275Y-114295070D01*
X89994428Y-114068301D01*
X89992885Y-114058554D01*
X89939783Y-113837373D01*
X89936734Y-113827988D01*
X89849687Y-113617837D01*
X89845205Y-113609042D01*
X89742568Y-113441555D01*
X89732110Y-113432093D01*
X89723334Y-113435876D01*
X88589095Y-114570115D01*
X88526783Y-114604141D01*
X88455968Y-114599076D01*
X88410905Y-114570115D01*
X87279710Y-113438920D01*
X87267330Y-113432160D01*
X87259680Y-113437887D01*
X87154795Y-113609042D01*
X87150313Y-113617837D01*
X87063266Y-113827988D01*
X87060217Y-113837373D01*
X87007115Y-114058554D01*
X87005572Y-114068301D01*
X86987725Y-114295070D01*
X86987725Y-114304930D01*
X87005572Y-114531699D01*
X87007115Y-114541446D01*
X87060217Y-114762627D01*
X87063266Y-114772012D01*
X87150313Y-114982163D01*
X87154793Y-114990955D01*
X87160132Y-114999667D01*
X87178670Y-115068201D01*
X87157213Y-115135877D01*
X87102574Y-115181210D01*
X87052699Y-115191501D01*
X83447301Y-115191501D01*
X83379180Y-115171499D01*
X83332687Y-115117843D01*
X83322583Y-115047569D01*
X83339868Y-114999667D01*
X83345207Y-114990955D01*
X83349687Y-114982163D01*
X83436734Y-114772012D01*
X83439783Y-114762627D01*
X83492885Y-114541446D01*
X83494428Y-114531699D01*
X83512275Y-114304930D01*
X83512275Y-114295070D01*
X83494428Y-114068301D01*
X83492885Y-114058554D01*
X83439783Y-113837373D01*
X83436734Y-113827988D01*
X83349687Y-113617837D01*
X83345205Y-113609042D01*
X83242568Y-113441555D01*
X83232110Y-113432093D01*
X83223334Y-113435876D01*
X82089095Y-114570115D01*
X82026783Y-114604141D01*
X81955968Y-114599076D01*
X81910905Y-114570115D01*
X80779710Y-113438920D01*
X80767330Y-113432160D01*
X80759680Y-113437887D01*
X80654795Y-113609042D01*
X80650313Y-113617837D01*
X80563266Y-113827988D01*
X80560217Y-113837373D01*
X80507115Y-114058554D01*
X80505572Y-114068301D01*
X80487725Y-114295070D01*
X80487725Y-114304930D01*
X80505572Y-114531699D01*
X80507115Y-114541446D01*
X80560217Y-114762627D01*
X80563266Y-114772012D01*
X80650313Y-114982163D01*
X80654793Y-114990955D01*
X80660132Y-114999667D01*
X80678670Y-115068201D01*
X80657213Y-115135877D01*
X80602574Y-115181210D01*
X80552699Y-115191501D01*
X78447301Y-115191501D01*
X78379180Y-115171499D01*
X78332687Y-115117843D01*
X78322583Y-115047569D01*
X78339868Y-114999667D01*
X78345207Y-114990955D01*
X78349687Y-114982163D01*
X78436734Y-114772012D01*
X78439783Y-114762627D01*
X78492885Y-114541446D01*
X78494428Y-114531699D01*
X78512275Y-114304930D01*
X78512275Y-114295070D01*
X78494428Y-114068301D01*
X78492885Y-114058554D01*
X78439783Y-113837373D01*
X78436734Y-113827988D01*
X78349687Y-113617837D01*
X78345205Y-113609042D01*
X78242568Y-113441555D01*
X78232110Y-113432093D01*
X78223334Y-113435876D01*
X77089095Y-114570115D01*
X77026783Y-114604141D01*
X76955968Y-114599076D01*
X76910905Y-114570115D01*
X75779710Y-113438920D01*
X75767330Y-113432160D01*
X75759680Y-113437887D01*
X75654795Y-113609042D01*
X75650313Y-113617837D01*
X75563266Y-113827988D01*
X75560217Y-113837373D01*
X75507115Y-114058554D01*
X75505572Y-114068301D01*
X75487725Y-114295070D01*
X75487725Y-114304930D01*
X75505572Y-114531699D01*
X75507115Y-114541446D01*
X75560217Y-114762627D01*
X75563266Y-114772012D01*
X75650313Y-114982163D01*
X75654793Y-114990955D01*
X75660132Y-114999667D01*
X75678670Y-115068201D01*
X75657213Y-115135877D01*
X75602574Y-115181210D01*
X75552699Y-115191501D01*
X71947301Y-115191501D01*
X71879180Y-115171499D01*
X71832687Y-115117843D01*
X71822583Y-115047569D01*
X71839868Y-114999667D01*
X71845207Y-114990955D01*
X71849687Y-114982163D01*
X71936734Y-114772012D01*
X71939783Y-114762627D01*
X71992885Y-114541446D01*
X71994428Y-114531699D01*
X72012275Y-114304930D01*
X72012275Y-114295070D01*
X71994428Y-114068301D01*
X71992885Y-114058554D01*
X71939783Y-113837373D01*
X71936734Y-113827988D01*
X71849687Y-113617837D01*
X71845205Y-113609042D01*
X71742568Y-113441555D01*
X71732110Y-113432093D01*
X71723334Y-113435876D01*
X70589095Y-114570115D01*
X70526783Y-114604141D01*
X70455968Y-114599076D01*
X70410905Y-114570115D01*
X69279710Y-113438920D01*
X69267330Y-113432160D01*
X69259680Y-113437887D01*
X69154795Y-113609042D01*
X69150313Y-113617837D01*
X69063266Y-113827988D01*
X69060217Y-113837373D01*
X69007115Y-114058554D01*
X69005572Y-114068301D01*
X68987725Y-114295070D01*
X68987725Y-114304933D01*
X68989384Y-114326017D01*
X68974787Y-114395497D01*
X68924944Y-114446056D01*
X68855679Y-114461641D01*
X68788983Y-114437305D01*
X68774677Y-114424996D01*
X67417571Y-113067890D01*
X69632093Y-113067890D01*
X69635876Y-113076666D01*
X70487188Y-113927978D01*
X70501132Y-113935592D01*
X70502965Y-113935461D01*
X70509580Y-113931210D01*
X71361080Y-113079710D01*
X71367534Y-113067890D01*
X76132093Y-113067890D01*
X76135876Y-113076666D01*
X76987188Y-113927978D01*
X77001132Y-113935592D01*
X77002965Y-113935461D01*
X77009580Y-113931210D01*
X77861080Y-113079710D01*
X77867534Y-113067890D01*
X81132093Y-113067890D01*
X81135876Y-113076666D01*
X81987188Y-113927978D01*
X82001132Y-113935592D01*
X82002965Y-113935461D01*
X82009580Y-113931210D01*
X82861080Y-113079710D01*
X82867534Y-113067890D01*
X87632093Y-113067890D01*
X87635876Y-113076666D01*
X88487188Y-113927978D01*
X88501132Y-113935592D01*
X88502965Y-113935461D01*
X88509580Y-113931210D01*
X89361080Y-113079710D01*
X89367840Y-113067330D01*
X89362113Y-113059680D01*
X89190958Y-112954795D01*
X89182163Y-112950313D01*
X88972012Y-112863266D01*
X88962627Y-112860217D01*
X88741446Y-112807115D01*
X88731699Y-112805572D01*
X88504930Y-112787725D01*
X88495070Y-112787725D01*
X88268301Y-112805572D01*
X88258554Y-112807115D01*
X88037373Y-112860217D01*
X88027988Y-112863266D01*
X87817837Y-112950313D01*
X87809042Y-112954795D01*
X87641555Y-113057432D01*
X87632093Y-113067890D01*
X82867534Y-113067890D01*
X82867840Y-113067330D01*
X82862113Y-113059680D01*
X82690958Y-112954795D01*
X82682163Y-112950313D01*
X82472012Y-112863266D01*
X82462627Y-112860217D01*
X82241446Y-112807115D01*
X82231699Y-112805572D01*
X82004930Y-112787725D01*
X81995070Y-112787725D01*
X81768301Y-112805572D01*
X81758554Y-112807115D01*
X81537373Y-112860217D01*
X81527988Y-112863266D01*
X81317837Y-112950313D01*
X81309042Y-112954795D01*
X81141555Y-113057432D01*
X81132093Y-113067890D01*
X77867534Y-113067890D01*
X77867840Y-113067330D01*
X77862113Y-113059680D01*
X77690958Y-112954795D01*
X77682163Y-112950313D01*
X77472012Y-112863266D01*
X77462627Y-112860217D01*
X77241446Y-112807115D01*
X77231699Y-112805572D01*
X77004930Y-112787725D01*
X76995070Y-112787725D01*
X76768301Y-112805572D01*
X76758554Y-112807115D01*
X76537373Y-112860217D01*
X76527988Y-112863266D01*
X76317837Y-112950313D01*
X76309042Y-112954795D01*
X76141555Y-113057432D01*
X76132093Y-113067890D01*
X71367534Y-113067890D01*
X71367840Y-113067330D01*
X71362113Y-113059680D01*
X71190958Y-112954795D01*
X71182163Y-112950313D01*
X70972012Y-112863266D01*
X70962627Y-112860217D01*
X70741446Y-112807115D01*
X70731699Y-112805572D01*
X70504930Y-112787725D01*
X70495070Y-112787725D01*
X70268301Y-112805572D01*
X70258554Y-112807115D01*
X70037373Y-112860217D01*
X70027988Y-112863266D01*
X69817837Y-112950313D01*
X69809042Y-112954795D01*
X69641555Y-113057432D01*
X69632093Y-113067890D01*
X67417571Y-113067890D01*
X64784508Y-110434827D01*
X64750482Y-110372515D01*
X64755547Y-110301700D01*
X64798037Y-110244907D01*
X64833079Y-110218644D01*
X64833081Y-110218642D01*
X64840261Y-110213261D01*
X64927615Y-110096705D01*
X64978745Y-109960316D01*
X64985500Y-109898134D01*
X64985500Y-108101866D01*
X64978745Y-108039684D01*
X64927615Y-107903295D01*
X64840261Y-107786739D01*
X64723705Y-107699385D01*
X64625576Y-107662598D01*
X64604687Y-107654767D01*
X64547923Y-107612125D01*
X64523223Y-107545564D01*
X64538430Y-107476215D01*
X64559977Y-107447535D01*
X64661052Y-107346812D01*
X64667730Y-107338965D01*
X64792003Y-107166020D01*
X64797313Y-107157183D01*
X64891670Y-106966267D01*
X64895469Y-106956672D01*
X64957377Y-106752910D01*
X64959555Y-106742837D01*
X64960986Y-106731962D01*
X64958775Y-106717778D01*
X64945617Y-106714000D01*
X62310225Y-106714000D01*
X62296694Y-106717973D01*
X62295257Y-106727966D01*
X62325565Y-106862446D01*
X62328645Y-106872275D01*
X62408770Y-107069603D01*
X62413413Y-107078794D01*
X62524694Y-107260388D01*
X62530777Y-107268699D01*
X62670213Y-107429667D01*
X62677577Y-107436879D01*
X62682522Y-107440985D01*
X62722156Y-107499889D01*
X62723653Y-107570870D01*
X62686537Y-107631392D01*
X62646264Y-107655910D01*
X62538705Y-107696232D01*
X62538704Y-107696233D01*
X62530295Y-107699385D01*
X62413739Y-107786739D01*
X62326385Y-107903295D01*
X62275255Y-108039684D01*
X62268500Y-108101866D01*
X62268500Y-109898134D01*
X62275255Y-109960316D01*
X62326385Y-110096705D01*
X62413739Y-110213261D01*
X62530295Y-110300615D01*
X62666684Y-110351745D01*
X62728866Y-110358500D01*
X62750493Y-110358500D01*
X62818614Y-110378502D01*
X62865107Y-110432158D01*
X62876078Y-110474286D01*
X62878140Y-110499637D01*
X62880396Y-110506601D01*
X62881587Y-110512560D01*
X62882971Y-110518415D01*
X62883818Y-110525681D01*
X62908735Y-110594327D01*
X62910152Y-110598455D01*
X62932649Y-110667899D01*
X62936445Y-110674154D01*
X62938951Y-110679628D01*
X62941670Y-110685058D01*
X62944167Y-110691937D01*
X62948180Y-110698057D01*
X62948180Y-110698058D01*
X62984186Y-110752976D01*
X62986523Y-110756680D01*
X63024405Y-110819107D01*
X63028121Y-110823315D01*
X63028122Y-110823316D01*
X63031803Y-110827484D01*
X63031776Y-110827508D01*
X63034429Y-110830500D01*
X63037132Y-110833733D01*
X63041144Y-110839852D01*
X63046456Y-110844884D01*
X63097383Y-110893128D01*
X63099825Y-110895506D01*
X68643231Y-116438912D01*
X68655617Y-116453324D01*
X68664150Y-116464919D01*
X68664155Y-116464924D01*
X68668493Y-116470819D01*
X68674071Y-116475558D01*
X68674074Y-116475561D01*
X68708769Y-116505036D01*
X68716285Y-116511966D01*
X68721980Y-116517661D01*
X68724862Y-116519941D01*
X68744252Y-116535282D01*
X68747656Y-116538073D01*
X68797704Y-116580592D01*
X68803286Y-116585334D01*
X68809802Y-116588662D01*
X68814851Y-116592029D01*
X68819980Y-116595196D01*
X68825717Y-116599735D01*
X68891876Y-116630656D01*
X68895770Y-116632559D01*
X68960809Y-116665770D01*
X68967917Y-116667509D01*
X68973560Y-116669608D01*
X68979323Y-116671525D01*
X68985951Y-116674623D01*
X68993113Y-116676113D01*
X68993114Y-116676113D01*
X69057413Y-116689487D01*
X69061697Y-116690457D01*
X69132611Y-116707809D01*
X69138213Y-116708157D01*
X69138216Y-116708157D01*
X69143765Y-116708501D01*
X69143763Y-116708537D01*
X69147756Y-116708776D01*
X69151948Y-116709150D01*
X69159116Y-116710641D01*
X69236521Y-116708547D01*
X69239929Y-116708501D01*
X93316929Y-116708501D01*
X93335879Y-116709934D01*
X93350114Y-116712100D01*
X93350118Y-116712100D01*
X93357348Y-116713200D01*
X93364640Y-116712607D01*
X93364643Y-116712607D01*
X93410017Y-116708916D01*
X93420232Y-116708501D01*
X93428292Y-116708501D01*
X93445679Y-116706474D01*
X93456506Y-116705212D01*
X93460881Y-116704779D01*
X93526338Y-116699455D01*
X93526341Y-116699454D01*
X93533636Y-116698861D01*
X93540600Y-116696605D01*
X93546559Y-116695414D01*
X93552414Y-116694030D01*
X93559680Y-116693183D01*
X93628326Y-116668266D01*
X93632454Y-116666849D01*
X93694935Y-116646608D01*
X93694937Y-116646607D01*
X93701898Y-116644352D01*
X93708153Y-116640556D01*
X93713627Y-116638050D01*
X93719057Y-116635331D01*
X93725936Y-116632834D01*
X93732057Y-116628821D01*
X93786975Y-116592815D01*
X93790679Y-116590478D01*
X93853106Y-116552596D01*
X93861483Y-116545198D01*
X93861507Y-116545225D01*
X93864499Y-116542572D01*
X93867732Y-116539869D01*
X93873851Y-116535857D01*
X93927127Y-116479618D01*
X93929505Y-116477176D01*
X94263010Y-116143671D01*
X94325322Y-116109645D01*
X94363087Y-116107245D01*
X94520525Y-116121019D01*
X94526000Y-116121498D01*
X94754087Y-116101543D01*
X94759400Y-116100119D01*
X94759402Y-116100119D01*
X94969933Y-116043707D01*
X94969935Y-116043706D01*
X94975243Y-116042284D01*
X95002526Y-116029562D01*
X95177762Y-115947849D01*
X95177767Y-115947846D01*
X95182749Y-115945523D01*
X95308343Y-115857581D01*
X95365789Y-115817357D01*
X95365792Y-115817355D01*
X95370300Y-115814198D01*
X95532198Y-115652300D01*
X95554655Y-115620229D01*
X95610110Y-115575901D01*
X95657867Y-115566500D01*
X96696133Y-115566500D01*
X96764254Y-115586502D01*
X96799345Y-115620228D01*
X96821802Y-115652300D01*
X96983700Y-115814198D01*
X96988208Y-115817355D01*
X96988211Y-115817357D01*
X97045657Y-115857581D01*
X97171251Y-115945523D01*
X97176233Y-115947846D01*
X97176238Y-115947849D01*
X97351474Y-116029562D01*
X97378757Y-116042284D01*
X97384065Y-116043706D01*
X97384067Y-116043707D01*
X97594598Y-116100119D01*
X97594600Y-116100119D01*
X97599913Y-116101543D01*
X97828000Y-116121498D01*
X98056087Y-116101543D01*
X98061400Y-116100119D01*
X98061402Y-116100119D01*
X98271933Y-116043707D01*
X98271935Y-116043706D01*
X98277243Y-116042284D01*
X98304526Y-116029562D01*
X98479762Y-115947849D01*
X98479767Y-115947846D01*
X98484749Y-115945523D01*
X98610343Y-115857581D01*
X98667789Y-115817357D01*
X98667792Y-115817355D01*
X98672300Y-115814198D01*
X98834198Y-115652300D01*
X98856655Y-115620229D01*
X98912110Y-115575901D01*
X98959867Y-115566500D01*
X99998133Y-115566500D01*
X100066254Y-115586502D01*
X100101345Y-115620228D01*
X100123802Y-115652300D01*
X100285700Y-115814198D01*
X100290208Y-115817355D01*
X100290211Y-115817357D01*
X100347657Y-115857581D01*
X100473251Y-115945523D01*
X100478233Y-115947846D01*
X100478238Y-115947849D01*
X100653474Y-116029562D01*
X100680757Y-116042284D01*
X100686065Y-116043706D01*
X100686067Y-116043707D01*
X100896598Y-116100119D01*
X100896600Y-116100119D01*
X100901913Y-116101543D01*
X101130000Y-116121498D01*
X101135475Y-116121019D01*
X101292913Y-116107245D01*
X101362518Y-116121234D01*
X101392990Y-116143671D01*
X102123231Y-116873912D01*
X102135617Y-116888324D01*
X102144150Y-116899919D01*
X102144155Y-116899924D01*
X102148493Y-116905819D01*
X102154071Y-116910558D01*
X102154074Y-116910561D01*
X102188769Y-116940036D01*
X102196285Y-116946966D01*
X102201980Y-116952661D01*
X102204862Y-116954941D01*
X102224252Y-116970282D01*
X102227656Y-116973073D01*
X102277704Y-117015592D01*
X102283286Y-117020334D01*
X102289802Y-117023662D01*
X102294851Y-117027029D01*
X102299980Y-117030196D01*
X102305717Y-117034735D01*
X102371876Y-117065656D01*
X102375770Y-117067559D01*
X102440809Y-117100770D01*
X102447917Y-117102509D01*
X102453560Y-117104608D01*
X102459323Y-117106525D01*
X102465951Y-117109623D01*
X102473113Y-117111113D01*
X102473114Y-117111113D01*
X102537413Y-117124487D01*
X102541697Y-117125457D01*
X102612611Y-117142809D01*
X102618213Y-117143157D01*
X102618216Y-117143157D01*
X102623765Y-117143501D01*
X102623763Y-117143537D01*
X102627756Y-117143776D01*
X102631948Y-117144150D01*
X102639116Y-117145641D01*
X102716521Y-117143547D01*
X102719929Y-117143501D01*
X132089721Y-117143501D01*
X132108671Y-117144934D01*
X132122906Y-117147100D01*
X132122910Y-117147100D01*
X132130140Y-117148200D01*
X132137432Y-117147607D01*
X132137435Y-117147607D01*
X132182809Y-117143916D01*
X132193024Y-117143501D01*
X132201084Y-117143501D01*
X132218471Y-117141474D01*
X132229298Y-117140212D01*
X132233673Y-117139779D01*
X132299130Y-117134455D01*
X132299133Y-117134454D01*
X132306428Y-117133861D01*
X132313392Y-117131605D01*
X132319351Y-117130414D01*
X132325206Y-117129030D01*
X132332472Y-117128183D01*
X132401118Y-117103266D01*
X132405246Y-117101849D01*
X132467727Y-117081608D01*
X132467729Y-117081607D01*
X132474690Y-117079352D01*
X132480945Y-117075556D01*
X132486419Y-117073050D01*
X132491849Y-117070331D01*
X132498728Y-117067834D01*
X132504849Y-117063821D01*
X132559767Y-117027815D01*
X132563471Y-117025478D01*
X132625898Y-116987596D01*
X132634275Y-116980198D01*
X132634299Y-116980225D01*
X132637291Y-116977572D01*
X132640524Y-116974869D01*
X132646643Y-116970857D01*
X132699919Y-116914618D01*
X132702297Y-116912176D01*
X133584911Y-116029562D01*
X133599323Y-116017176D01*
X133610918Y-116008643D01*
X133610923Y-116008638D01*
X133616818Y-116004300D01*
X133621557Y-115998722D01*
X133621560Y-115998719D01*
X133651035Y-115964024D01*
X133657965Y-115956508D01*
X133663660Y-115950813D01*
X133681281Y-115928541D01*
X133684072Y-115925137D01*
X133726591Y-115875089D01*
X133726592Y-115875087D01*
X133731333Y-115869507D01*
X133734661Y-115862991D01*
X133738028Y-115857942D01*
X133741195Y-115852813D01*
X133745734Y-115847076D01*
X133776655Y-115780917D01*
X133778561Y-115777017D01*
X133811769Y-115711984D01*
X133813508Y-115704876D01*
X133815607Y-115699233D01*
X133817524Y-115693470D01*
X133820622Y-115686842D01*
X133835487Y-115615375D01*
X133836457Y-115611091D01*
X133846430Y-115570333D01*
X133853808Y-115540182D01*
X133854500Y-115529028D01*
X133854536Y-115529030D01*
X133854775Y-115525037D01*
X133855149Y-115520845D01*
X133856640Y-115513677D01*
X133854546Y-115436261D01*
X133854500Y-115432864D01*
X133854500Y-115427052D01*
X133874502Y-115358931D01*
X133907332Y-115324473D01*
X134004039Y-115255493D01*
X134004042Y-115255491D01*
X134008243Y-115252494D01*
X134172303Y-115089005D01*
X134307458Y-114900917D01*
X134350675Y-114813475D01*
X134407784Y-114697922D01*
X134407785Y-114697920D01*
X134410078Y-114693280D01*
X134477408Y-114471671D01*
X134507640Y-114242041D01*
X134509193Y-114178475D01*
X134509245Y-114176365D01*
X134509245Y-114176361D01*
X134509327Y-114173000D01*
X134500719Y-114068301D01*
X134490773Y-113947318D01*
X134490772Y-113947312D01*
X134490349Y-113942167D01*
X134455092Y-113801802D01*
X134435184Y-113722544D01*
X134435183Y-113722540D01*
X134433925Y-113717533D01*
X134414837Y-113673634D01*
X134343630Y-113509868D01*
X134343628Y-113509865D01*
X134341570Y-113505131D01*
X134215764Y-113310665D01*
X134059887Y-113139358D01*
X134055836Y-113136159D01*
X134055832Y-113136155D01*
X133902408Y-113014989D01*
X133861345Y-112957072D01*
X133854500Y-112916107D01*
X133854500Y-109458052D01*
X133874502Y-109389931D01*
X133907332Y-109355473D01*
X134004039Y-109286493D01*
X134004042Y-109286491D01*
X134008243Y-109283494D01*
X134172303Y-109120005D01*
X134247777Y-109014973D01*
X134303770Y-108971326D01*
X134350098Y-108962500D01*
X137515500Y-108962500D01*
X137583621Y-108982502D01*
X137630114Y-109036158D01*
X137641500Y-109088500D01*
X137641500Y-109898134D01*
X137648255Y-109960316D01*
X137699385Y-110096705D01*
X137786739Y-110213261D01*
X137903295Y-110300615D01*
X138039684Y-110351745D01*
X138101866Y-110358500D01*
X139898134Y-110358500D01*
X139960316Y-110351745D01*
X140096705Y-110300615D01*
X140213261Y-110213261D01*
X140300615Y-110096705D01*
X140351745Y-109960316D01*
X140358500Y-109898134D01*
X140358500Y-108101866D01*
X140351745Y-108039684D01*
X140300615Y-107903295D01*
X140213261Y-107786739D01*
X140096705Y-107699385D01*
X139998576Y-107662598D01*
X139977687Y-107654767D01*
X139920923Y-107612125D01*
X139896223Y-107545564D01*
X139911430Y-107476215D01*
X139932977Y-107447535D01*
X140034052Y-107346812D01*
X140040730Y-107338965D01*
X140165003Y-107166020D01*
X140170313Y-107157183D01*
X140264670Y-106966267D01*
X140268469Y-106956672D01*
X140330377Y-106752910D01*
X140332555Y-106742837D01*
X140333986Y-106731962D01*
X140331775Y-106717778D01*
X140318617Y-106714000D01*
X137683225Y-106714000D01*
X137669694Y-106717973D01*
X137668257Y-106727966D01*
X137698565Y-106862446D01*
X137701645Y-106872275D01*
X137781770Y-107069603D01*
X137786413Y-107078794D01*
X137893574Y-107253665D01*
X137912112Y-107322199D01*
X137890656Y-107389875D01*
X137836017Y-107435208D01*
X137786141Y-107445500D01*
X134351493Y-107445500D01*
X134283372Y-107425498D01*
X134245701Y-107387941D01*
X134218571Y-107346004D01*
X134215764Y-107341665D01*
X134198052Y-107322199D01*
X134129945Y-107247351D01*
X134059887Y-107170358D01*
X134055836Y-107167159D01*
X134055832Y-107167155D01*
X133902408Y-107045989D01*
X133861345Y-106988072D01*
X133854500Y-106947107D01*
X133854500Y-103886695D01*
X137637251Y-103886695D01*
X137637548Y-103891848D01*
X137637548Y-103891851D01*
X137645099Y-104022802D01*
X137650110Y-104109715D01*
X137651247Y-104114761D01*
X137651248Y-104114767D01*
X137667009Y-104184700D01*
X137699222Y-104327639D01*
X137753879Y-104462243D01*
X137769997Y-104501937D01*
X137783266Y-104534616D01*
X137899987Y-104725088D01*
X138046250Y-104893938D01*
X138122846Y-104957529D01*
X138202339Y-105023525D01*
X138218126Y-105036632D01*
X138291955Y-105079774D01*
X138340679Y-105131412D01*
X138353750Y-105201195D01*
X138327019Y-105266967D01*
X138286562Y-105300327D01*
X138278457Y-105304546D01*
X138269738Y-105310036D01*
X138099433Y-105437905D01*
X138091726Y-105444748D01*
X137944590Y-105598717D01*
X137938104Y-105606727D01*
X137818098Y-105782649D01*
X137813001Y-105791621D01*
X137723338Y-105984783D01*
X137719775Y-105994470D01*
X137664389Y-106194183D01*
X137665912Y-106202607D01*
X137678292Y-106206000D01*
X140318344Y-106206000D01*
X140331875Y-106202027D01*
X140333180Y-106192947D01*
X140291214Y-106025875D01*
X140287894Y-106016124D01*
X140202972Y-105820814D01*
X140198105Y-105811739D01*
X140082426Y-105632926D01*
X140076136Y-105624757D01*
X139932806Y-105467240D01*
X139925273Y-105460215D01*
X139758139Y-105328222D01*
X139749556Y-105322520D01*
X139712602Y-105302120D01*
X139662631Y-105251687D01*
X139647859Y-105182245D01*
X139672975Y-105115839D01*
X139700327Y-105089232D01*
X139723797Y-105072491D01*
X139879860Y-104961173D01*
X140038096Y-104803489D01*
X140097594Y-104720689D01*
X140165435Y-104626277D01*
X140168453Y-104622077D01*
X140186745Y-104585067D01*
X140265136Y-104426453D01*
X140265137Y-104426451D01*
X140267430Y-104421811D01*
X140332370Y-104208069D01*
X140361529Y-103986590D01*
X140361737Y-103978079D01*
X140363074Y-103923365D01*
X140363074Y-103923361D01*
X140363156Y-103920000D01*
X140344852Y-103697361D01*
X140290431Y-103480702D01*
X140201354Y-103275840D01*
X140120595Y-103151005D01*
X140082822Y-103092617D01*
X140082820Y-103092614D01*
X140080014Y-103088277D01*
X139929670Y-102923051D01*
X139925619Y-102919852D01*
X139925615Y-102919848D01*
X139758414Y-102787800D01*
X139758410Y-102787798D01*
X139754359Y-102784598D01*
X139713053Y-102761796D01*
X139663084Y-102711364D01*
X139648312Y-102641921D01*
X139673428Y-102575516D01*
X139700780Y-102548909D01*
X139757308Y-102508588D01*
X139879860Y-102421173D01*
X139889693Y-102411375D01*
X140034435Y-102267137D01*
X140038096Y-102263489D01*
X140046710Y-102251502D01*
X140165435Y-102086277D01*
X140168453Y-102082077D01*
X140176294Y-102066213D01*
X140265136Y-101886453D01*
X140265137Y-101886451D01*
X140267430Y-101881811D01*
X140324357Y-101694443D01*
X140330865Y-101673023D01*
X140330865Y-101673021D01*
X140332370Y-101668069D01*
X140361529Y-101446590D01*
X140362221Y-101418282D01*
X140363074Y-101383365D01*
X140363074Y-101383361D01*
X140363156Y-101380000D01*
X140344852Y-101157361D01*
X140290431Y-100940702D01*
X140201354Y-100735840D01*
X140108710Y-100592634D01*
X140082822Y-100552617D01*
X140082820Y-100552614D01*
X140080014Y-100548277D01*
X139929670Y-100383051D01*
X139925619Y-100379852D01*
X139925615Y-100379848D01*
X139758414Y-100247800D01*
X139758410Y-100247798D01*
X139754359Y-100244598D01*
X139726044Y-100228967D01*
X139649420Y-100186669D01*
X139558789Y-100136638D01*
X139553920Y-100134914D01*
X139553916Y-100134912D01*
X139353087Y-100063795D01*
X139353083Y-100063794D01*
X139348212Y-100062069D01*
X139343119Y-100061162D01*
X139343116Y-100061161D01*
X139133373Y-100023800D01*
X139133367Y-100023799D01*
X139128284Y-100022894D01*
X139054452Y-100021992D01*
X138910081Y-100020228D01*
X138910079Y-100020228D01*
X138904911Y-100020165D01*
X138684091Y-100053955D01*
X138471756Y-100123357D01*
X138445669Y-100136937D01*
X138320683Y-100202001D01*
X138273607Y-100226507D01*
X138269474Y-100229610D01*
X138269471Y-100229612D01*
X138099100Y-100357530D01*
X138094965Y-100360635D01*
X138091393Y-100364373D01*
X137971714Y-100489610D01*
X137940629Y-100522138D01*
X137937715Y-100526410D01*
X137937714Y-100526411D01*
X137864860Y-100633211D01*
X137814743Y-100706680D01*
X137771996Y-100798770D01*
X137724871Y-100900294D01*
X137720688Y-100909305D01*
X137660989Y-101124570D01*
X137637251Y-101346695D01*
X137637548Y-101351848D01*
X137637548Y-101351851D01*
X137647573Y-101525713D01*
X137650110Y-101569715D01*
X137651247Y-101574761D01*
X137651248Y-101574767D01*
X137672052Y-101667077D01*
X137699222Y-101787639D01*
X137753879Y-101922243D01*
X137778780Y-101983567D01*
X137783266Y-101994616D01*
X137797095Y-102017183D01*
X137893176Y-102173973D01*
X137899987Y-102185088D01*
X138046250Y-102353938D01*
X138218126Y-102496632D01*
X138245755Y-102512777D01*
X138291445Y-102539476D01*
X138340169Y-102591114D01*
X138353240Y-102660897D01*
X138326509Y-102726669D01*
X138286055Y-102760027D01*
X138273607Y-102766507D01*
X138269474Y-102769610D01*
X138269471Y-102769612D01*
X138099100Y-102897530D01*
X138094965Y-102900635D01*
X137940629Y-103062138D01*
X137814743Y-103246680D01*
X137783265Y-103314494D01*
X137732804Y-103423204D01*
X137720688Y-103449305D01*
X137660989Y-103664570D01*
X137637251Y-103886695D01*
X133854500Y-103886695D01*
X133854500Y-103489052D01*
X133874502Y-103420931D01*
X133907332Y-103386473D01*
X134004039Y-103317493D01*
X134004042Y-103317491D01*
X134008243Y-103314494D01*
X134172303Y-103151005D01*
X134307458Y-102962917D01*
X134325274Y-102926870D01*
X134407784Y-102759922D01*
X134407785Y-102759920D01*
X134410078Y-102755280D01*
X134477408Y-102533671D01*
X134507640Y-102304041D01*
X134508631Y-102263489D01*
X134509245Y-102238365D01*
X134509245Y-102238361D01*
X134509327Y-102235000D01*
X134499334Y-102113450D01*
X134490773Y-102009318D01*
X134490772Y-102009312D01*
X134490349Y-102004167D01*
X134443754Y-101818664D01*
X134435184Y-101784544D01*
X134435183Y-101784540D01*
X134433925Y-101779533D01*
X134428622Y-101767337D01*
X134343630Y-101571868D01*
X134343628Y-101571865D01*
X134341570Y-101567131D01*
X134215764Y-101372665D01*
X134206578Y-101362569D01*
X134159640Y-101310985D01*
X134059887Y-101201358D01*
X134055836Y-101198159D01*
X134055832Y-101198155D01*
X133882178Y-101061012D01*
X133882175Y-101061010D01*
X133878123Y-101057810D01*
X133792607Y-101010603D01*
X133742636Y-100960170D01*
X133727500Y-100900294D01*
X133727500Y-97520052D01*
X133747502Y-97451931D01*
X133780332Y-97417473D01*
X133877039Y-97348493D01*
X133877042Y-97348491D01*
X133881243Y-97345494D01*
X134045303Y-97182005D01*
X134180458Y-96993917D01*
X134195923Y-96962627D01*
X134280784Y-96790922D01*
X134280785Y-96790920D01*
X134283078Y-96786280D01*
X134350408Y-96564671D01*
X134380640Y-96335041D01*
X134382046Y-96277512D01*
X134382245Y-96269365D01*
X134382245Y-96269361D01*
X134382327Y-96266000D01*
X134373579Y-96159598D01*
X134363773Y-96040318D01*
X134363772Y-96040312D01*
X134363349Y-96035167D01*
X134312106Y-95831158D01*
X134308184Y-95815544D01*
X134308183Y-95815540D01*
X134306925Y-95810533D01*
X134276795Y-95741238D01*
X134216630Y-95602868D01*
X134216628Y-95602865D01*
X134214570Y-95598131D01*
X134088764Y-95403665D01*
X134070546Y-95383643D01*
X133956796Y-95258634D01*
X133932887Y-95232358D01*
X133928836Y-95229159D01*
X133928832Y-95229155D01*
X133755177Y-95092011D01*
X133755172Y-95092008D01*
X133751123Y-95088810D01*
X133746607Y-95086317D01*
X133746604Y-95086315D01*
X133552879Y-94979373D01*
X133552875Y-94979371D01*
X133548355Y-94976876D01*
X133543486Y-94975152D01*
X133543482Y-94975150D01*
X133334903Y-94901288D01*
X133334899Y-94901287D01*
X133330028Y-94899562D01*
X133324935Y-94898655D01*
X133324932Y-94898654D01*
X133107095Y-94859851D01*
X133107089Y-94859850D01*
X133102006Y-94858945D01*
X133029096Y-94858054D01*
X132875581Y-94856179D01*
X132875579Y-94856179D01*
X132870411Y-94856116D01*
X132641464Y-94891150D01*
X132421314Y-94963106D01*
X132416726Y-94965494D01*
X132416722Y-94965496D01*
X132220461Y-95067663D01*
X132215872Y-95070052D01*
X132211739Y-95073155D01*
X132211736Y-95073157D01*
X132063319Y-95184592D01*
X132030655Y-95209117D01*
X132021091Y-95219125D01*
X132013170Y-95227414D01*
X131951646Y-95262844D01*
X131880733Y-95259387D01*
X131822947Y-95218141D01*
X131804094Y-95184592D01*
X131782768Y-95127705D01*
X131782767Y-95127703D01*
X131779615Y-95119295D01*
X131692261Y-95002739D01*
X131575705Y-94915385D01*
X131439316Y-94864255D01*
X131377134Y-94857500D01*
X129480866Y-94857500D01*
X129418684Y-94864255D01*
X129282295Y-94915385D01*
X129165739Y-95002739D01*
X129078385Y-95119295D01*
X129027255Y-95255684D01*
X129020500Y-95317866D01*
X129020500Y-97214134D01*
X129027255Y-97276316D01*
X129078385Y-97412705D01*
X129165739Y-97529261D01*
X129236544Y-97582326D01*
X129279058Y-97639183D01*
X129284084Y-97710002D01*
X129250073Y-97772246D01*
X127186195Y-99836124D01*
X127123883Y-99870150D01*
X127053068Y-99865085D01*
X126996232Y-99822538D01*
X126971421Y-99756018D01*
X126971100Y-99747029D01*
X126971100Y-99556867D01*
X126991102Y-99488746D01*
X127024828Y-99453655D01*
X127056900Y-99431198D01*
X127218798Y-99269300D01*
X127233966Y-99247639D01*
X127317999Y-99127627D01*
X127350123Y-99081749D01*
X127352446Y-99076767D01*
X127352449Y-99076762D01*
X127444561Y-98879225D01*
X127444561Y-98879224D01*
X127446884Y-98874243D01*
X127448708Y-98867438D01*
X127504719Y-98658402D01*
X127504719Y-98658400D01*
X127506143Y-98653087D01*
X127526098Y-98425000D01*
X127506143Y-98196913D01*
X127502745Y-98184232D01*
X127448307Y-97981067D01*
X127448306Y-97981064D01*
X127446884Y-97975757D01*
X127429609Y-97938710D01*
X127352449Y-97773238D01*
X127352446Y-97773233D01*
X127350123Y-97768251D01*
X127229317Y-97595722D01*
X127221957Y-97585211D01*
X127221955Y-97585208D01*
X127218798Y-97580700D01*
X127056900Y-97418802D01*
X127052392Y-97415645D01*
X127052389Y-97415643D01*
X126974211Y-97360902D01*
X126869349Y-97287477D01*
X126864367Y-97285154D01*
X126864362Y-97285151D01*
X126666825Y-97193039D01*
X126666824Y-97193039D01*
X126661843Y-97190716D01*
X126656535Y-97189294D01*
X126656533Y-97189293D01*
X126446002Y-97132881D01*
X126446000Y-97132881D01*
X126440687Y-97131457D01*
X126212600Y-97111502D01*
X125984513Y-97131457D01*
X125979200Y-97132881D01*
X125979198Y-97132881D01*
X125768667Y-97189293D01*
X125768665Y-97189294D01*
X125763357Y-97190716D01*
X125758376Y-97193039D01*
X125758375Y-97193039D01*
X125560838Y-97285151D01*
X125560833Y-97285154D01*
X125555851Y-97287477D01*
X125450989Y-97360902D01*
X125372811Y-97415643D01*
X125372808Y-97415645D01*
X125368300Y-97418802D01*
X125206402Y-97580700D01*
X125203245Y-97585208D01*
X125203243Y-97585211D01*
X125195883Y-97595722D01*
X125075077Y-97768251D01*
X125072754Y-97773233D01*
X125072751Y-97773238D01*
X124995591Y-97938710D01*
X124978316Y-97975757D01*
X124976894Y-97981064D01*
X124976893Y-97981067D01*
X124922455Y-98184232D01*
X124919057Y-98196913D01*
X124899102Y-98425000D01*
X124919057Y-98653087D01*
X124920481Y-98658400D01*
X124920481Y-98658402D01*
X124976493Y-98867438D01*
X124978316Y-98874243D01*
X124980639Y-98879224D01*
X124980639Y-98879225D01*
X125072751Y-99076762D01*
X125072754Y-99076767D01*
X125075077Y-99081749D01*
X125107201Y-99127627D01*
X125191235Y-99247639D01*
X125206402Y-99269300D01*
X125368300Y-99431198D01*
X125400371Y-99453655D01*
X125444699Y-99509110D01*
X125454100Y-99556867D01*
X125454100Y-100595133D01*
X125434098Y-100663254D01*
X125400372Y-100698345D01*
X125368300Y-100720802D01*
X125206402Y-100882700D01*
X125203245Y-100887208D01*
X125203243Y-100887211D01*
X125191060Y-100904610D01*
X125075077Y-101070251D01*
X125072754Y-101075233D01*
X125072751Y-101075238D01*
X124995102Y-101241758D01*
X124978316Y-101277757D01*
X124976894Y-101283065D01*
X124976893Y-101283067D01*
X124926000Y-101473000D01*
X124919057Y-101498913D01*
X124899102Y-101727000D01*
X124919057Y-101955087D01*
X124920481Y-101960400D01*
X124920481Y-101960402D01*
X124976538Y-102169606D01*
X124978316Y-102176243D01*
X124980639Y-102181224D01*
X124980639Y-102181225D01*
X125072751Y-102378762D01*
X125072753Y-102378765D01*
X125075077Y-102383749D01*
X125078234Y-102388257D01*
X125190724Y-102548909D01*
X125206402Y-102571300D01*
X125368300Y-102733198D01*
X125372808Y-102736355D01*
X125372811Y-102736357D01*
X125450989Y-102791098D01*
X125555851Y-102864523D01*
X125560833Y-102866846D01*
X125560838Y-102866849D01*
X125758375Y-102958961D01*
X125763357Y-102961284D01*
X125768665Y-102962706D01*
X125768667Y-102962707D01*
X125979198Y-103019119D01*
X125979200Y-103019119D01*
X125984513Y-103020543D01*
X126212600Y-103040498D01*
X126440687Y-103020543D01*
X126446000Y-103019119D01*
X126446002Y-103019119D01*
X126656533Y-102962707D01*
X126656535Y-102962706D01*
X126661843Y-102961284D01*
X126668290Y-102958278D01*
X126724851Y-102931903D01*
X126795043Y-102921242D01*
X126859856Y-102950222D01*
X126898712Y-103009642D01*
X126904101Y-103046098D01*
X126904101Y-103212628D01*
X126884099Y-103280749D01*
X126867196Y-103301723D01*
X126475590Y-103693329D01*
X126413278Y-103727355D01*
X126375513Y-103729755D01*
X126218075Y-103715981D01*
X126212600Y-103715502D01*
X125984513Y-103735457D01*
X125979200Y-103736881D01*
X125979198Y-103736881D01*
X125768667Y-103793293D01*
X125768665Y-103793294D01*
X125763357Y-103794716D01*
X125758376Y-103797039D01*
X125758375Y-103797039D01*
X125560838Y-103889151D01*
X125560833Y-103889154D01*
X125555851Y-103891477D01*
X125465831Y-103954510D01*
X125372811Y-104019643D01*
X125372808Y-104019645D01*
X125368300Y-104022802D01*
X125206402Y-104184700D01*
X125075077Y-104372251D01*
X125072754Y-104377233D01*
X125072751Y-104377238D01*
X124985372Y-104564626D01*
X124978316Y-104579757D01*
X124976894Y-104585065D01*
X124976893Y-104585067D01*
X124940553Y-104720689D01*
X124919057Y-104800913D01*
X124899102Y-105029000D01*
X124919057Y-105257087D01*
X124920481Y-105262400D01*
X124920481Y-105262402D01*
X124976586Y-105471785D01*
X124978316Y-105478243D01*
X124980639Y-105483224D01*
X124980639Y-105483225D01*
X125072751Y-105680762D01*
X125072754Y-105680767D01*
X125075077Y-105685749D01*
X125206402Y-105873300D01*
X125368300Y-106035198D01*
X125372808Y-106038355D01*
X125372811Y-106038357D01*
X125394629Y-106053634D01*
X125555851Y-106166523D01*
X125560833Y-106168846D01*
X125560838Y-106168849D01*
X125758375Y-106260961D01*
X125763357Y-106263284D01*
X125768665Y-106264706D01*
X125768667Y-106264707D01*
X125979198Y-106321119D01*
X125979200Y-106321119D01*
X125984513Y-106322543D01*
X126212600Y-106342498D01*
X126440687Y-106322543D01*
X126446000Y-106321119D01*
X126446002Y-106321119D01*
X126656533Y-106264707D01*
X126656535Y-106264706D01*
X126661843Y-106263284D01*
X126666825Y-106260961D01*
X126864362Y-106168849D01*
X126864367Y-106168846D01*
X126869349Y-106166523D01*
X127030571Y-106053634D01*
X127052389Y-106038357D01*
X127052392Y-106038355D01*
X127056900Y-106035198D01*
X127218798Y-105873300D01*
X127350123Y-105685749D01*
X127352446Y-105680767D01*
X127352449Y-105680762D01*
X127444561Y-105483225D01*
X127444561Y-105483224D01*
X127446884Y-105478243D01*
X127448615Y-105471785D01*
X127504719Y-105262402D01*
X127504719Y-105262400D01*
X127506143Y-105257087D01*
X127526098Y-105029000D01*
X127519845Y-104957529D01*
X127511845Y-104866087D01*
X127525834Y-104796482D01*
X127548271Y-104766010D01*
X128151512Y-104162769D01*
X128165924Y-104150383D01*
X128177519Y-104141850D01*
X128177524Y-104141845D01*
X128183419Y-104137507D01*
X128188158Y-104131929D01*
X128188161Y-104131926D01*
X128217636Y-104097231D01*
X128224566Y-104089715D01*
X128230261Y-104084020D01*
X128243849Y-104066845D01*
X128247882Y-104061748D01*
X128250673Y-104058344D01*
X128293192Y-104008296D01*
X128293193Y-104008294D01*
X128297934Y-104002714D01*
X128301262Y-103996198D01*
X128304629Y-103991149D01*
X128307796Y-103986020D01*
X128312335Y-103980283D01*
X128343256Y-103914124D01*
X128345162Y-103910224D01*
X128354735Y-103891477D01*
X128378370Y-103845191D01*
X128380109Y-103838083D01*
X128382208Y-103832440D01*
X128384125Y-103826677D01*
X128387223Y-103820049D01*
X128402088Y-103748582D01*
X128403058Y-103744298D01*
X128405339Y-103734978D01*
X128420409Y-103673389D01*
X128421101Y-103662235D01*
X128421137Y-103662237D01*
X128421376Y-103658244D01*
X128421750Y-103654052D01*
X128423241Y-103646884D01*
X128421147Y-103569478D01*
X128421101Y-103566071D01*
X128421101Y-100798770D01*
X128441103Y-100730649D01*
X128458006Y-100709675D01*
X130917911Y-98249770D01*
X130932323Y-98237384D01*
X130943918Y-98228851D01*
X130943923Y-98228846D01*
X130949818Y-98224508D01*
X130954557Y-98218930D01*
X130954560Y-98218927D01*
X130984035Y-98184232D01*
X130990965Y-98176716D01*
X130996660Y-98171021D01*
X131007395Y-98157452D01*
X131014281Y-98148749D01*
X131017072Y-98145345D01*
X131059591Y-98095297D01*
X131059592Y-98095295D01*
X131064333Y-98089715D01*
X131067661Y-98083199D01*
X131071028Y-98078150D01*
X131074195Y-98073021D01*
X131078734Y-98067284D01*
X131109655Y-98001125D01*
X131111561Y-97997225D01*
X131121173Y-97978401D01*
X131144769Y-97932192D01*
X131146508Y-97925084D01*
X131148607Y-97919441D01*
X131150524Y-97913678D01*
X131153622Y-97907050D01*
X131168487Y-97835583D01*
X131169457Y-97831300D01*
X131184321Y-97770553D01*
X131219940Y-97709138D01*
X131283108Y-97676730D01*
X131306710Y-97674500D01*
X131377134Y-97674500D01*
X131439316Y-97667745D01*
X131575705Y-97616615D01*
X131692261Y-97529261D01*
X131779615Y-97412705D01*
X131804180Y-97347178D01*
X131846822Y-97290414D01*
X131913383Y-97265714D01*
X131982732Y-97280921D01*
X132002647Y-97294464D01*
X132157517Y-97423039D01*
X132158349Y-97423730D01*
X132158206Y-97423902D01*
X132201101Y-97477570D01*
X132210500Y-97525321D01*
X132210500Y-101075481D01*
X132190498Y-101143602D01*
X132165087Y-101170939D01*
X132165656Y-101171580D01*
X132161790Y-101175012D01*
X132157655Y-101178117D01*
X132140170Y-101196414D01*
X132078646Y-101231844D01*
X132007733Y-101228387D01*
X131949947Y-101187141D01*
X131931094Y-101153592D01*
X131909768Y-101096705D01*
X131909767Y-101096703D01*
X131906615Y-101088295D01*
X131819261Y-100971739D01*
X131702705Y-100884385D01*
X131566316Y-100833255D01*
X131504134Y-100826500D01*
X129607866Y-100826500D01*
X129545684Y-100833255D01*
X129409295Y-100884385D01*
X129292739Y-100971739D01*
X129205385Y-101088295D01*
X129154255Y-101224684D01*
X129147500Y-101286866D01*
X129147500Y-103183134D01*
X129154255Y-103245316D01*
X129205385Y-103381705D01*
X129292739Y-103498261D01*
X129409295Y-103585615D01*
X129545684Y-103636745D01*
X129553534Y-103637598D01*
X129560129Y-103639166D01*
X129621775Y-103674384D01*
X129654594Y-103737339D01*
X129648167Y-103808044D01*
X129620076Y-103850843D01*
X126475590Y-106995329D01*
X126413278Y-107029355D01*
X126375513Y-107031755D01*
X126218075Y-107017981D01*
X126212600Y-107017502D01*
X125984513Y-107037457D01*
X125979200Y-107038881D01*
X125979198Y-107038881D01*
X125768667Y-107095293D01*
X125768665Y-107095294D01*
X125763357Y-107096716D01*
X125758376Y-107099039D01*
X125758375Y-107099039D01*
X125560838Y-107191151D01*
X125560833Y-107191154D01*
X125555851Y-107193477D01*
X125450989Y-107266902D01*
X125372811Y-107321643D01*
X125372808Y-107321645D01*
X125368300Y-107324802D01*
X125206402Y-107486700D01*
X125203245Y-107491208D01*
X125203243Y-107491211D01*
X125165185Y-107545564D01*
X125075077Y-107674251D01*
X125072754Y-107679233D01*
X125072751Y-107679238D01*
X125002832Y-107829181D01*
X124978316Y-107881757D01*
X124976894Y-107887065D01*
X124976893Y-107887067D01*
X124935999Y-108039684D01*
X124919057Y-108102913D01*
X124899102Y-108331000D01*
X124919057Y-108559087D01*
X124920481Y-108564400D01*
X124920481Y-108564402D01*
X124964862Y-108730031D01*
X124978316Y-108780243D01*
X124980639Y-108785224D01*
X124980639Y-108785225D01*
X125072751Y-108982762D01*
X125072754Y-108982767D01*
X125075077Y-108987749D01*
X125112714Y-109041500D01*
X125185469Y-109145404D01*
X125206402Y-109175300D01*
X125368300Y-109337198D01*
X125372808Y-109340355D01*
X125372811Y-109340357D01*
X125450989Y-109395098D01*
X125555851Y-109468523D01*
X125560833Y-109470846D01*
X125560838Y-109470849D01*
X125748757Y-109558476D01*
X125763357Y-109565284D01*
X125768665Y-109566706D01*
X125768667Y-109566707D01*
X125979198Y-109623119D01*
X125979200Y-109623119D01*
X125984513Y-109624543D01*
X126212600Y-109644498D01*
X126440687Y-109624543D01*
X126446000Y-109623119D01*
X126446002Y-109623119D01*
X126656533Y-109566707D01*
X126656535Y-109566706D01*
X126661843Y-109565284D01*
X126676443Y-109558476D01*
X126864362Y-109470849D01*
X126864367Y-109470846D01*
X126869349Y-109468523D01*
X126974211Y-109395098D01*
X127052389Y-109340357D01*
X127052392Y-109340355D01*
X127056900Y-109337198D01*
X127218798Y-109175300D01*
X127239732Y-109145404D01*
X127312486Y-109041500D01*
X127350123Y-108987749D01*
X127352446Y-108982767D01*
X127352449Y-108982762D01*
X127444561Y-108785225D01*
X127444561Y-108785224D01*
X127446884Y-108780243D01*
X127460339Y-108730031D01*
X127504719Y-108564402D01*
X127504719Y-108564400D01*
X127506143Y-108559087D01*
X127526098Y-108331000D01*
X127523175Y-108297595D01*
X127511845Y-108168087D01*
X127525834Y-108098482D01*
X127548271Y-108068010D01*
X131044911Y-104571370D01*
X131059323Y-104558984D01*
X131070918Y-104550451D01*
X131070923Y-104550446D01*
X131076818Y-104546108D01*
X131081557Y-104540530D01*
X131081560Y-104540527D01*
X131111035Y-104505832D01*
X131117965Y-104498316D01*
X131123660Y-104492621D01*
X131141281Y-104470349D01*
X131144072Y-104466945D01*
X131186591Y-104416897D01*
X131186592Y-104416895D01*
X131191333Y-104411315D01*
X131194661Y-104404799D01*
X131198028Y-104399750D01*
X131201195Y-104394621D01*
X131205734Y-104388884D01*
X131236655Y-104322725D01*
X131238561Y-104318825D01*
X131271769Y-104253792D01*
X131273508Y-104246684D01*
X131275607Y-104241041D01*
X131277524Y-104235278D01*
X131280622Y-104228650D01*
X131295487Y-104157183D01*
X131296457Y-104152899D01*
X131308288Y-104104547D01*
X131313808Y-104081990D01*
X131314500Y-104070836D01*
X131314536Y-104070838D01*
X131314775Y-104066845D01*
X131315149Y-104062653D01*
X131316640Y-104055485D01*
X131314546Y-103978079D01*
X131314500Y-103974672D01*
X131314500Y-103769500D01*
X131334502Y-103701379D01*
X131388158Y-103654886D01*
X131440500Y-103643500D01*
X131504134Y-103643500D01*
X131566316Y-103636745D01*
X131702705Y-103585615D01*
X131819261Y-103498261D01*
X131906615Y-103381705D01*
X131931180Y-103316178D01*
X131973822Y-103259414D01*
X132040383Y-103234714D01*
X132109732Y-103249921D01*
X132129647Y-103263464D01*
X132150467Y-103280749D01*
X132284517Y-103392039D01*
X132285349Y-103392730D01*
X132285206Y-103392902D01*
X132328101Y-103446570D01*
X132337500Y-103494321D01*
X132337500Y-106949127D01*
X132317498Y-107017248D01*
X132287153Y-107049887D01*
X132168658Y-107138856D01*
X132157655Y-107147117D01*
X132148036Y-107157183D01*
X132140170Y-107165414D01*
X132078646Y-107200844D01*
X132007733Y-107197387D01*
X131949947Y-107156141D01*
X131931094Y-107122592D01*
X131909768Y-107065705D01*
X131909767Y-107065703D01*
X131906615Y-107057295D01*
X131819261Y-106940739D01*
X131702705Y-106853385D01*
X131566316Y-106802255D01*
X131504134Y-106795500D01*
X129607866Y-106795500D01*
X129545684Y-106802255D01*
X129409295Y-106853385D01*
X129292739Y-106940739D01*
X129205385Y-107057295D01*
X129154255Y-107193684D01*
X129147500Y-107255866D01*
X129147500Y-107572422D01*
X129127498Y-107640543D01*
X129112974Y-107659074D01*
X129098473Y-107674382D01*
X129096094Y-107676825D01*
X126475590Y-110297329D01*
X126413278Y-110331355D01*
X126375513Y-110333755D01*
X126218075Y-110319981D01*
X126212600Y-110319502D01*
X125984513Y-110339457D01*
X125979200Y-110340881D01*
X125979198Y-110340881D01*
X125768667Y-110397293D01*
X125768665Y-110397294D01*
X125763357Y-110398716D01*
X125758376Y-110401039D01*
X125758375Y-110401039D01*
X125560838Y-110493151D01*
X125560833Y-110493154D01*
X125555851Y-110495477D01*
X125502901Y-110532553D01*
X125372811Y-110623643D01*
X125372808Y-110623645D01*
X125368300Y-110626802D01*
X125206402Y-110788700D01*
X125203245Y-110793208D01*
X125203243Y-110793211D01*
X125179245Y-110827484D01*
X125075077Y-110976251D01*
X125072754Y-110981233D01*
X125072751Y-110981238D01*
X124994878Y-111148240D01*
X124978316Y-111183757D01*
X124919057Y-111404913D01*
X124899102Y-111633000D01*
X124919057Y-111861087D01*
X124978316Y-112082243D01*
X124980639Y-112087224D01*
X124980639Y-112087225D01*
X125072751Y-112284762D01*
X125072754Y-112284767D01*
X125075077Y-112289749D01*
X125206402Y-112477300D01*
X125368300Y-112639198D01*
X125372808Y-112642355D01*
X125372811Y-112642357D01*
X125450989Y-112697098D01*
X125555851Y-112770523D01*
X125560833Y-112772846D01*
X125560838Y-112772849D01*
X125754740Y-112863266D01*
X125763357Y-112867284D01*
X125768665Y-112868706D01*
X125768667Y-112868707D01*
X125979198Y-112925119D01*
X125979200Y-112925119D01*
X125984513Y-112926543D01*
X126212600Y-112946498D01*
X126440687Y-112926543D01*
X126446000Y-112925119D01*
X126446002Y-112925119D01*
X126656533Y-112868707D01*
X126656535Y-112868706D01*
X126661843Y-112867284D01*
X126670460Y-112863266D01*
X126864362Y-112772849D01*
X126864367Y-112772846D01*
X126869349Y-112770523D01*
X126974211Y-112697098D01*
X127052389Y-112642357D01*
X127052392Y-112642355D01*
X127056900Y-112639198D01*
X127218798Y-112477300D01*
X127350123Y-112289749D01*
X127352446Y-112284767D01*
X127352449Y-112284762D01*
X127444561Y-112087225D01*
X127444561Y-112087224D01*
X127446884Y-112082243D01*
X127506143Y-111861087D01*
X127526098Y-111633000D01*
X127511845Y-111470087D01*
X127525834Y-111400482D01*
X127548271Y-111370010D01*
X129318744Y-109599537D01*
X129381056Y-109565511D01*
X129452068Y-109570650D01*
X129545684Y-109605745D01*
X129607866Y-109612500D01*
X131504134Y-109612500D01*
X131566316Y-109605745D01*
X131702705Y-109554615D01*
X131819261Y-109467261D01*
X131906615Y-109350705D01*
X131931180Y-109285178D01*
X131973822Y-109228414D01*
X132040383Y-109203714D01*
X132109732Y-109218921D01*
X132129647Y-109232464D01*
X132186724Y-109279850D01*
X132284517Y-109361039D01*
X132285349Y-109361730D01*
X132285206Y-109361902D01*
X132328101Y-109415570D01*
X132337500Y-109463321D01*
X132337500Y-112918127D01*
X132317498Y-112986248D01*
X132287153Y-113018887D01*
X132210199Y-113076666D01*
X132157655Y-113116117D01*
X132140170Y-113134414D01*
X132078646Y-113169844D01*
X132007733Y-113166387D01*
X131949947Y-113125141D01*
X131931094Y-113091592D01*
X131909768Y-113034705D01*
X131909767Y-113034703D01*
X131906615Y-113026295D01*
X131819261Y-112909739D01*
X131702705Y-112822385D01*
X131566316Y-112771255D01*
X131504134Y-112764500D01*
X129607866Y-112764500D01*
X129545684Y-112771255D01*
X129409295Y-112822385D01*
X129292739Y-112909739D01*
X129205385Y-113026295D01*
X129154255Y-113162684D01*
X129147500Y-113224866D01*
X129147500Y-114050500D01*
X129127498Y-114118621D01*
X129073842Y-114165114D01*
X129021500Y-114176500D01*
X127344467Y-114176500D01*
X127276346Y-114156498D01*
X127241255Y-114122772D01*
X127218798Y-114090700D01*
X127056900Y-113928802D01*
X127052392Y-113925645D01*
X127052389Y-113925643D01*
X126881091Y-113805699D01*
X126869349Y-113797477D01*
X126864367Y-113795154D01*
X126864362Y-113795151D01*
X126666825Y-113703039D01*
X126666824Y-113703039D01*
X126661843Y-113700716D01*
X126656535Y-113699294D01*
X126656533Y-113699293D01*
X126446002Y-113642881D01*
X126446000Y-113642881D01*
X126440687Y-113641457D01*
X126212600Y-113621502D01*
X125984513Y-113641457D01*
X125979200Y-113642881D01*
X125979198Y-113642881D01*
X125768667Y-113699293D01*
X125768665Y-113699294D01*
X125763357Y-113700716D01*
X125758376Y-113703039D01*
X125758375Y-113703039D01*
X125560838Y-113795151D01*
X125560833Y-113795154D01*
X125555851Y-113797477D01*
X125544109Y-113805699D01*
X125372811Y-113925643D01*
X125372808Y-113925645D01*
X125368300Y-113928802D01*
X125206402Y-114090700D01*
X125075077Y-114278251D01*
X125072754Y-114283233D01*
X125072751Y-114283238D01*
X124997556Y-114444497D01*
X124978316Y-114485757D01*
X124976894Y-114491065D01*
X124976893Y-114491067D01*
X124922710Y-114693280D01*
X124919057Y-114706913D01*
X124899102Y-114935000D01*
X124919057Y-115163087D01*
X124920481Y-115168400D01*
X124920481Y-115168402D01*
X124971534Y-115358931D01*
X124978316Y-115384243D01*
X124980639Y-115389224D01*
X124980639Y-115389225D01*
X125007697Y-115447251D01*
X125018358Y-115517443D01*
X124989378Y-115582256D01*
X124929958Y-115621112D01*
X124893502Y-115626501D01*
X119911698Y-115626501D01*
X119843577Y-115606499D01*
X119797084Y-115552843D01*
X119786980Y-115482569D01*
X119797503Y-115447251D01*
X119824561Y-115389225D01*
X119824561Y-115389224D01*
X119826884Y-115384243D01*
X119833667Y-115358931D01*
X119884719Y-115168402D01*
X119884719Y-115168400D01*
X119886143Y-115163087D01*
X119906098Y-114935000D01*
X119886143Y-114706913D01*
X119882490Y-114693280D01*
X119828307Y-114491067D01*
X119828306Y-114491065D01*
X119826884Y-114485757D01*
X119807644Y-114444497D01*
X119732449Y-114283238D01*
X119732446Y-114283233D01*
X119730123Y-114278251D01*
X119598798Y-114090700D01*
X119436900Y-113928802D01*
X119432392Y-113925645D01*
X119432389Y-113925643D01*
X119261091Y-113805699D01*
X119249349Y-113797477D01*
X119244367Y-113795154D01*
X119244362Y-113795151D01*
X119046825Y-113703039D01*
X119046824Y-113703039D01*
X119041843Y-113700716D01*
X119036535Y-113699294D01*
X119036533Y-113699293D01*
X118826002Y-113642881D01*
X118826000Y-113642881D01*
X118820687Y-113641457D01*
X118592600Y-113621502D01*
X118364513Y-113641457D01*
X118359200Y-113642881D01*
X118359198Y-113642881D01*
X118148667Y-113699293D01*
X118148665Y-113699294D01*
X118143357Y-113700716D01*
X118138376Y-113703039D01*
X118138375Y-113703039D01*
X117940838Y-113795151D01*
X117940833Y-113795154D01*
X117935851Y-113797477D01*
X117924109Y-113805699D01*
X117752811Y-113925643D01*
X117752808Y-113925645D01*
X117748300Y-113928802D01*
X117586402Y-114090700D01*
X117563945Y-114122771D01*
X117508490Y-114167099D01*
X117460733Y-114176500D01*
X115348262Y-114176500D01*
X115280141Y-114156498D01*
X115233648Y-114102842D01*
X115222741Y-114061481D01*
X115221781Y-114050500D01*
X115218521Y-114013239D01*
X115213023Y-113950394D01*
X115213022Y-113950389D01*
X115212543Y-113944913D01*
X115210465Y-113937156D01*
X115154707Y-113729067D01*
X115154706Y-113729065D01*
X115153284Y-113723757D01*
X115141876Y-113699293D01*
X115058849Y-113521238D01*
X115058846Y-113521233D01*
X115056523Y-113516251D01*
X114925198Y-113328700D01*
X114763300Y-113166802D01*
X114758792Y-113163645D01*
X114758789Y-113163643D01*
X114622039Y-113067890D01*
X114575749Y-113035477D01*
X114570767Y-113033154D01*
X114570762Y-113033151D01*
X114536543Y-113017195D01*
X114483258Y-112970278D01*
X114463797Y-112902001D01*
X114484339Y-112834041D01*
X114536543Y-112788805D01*
X114570762Y-112772849D01*
X114570767Y-112772846D01*
X114575749Y-112770523D01*
X114680611Y-112697098D01*
X114758789Y-112642357D01*
X114758792Y-112642355D01*
X114763300Y-112639198D01*
X114925198Y-112477300D01*
X114947655Y-112445229D01*
X115003110Y-112400901D01*
X115050867Y-112391500D01*
X117460733Y-112391500D01*
X117528854Y-112411502D01*
X117563945Y-112445228D01*
X117586402Y-112477300D01*
X117748300Y-112639198D01*
X117752808Y-112642355D01*
X117752811Y-112642357D01*
X117830989Y-112697098D01*
X117935851Y-112770523D01*
X117940833Y-112772846D01*
X117940838Y-112772849D01*
X118134740Y-112863266D01*
X118143357Y-112867284D01*
X118148665Y-112868706D01*
X118148667Y-112868707D01*
X118359198Y-112925119D01*
X118359200Y-112925119D01*
X118364513Y-112926543D01*
X118592600Y-112946498D01*
X118820687Y-112926543D01*
X118826000Y-112925119D01*
X118826002Y-112925119D01*
X119036533Y-112868707D01*
X119036535Y-112868706D01*
X119041843Y-112867284D01*
X119050460Y-112863266D01*
X119244362Y-112772849D01*
X119244367Y-112772846D01*
X119249349Y-112770523D01*
X119354211Y-112697098D01*
X119432389Y-112642357D01*
X119432392Y-112642355D01*
X119436900Y-112639198D01*
X119598798Y-112477300D01*
X119730123Y-112289749D01*
X119732446Y-112284767D01*
X119732449Y-112284762D01*
X119824561Y-112087225D01*
X119824561Y-112087224D01*
X119826884Y-112082243D01*
X119886143Y-111861087D01*
X119906098Y-111633000D01*
X119886143Y-111404913D01*
X119826884Y-111183757D01*
X119810322Y-111148240D01*
X119732449Y-110981238D01*
X119732446Y-110981233D01*
X119730123Y-110976251D01*
X119625955Y-110827484D01*
X119601957Y-110793211D01*
X119601955Y-110793208D01*
X119598798Y-110788700D01*
X119436900Y-110626802D01*
X119432392Y-110623645D01*
X119432389Y-110623643D01*
X119302299Y-110532553D01*
X119249349Y-110495477D01*
X119244367Y-110493154D01*
X119244362Y-110493151D01*
X119046825Y-110401039D01*
X119046824Y-110401039D01*
X119041843Y-110398716D01*
X119036535Y-110397294D01*
X119036533Y-110397293D01*
X118826002Y-110340881D01*
X118826000Y-110340881D01*
X118820687Y-110339457D01*
X118592600Y-110319502D01*
X118364513Y-110339457D01*
X118359200Y-110340881D01*
X118359198Y-110340881D01*
X118148667Y-110397293D01*
X118148665Y-110397294D01*
X118143357Y-110398716D01*
X118138376Y-110401039D01*
X118138375Y-110401039D01*
X117940838Y-110493151D01*
X117940833Y-110493154D01*
X117935851Y-110495477D01*
X117882901Y-110532553D01*
X117752811Y-110623643D01*
X117752808Y-110623645D01*
X117748300Y-110626802D01*
X117586402Y-110788700D01*
X117563945Y-110820771D01*
X117508490Y-110865099D01*
X117460733Y-110874500D01*
X115050867Y-110874500D01*
X114982746Y-110854498D01*
X114947655Y-110820772D01*
X114925198Y-110788700D01*
X114763300Y-110626802D01*
X114758792Y-110623645D01*
X114758789Y-110623643D01*
X114628699Y-110532553D01*
X114575749Y-110495477D01*
X114570767Y-110493154D01*
X114570762Y-110493151D01*
X114536543Y-110477195D01*
X114483258Y-110430278D01*
X114463797Y-110362001D01*
X114484339Y-110294041D01*
X114536543Y-110248805D01*
X114570762Y-110232849D01*
X114570767Y-110232846D01*
X114575749Y-110230523D01*
X114756598Y-110103891D01*
X114758789Y-110102357D01*
X114758792Y-110102355D01*
X114763300Y-110099198D01*
X114925198Y-109937300D01*
X114947655Y-109905229D01*
X115003110Y-109860901D01*
X115050867Y-109851500D01*
X117763530Y-109851500D01*
X117782480Y-109852933D01*
X117796715Y-109855099D01*
X117796719Y-109855099D01*
X117803949Y-109856199D01*
X117811241Y-109855606D01*
X117811244Y-109855606D01*
X117856618Y-109851915D01*
X117866833Y-109851500D01*
X117874893Y-109851500D01*
X117888183Y-109849951D01*
X117903107Y-109848211D01*
X117907482Y-109847778D01*
X117972939Y-109842454D01*
X117972942Y-109842453D01*
X117980237Y-109841860D01*
X117987201Y-109839604D01*
X117993160Y-109838413D01*
X117999015Y-109837029D01*
X118006281Y-109836182D01*
X118074927Y-109811265D01*
X118079055Y-109809848D01*
X118141536Y-109789607D01*
X118141538Y-109789606D01*
X118148499Y-109787351D01*
X118154754Y-109783555D01*
X118160228Y-109781049D01*
X118165658Y-109778330D01*
X118172537Y-109775833D01*
X118205446Y-109754257D01*
X118233576Y-109735814D01*
X118237280Y-109733477D01*
X118299707Y-109695595D01*
X118308084Y-109688197D01*
X118308108Y-109688224D01*
X118311099Y-109685572D01*
X118314333Y-109682868D01*
X118320452Y-109678856D01*
X118329496Y-109669310D01*
X118390862Y-109633613D01*
X118431947Y-109630443D01*
X118587124Y-109644019D01*
X118587125Y-109644019D01*
X118592600Y-109644498D01*
X118820687Y-109624543D01*
X118826000Y-109623119D01*
X118826002Y-109623119D01*
X119036533Y-109566707D01*
X119036535Y-109566706D01*
X119041843Y-109565284D01*
X119056443Y-109558476D01*
X119244362Y-109470849D01*
X119244367Y-109470846D01*
X119249349Y-109468523D01*
X119354211Y-109395098D01*
X119432389Y-109340357D01*
X119432392Y-109340355D01*
X119436900Y-109337198D01*
X119598798Y-109175300D01*
X119619732Y-109145404D01*
X119692486Y-109041500D01*
X119730123Y-108987749D01*
X119732446Y-108982767D01*
X119732449Y-108982762D01*
X119824561Y-108785225D01*
X119824561Y-108785224D01*
X119826884Y-108780243D01*
X119840339Y-108730031D01*
X119884719Y-108564402D01*
X119884719Y-108564400D01*
X119886143Y-108559087D01*
X119906098Y-108331000D01*
X119886143Y-108102913D01*
X119869201Y-108039684D01*
X119828307Y-107887067D01*
X119828306Y-107887065D01*
X119826884Y-107881757D01*
X119802368Y-107829181D01*
X119732449Y-107679238D01*
X119732446Y-107679233D01*
X119730123Y-107674251D01*
X119640015Y-107545564D01*
X119601957Y-107491211D01*
X119601955Y-107491208D01*
X119598798Y-107486700D01*
X119436900Y-107324802D01*
X119432392Y-107321645D01*
X119432389Y-107321643D01*
X119354211Y-107266902D01*
X119249349Y-107193477D01*
X119244367Y-107191154D01*
X119244362Y-107191151D01*
X119046825Y-107099039D01*
X119046824Y-107099039D01*
X119041843Y-107096716D01*
X119036535Y-107095294D01*
X119036533Y-107095293D01*
X118826002Y-107038881D01*
X118826000Y-107038881D01*
X118820687Y-107037457D01*
X118592600Y-107017502D01*
X118364513Y-107037457D01*
X118359200Y-107038881D01*
X118359198Y-107038881D01*
X118148667Y-107095293D01*
X118148665Y-107095294D01*
X118143357Y-107096716D01*
X118138376Y-107099039D01*
X118138375Y-107099039D01*
X117940838Y-107191151D01*
X117940833Y-107191154D01*
X117935851Y-107193477D01*
X117830989Y-107266902D01*
X117752811Y-107321643D01*
X117752808Y-107321645D01*
X117748300Y-107324802D01*
X117586402Y-107486700D01*
X117583245Y-107491208D01*
X117583243Y-107491211D01*
X117545185Y-107545564D01*
X117455077Y-107674251D01*
X117452754Y-107679233D01*
X117452751Y-107679238D01*
X117382832Y-107829181D01*
X117358316Y-107881757D01*
X117356894Y-107887065D01*
X117356893Y-107887067D01*
X117315999Y-108039684D01*
X117299057Y-108102913D01*
X117298578Y-108108389D01*
X117298577Y-108108394D01*
X117288859Y-108219481D01*
X117262996Y-108285599D01*
X117205492Y-108327239D01*
X117163338Y-108334500D01*
X115050867Y-108334500D01*
X114982746Y-108314498D01*
X114947655Y-108280772D01*
X114925198Y-108248700D01*
X114763300Y-108086802D01*
X114758792Y-108083645D01*
X114758789Y-108083643D01*
X114679021Y-108027789D01*
X114575749Y-107955477D01*
X114570767Y-107953154D01*
X114570762Y-107953151D01*
X114536543Y-107937195D01*
X114483258Y-107890278D01*
X114463797Y-107822001D01*
X114484339Y-107754041D01*
X114536543Y-107708805D01*
X114570762Y-107692849D01*
X114570767Y-107692846D01*
X114575749Y-107690523D01*
X114712108Y-107595043D01*
X114758789Y-107562357D01*
X114758792Y-107562355D01*
X114763300Y-107559198D01*
X114925198Y-107397300D01*
X114947655Y-107365229D01*
X115003110Y-107320901D01*
X115050867Y-107311500D01*
X117001530Y-107311500D01*
X117020480Y-107312933D01*
X117034715Y-107315099D01*
X117034719Y-107315099D01*
X117041949Y-107316199D01*
X117049241Y-107315606D01*
X117049244Y-107315606D01*
X117094618Y-107311915D01*
X117104833Y-107311500D01*
X117112893Y-107311500D01*
X117126183Y-107309951D01*
X117141107Y-107308211D01*
X117145482Y-107307778D01*
X117210939Y-107302454D01*
X117210942Y-107302453D01*
X117218237Y-107301860D01*
X117225201Y-107299604D01*
X117231160Y-107298413D01*
X117237015Y-107297029D01*
X117244281Y-107296182D01*
X117312927Y-107271265D01*
X117317055Y-107269848D01*
X117379536Y-107249607D01*
X117379538Y-107249606D01*
X117386499Y-107247351D01*
X117392754Y-107243555D01*
X117398228Y-107241049D01*
X117403658Y-107238330D01*
X117410537Y-107235833D01*
X117443446Y-107214257D01*
X117471576Y-107195814D01*
X117475282Y-107193475D01*
X117537707Y-107155595D01*
X117546084Y-107148197D01*
X117546108Y-107148224D01*
X117549100Y-107145571D01*
X117552333Y-107142868D01*
X117558452Y-107138856D01*
X117611728Y-107082617D01*
X117614106Y-107080175D01*
X118329610Y-106364671D01*
X118391922Y-106330645D01*
X118429687Y-106328245D01*
X118587125Y-106342019D01*
X118592600Y-106342498D01*
X118820687Y-106322543D01*
X118826000Y-106321119D01*
X118826002Y-106321119D01*
X119036533Y-106264707D01*
X119036535Y-106264706D01*
X119041843Y-106263284D01*
X119046825Y-106260961D01*
X119244362Y-106168849D01*
X119244367Y-106168846D01*
X119249349Y-106166523D01*
X119410571Y-106053634D01*
X119432389Y-106038357D01*
X119432392Y-106038355D01*
X119436900Y-106035198D01*
X119598798Y-105873300D01*
X119730123Y-105685749D01*
X119732446Y-105680767D01*
X119732449Y-105680762D01*
X119824561Y-105483225D01*
X119824561Y-105483224D01*
X119826884Y-105478243D01*
X119828615Y-105471785D01*
X119884719Y-105262402D01*
X119884719Y-105262400D01*
X119886143Y-105257087D01*
X119906098Y-105029000D01*
X119886143Y-104800913D01*
X119864647Y-104720689D01*
X119828307Y-104585067D01*
X119828306Y-104585065D01*
X119826884Y-104579757D01*
X119819828Y-104564626D01*
X119732449Y-104377238D01*
X119732446Y-104377233D01*
X119730123Y-104372251D01*
X119598798Y-104184700D01*
X119436900Y-104022802D01*
X119432392Y-104019645D01*
X119432389Y-104019643D01*
X119339369Y-103954510D01*
X119249349Y-103891477D01*
X119244367Y-103889154D01*
X119244362Y-103889151D01*
X119046825Y-103797039D01*
X119046824Y-103797039D01*
X119041843Y-103794716D01*
X119036535Y-103793294D01*
X119036533Y-103793293D01*
X118826002Y-103736881D01*
X118826000Y-103736881D01*
X118820687Y-103735457D01*
X118592600Y-103715502D01*
X118364513Y-103735457D01*
X118359200Y-103736881D01*
X118359198Y-103736881D01*
X118148667Y-103793293D01*
X118148665Y-103793294D01*
X118143357Y-103794716D01*
X118138376Y-103797039D01*
X118138375Y-103797039D01*
X117940838Y-103889151D01*
X117940833Y-103889154D01*
X117935851Y-103891477D01*
X117845831Y-103954510D01*
X117752811Y-104019643D01*
X117752808Y-104019645D01*
X117748300Y-104022802D01*
X117586402Y-104184700D01*
X117455077Y-104372251D01*
X117452754Y-104377233D01*
X117452751Y-104377238D01*
X117365372Y-104564626D01*
X117358316Y-104579757D01*
X117356894Y-104585065D01*
X117356893Y-104585067D01*
X117320553Y-104720689D01*
X117299057Y-104800913D01*
X117279102Y-105029000D01*
X117279581Y-105034475D01*
X117293355Y-105191913D01*
X117279366Y-105261518D01*
X117256929Y-105291990D01*
X116791324Y-105757595D01*
X116729012Y-105791621D01*
X116702229Y-105794500D01*
X115050867Y-105794500D01*
X114982746Y-105774498D01*
X114947655Y-105740772D01*
X114925198Y-105708700D01*
X114763300Y-105546802D01*
X114758792Y-105543645D01*
X114758789Y-105543643D01*
X114655838Y-105471556D01*
X114575749Y-105415477D01*
X114570767Y-105413154D01*
X114570762Y-105413151D01*
X114536543Y-105397195D01*
X114483258Y-105350278D01*
X114463797Y-105282001D01*
X114484339Y-105214041D01*
X114536543Y-105168805D01*
X114570762Y-105152849D01*
X114570767Y-105152846D01*
X114575749Y-105150523D01*
X114680611Y-105077098D01*
X114758789Y-105022357D01*
X114758792Y-105022355D01*
X114763300Y-105019198D01*
X114925198Y-104857300D01*
X115056523Y-104669749D01*
X115058846Y-104664767D01*
X115058849Y-104664762D01*
X115150961Y-104467225D01*
X115150961Y-104467224D01*
X115153284Y-104462243D01*
X115177398Y-104372251D01*
X115211119Y-104246402D01*
X115211119Y-104246400D01*
X115212543Y-104241087D01*
X115232498Y-104013000D01*
X115212543Y-103784913D01*
X115208413Y-103769500D01*
X115154707Y-103569067D01*
X115154706Y-103569065D01*
X115153284Y-103563757D01*
X115112341Y-103475954D01*
X115058849Y-103361238D01*
X115058846Y-103361233D01*
X115056523Y-103356251D01*
X114955957Y-103212628D01*
X114928357Y-103173211D01*
X114928355Y-103173208D01*
X114925198Y-103168700D01*
X114763300Y-103006802D01*
X114758792Y-103003645D01*
X114758789Y-103003643D01*
X114656333Y-102931903D01*
X114575749Y-102875477D01*
X114570767Y-102873154D01*
X114570762Y-102873151D01*
X114536543Y-102857195D01*
X114483258Y-102810278D01*
X114463797Y-102742001D01*
X114484339Y-102674041D01*
X114536543Y-102628805D01*
X114570762Y-102612849D01*
X114570767Y-102612846D01*
X114575749Y-102610523D01*
X114714790Y-102513165D01*
X114758789Y-102482357D01*
X114758792Y-102482355D01*
X114763300Y-102479198D01*
X114925198Y-102317300D01*
X114947655Y-102285229D01*
X115003110Y-102240901D01*
X115050867Y-102231500D01*
X117303812Y-102231500D01*
X117371933Y-102251502D01*
X117418007Y-102304251D01*
X117455077Y-102383749D01*
X117458231Y-102388253D01*
X117570724Y-102548909D01*
X117586402Y-102571300D01*
X117748300Y-102733198D01*
X117752808Y-102736355D01*
X117752811Y-102736357D01*
X117830989Y-102791098D01*
X117935851Y-102864523D01*
X117940833Y-102866846D01*
X117940838Y-102866849D01*
X118138375Y-102958961D01*
X118143357Y-102961284D01*
X118148665Y-102962706D01*
X118148667Y-102962707D01*
X118359198Y-103019119D01*
X118359200Y-103019119D01*
X118364513Y-103020543D01*
X118592600Y-103040498D01*
X118820687Y-103020543D01*
X118826000Y-103019119D01*
X118826002Y-103019119D01*
X119036533Y-102962707D01*
X119036535Y-102962706D01*
X119041843Y-102961284D01*
X119046825Y-102958961D01*
X119244362Y-102866849D01*
X119244367Y-102866846D01*
X119249349Y-102864523D01*
X119354211Y-102791098D01*
X119432389Y-102736357D01*
X119432392Y-102736355D01*
X119436900Y-102733198D01*
X119598798Y-102571300D01*
X119614477Y-102548909D01*
X119726966Y-102388257D01*
X119730123Y-102383749D01*
X119732447Y-102378765D01*
X119732449Y-102378762D01*
X119824561Y-102181225D01*
X119824561Y-102181224D01*
X119826884Y-102176243D01*
X119828663Y-102169606D01*
X119884719Y-101960402D01*
X119884719Y-101960400D01*
X119886143Y-101955087D01*
X119906098Y-101727000D01*
X119886143Y-101498913D01*
X119879200Y-101473000D01*
X119828307Y-101283067D01*
X119828306Y-101283065D01*
X119826884Y-101277757D01*
X119810098Y-101241758D01*
X119732449Y-101075238D01*
X119732446Y-101075233D01*
X119730123Y-101070251D01*
X119614140Y-100904610D01*
X119601957Y-100887211D01*
X119601955Y-100887208D01*
X119598798Y-100882700D01*
X119436900Y-100720802D01*
X119432392Y-100717645D01*
X119432389Y-100717643D01*
X119311807Y-100633211D01*
X119249349Y-100589477D01*
X119244367Y-100587154D01*
X119244362Y-100587151D01*
X119046825Y-100495039D01*
X119046824Y-100495039D01*
X119041843Y-100492716D01*
X119036535Y-100491294D01*
X119036533Y-100491293D01*
X118826002Y-100434881D01*
X118826000Y-100434881D01*
X118820687Y-100433457D01*
X118592600Y-100413502D01*
X118364513Y-100433457D01*
X118359200Y-100434881D01*
X118359198Y-100434881D01*
X118148667Y-100491293D01*
X118148665Y-100491294D01*
X118143357Y-100492716D01*
X118138376Y-100495039D01*
X118138375Y-100495039D01*
X117940838Y-100587151D01*
X117940833Y-100587154D01*
X117935851Y-100589477D01*
X117931344Y-100592633D01*
X117931342Y-100592634D01*
X117789843Y-100691713D01*
X117717572Y-100714500D01*
X115050867Y-100714500D01*
X114982746Y-100694498D01*
X114947655Y-100660772D01*
X114925198Y-100628700D01*
X114763300Y-100466802D01*
X114758792Y-100463645D01*
X114758789Y-100463643D01*
X114680611Y-100408902D01*
X114575749Y-100335477D01*
X114570767Y-100333154D01*
X114570762Y-100333151D01*
X114536543Y-100317195D01*
X114483258Y-100270278D01*
X114463797Y-100202001D01*
X114484339Y-100134041D01*
X114536543Y-100088805D01*
X114570762Y-100072849D01*
X114570767Y-100072846D01*
X114575749Y-100070523D01*
X114726668Y-99964848D01*
X114758789Y-99942357D01*
X114758792Y-99942355D01*
X114763300Y-99939198D01*
X114925198Y-99777300D01*
X114947655Y-99745229D01*
X115003110Y-99700901D01*
X115050867Y-99691500D01*
X118017530Y-99691500D01*
X118036480Y-99692933D01*
X118050715Y-99695099D01*
X118050719Y-99695099D01*
X118057949Y-99696199D01*
X118065241Y-99695606D01*
X118065244Y-99695606D01*
X118110618Y-99691915D01*
X118120833Y-99691500D01*
X118128893Y-99691500D01*
X118157109Y-99688211D01*
X118161468Y-99687779D01*
X118207404Y-99684042D01*
X118250230Y-99687921D01*
X118359191Y-99717118D01*
X118359202Y-99717120D01*
X118364513Y-99718543D01*
X118592600Y-99738498D01*
X118820687Y-99718543D01*
X118826000Y-99717119D01*
X118826002Y-99717119D01*
X119036533Y-99660707D01*
X119036535Y-99660706D01*
X119041843Y-99659284D01*
X119052433Y-99654346D01*
X119244362Y-99564849D01*
X119244367Y-99564846D01*
X119249349Y-99562523D01*
X119357442Y-99486835D01*
X119432389Y-99434357D01*
X119432392Y-99434355D01*
X119436900Y-99431198D01*
X119598798Y-99269300D01*
X119613966Y-99247639D01*
X119697999Y-99127627D01*
X119730123Y-99081749D01*
X119732446Y-99076767D01*
X119732449Y-99076762D01*
X119824561Y-98879225D01*
X119824561Y-98879224D01*
X119826884Y-98874243D01*
X119828708Y-98867438D01*
X119884719Y-98658402D01*
X119884719Y-98658400D01*
X119886143Y-98653087D01*
X119906098Y-98425000D01*
X119886143Y-98196913D01*
X119882745Y-98184232D01*
X119828307Y-97981067D01*
X119828306Y-97981064D01*
X119826884Y-97975757D01*
X119809609Y-97938710D01*
X119732449Y-97773238D01*
X119732446Y-97773233D01*
X119730123Y-97768251D01*
X119609317Y-97595722D01*
X119601957Y-97585211D01*
X119601955Y-97585208D01*
X119598798Y-97580700D01*
X119436900Y-97418802D01*
X119432392Y-97415645D01*
X119432389Y-97415643D01*
X119354211Y-97360902D01*
X119249349Y-97287477D01*
X119244367Y-97285154D01*
X119244362Y-97285151D01*
X119046825Y-97193039D01*
X119046824Y-97193039D01*
X119041843Y-97190716D01*
X119036535Y-97189294D01*
X119036533Y-97189293D01*
X118826002Y-97132881D01*
X118826000Y-97132881D01*
X118820687Y-97131457D01*
X118592600Y-97111502D01*
X118364513Y-97131457D01*
X118359200Y-97132881D01*
X118359198Y-97132881D01*
X118148667Y-97189293D01*
X118148665Y-97189294D01*
X118143357Y-97190716D01*
X118138376Y-97193039D01*
X118138375Y-97193039D01*
X117940838Y-97285151D01*
X117940833Y-97285154D01*
X117935851Y-97287477D01*
X117830989Y-97360902D01*
X117752811Y-97415643D01*
X117752808Y-97415645D01*
X117748300Y-97418802D01*
X117586402Y-97580700D01*
X117583245Y-97585208D01*
X117583243Y-97585211D01*
X117575883Y-97595722D01*
X117455077Y-97768251D01*
X117452754Y-97773233D01*
X117452751Y-97773238D01*
X117375591Y-97938710D01*
X117358316Y-97975757D01*
X117356894Y-97981064D01*
X117330086Y-98081112D01*
X117293134Y-98141734D01*
X117229273Y-98172756D01*
X117208379Y-98174500D01*
X115050867Y-98174500D01*
X114982746Y-98154498D01*
X114947655Y-98120772D01*
X114925198Y-98088700D01*
X114763300Y-97926802D01*
X114758792Y-97923645D01*
X114758789Y-97923643D01*
X114644560Y-97843659D01*
X114575749Y-97795477D01*
X114570767Y-97793154D01*
X114570762Y-97793151D01*
X114536543Y-97777195D01*
X114483258Y-97730278D01*
X114463797Y-97662001D01*
X114484339Y-97594041D01*
X114536543Y-97548805D01*
X114570762Y-97532849D01*
X114570767Y-97532846D01*
X114575749Y-97530523D01*
X114680611Y-97457098D01*
X114758789Y-97402357D01*
X114758792Y-97402355D01*
X114763300Y-97399198D01*
X114925198Y-97237300D01*
X114939041Y-97217531D01*
X115006159Y-97121676D01*
X115056523Y-97049749D01*
X115058846Y-97044767D01*
X115058849Y-97044762D01*
X115150961Y-96847225D01*
X115150961Y-96847224D01*
X115153284Y-96842243D01*
X115163136Y-96805477D01*
X115211119Y-96626402D01*
X115211119Y-96626400D01*
X115212543Y-96621087D01*
X115232498Y-96393000D01*
X115229765Y-96361759D01*
X115218245Y-96230087D01*
X115232234Y-96160482D01*
X115254671Y-96130010D01*
X115364676Y-96020005D01*
X115426988Y-95985979D01*
X115453771Y-95983100D01*
X120180633Y-95983100D01*
X120248754Y-96003102D01*
X120269728Y-96020005D01*
X120403624Y-96153901D01*
X120576842Y-96275189D01*
X120581820Y-96277510D01*
X120581823Y-96277512D01*
X120712310Y-96338359D01*
X120768490Y-96364556D01*
X120773798Y-96365978D01*
X120773800Y-96365979D01*
X120967430Y-96417862D01*
X120967432Y-96417862D01*
X120972745Y-96419286D01*
X121183400Y-96437716D01*
X121394055Y-96419286D01*
X121399368Y-96417862D01*
X121399370Y-96417862D01*
X121593000Y-96365979D01*
X121593002Y-96365978D01*
X121598310Y-96364556D01*
X121654490Y-96338359D01*
X121784977Y-96277512D01*
X121784980Y-96277510D01*
X121789958Y-96275189D01*
X121841840Y-96238861D01*
X123033694Y-96238861D01*
X123042990Y-96250876D01*
X123072589Y-96271601D01*
X123082077Y-96277079D01*
X123263677Y-96361759D01*
X123273971Y-96365507D01*
X123467522Y-96417369D01*
X123478309Y-96419271D01*
X123677925Y-96436735D01*
X123688875Y-96436735D01*
X123888491Y-96419271D01*
X123899278Y-96417369D01*
X124092829Y-96365507D01*
X124103123Y-96361759D01*
X124284723Y-96277079D01*
X124294211Y-96271601D01*
X124324648Y-96250289D01*
X124333023Y-96239812D01*
X124325954Y-96226364D01*
X123696212Y-95596622D01*
X123682268Y-95589008D01*
X123680435Y-95589139D01*
X123673820Y-95593390D01*
X123040124Y-96227086D01*
X123033694Y-96238861D01*
X121841840Y-96238861D01*
X121963176Y-96153901D01*
X122112701Y-96004376D01*
X122233989Y-95831158D01*
X122319482Y-95647818D01*
X122366398Y-95594534D01*
X122434675Y-95575073D01*
X122502635Y-95595615D01*
X122547871Y-95647820D01*
X122630921Y-95825923D01*
X122636399Y-95835411D01*
X122657711Y-95865848D01*
X122668188Y-95874223D01*
X122681636Y-95867154D01*
X123311378Y-95237412D01*
X123317756Y-95225732D01*
X124047808Y-95225732D01*
X124047939Y-95227565D01*
X124052190Y-95234180D01*
X124685886Y-95867876D01*
X124697661Y-95874306D01*
X124709676Y-95865010D01*
X124730401Y-95835411D01*
X124735879Y-95825923D01*
X124820559Y-95644323D01*
X124824307Y-95634029D01*
X124876169Y-95440478D01*
X124878071Y-95429691D01*
X124895535Y-95230075D01*
X124895535Y-95219125D01*
X124878071Y-95019509D01*
X124876169Y-95008722D01*
X124824307Y-94815171D01*
X124820559Y-94804877D01*
X124735879Y-94623277D01*
X124730401Y-94613789D01*
X124709089Y-94583352D01*
X124698612Y-94574977D01*
X124685164Y-94582046D01*
X124055422Y-95211788D01*
X124047808Y-95225732D01*
X123317756Y-95225732D01*
X123318992Y-95223468D01*
X123318861Y-95221635D01*
X123314610Y-95215020D01*
X122680914Y-94581324D01*
X122669139Y-94574894D01*
X122657124Y-94584190D01*
X122636399Y-94613789D01*
X122630921Y-94623277D01*
X122547871Y-94801380D01*
X122500954Y-94854666D01*
X122432677Y-94874127D01*
X122364717Y-94853585D01*
X122319481Y-94801381D01*
X122236312Y-94623023D01*
X122236310Y-94623020D01*
X122233989Y-94618042D01*
X122112701Y-94444824D01*
X121963176Y-94295299D01*
X121840482Y-94209388D01*
X123033777Y-94209388D01*
X123040846Y-94222836D01*
X123670588Y-94852578D01*
X123684532Y-94860192D01*
X123686365Y-94860061D01*
X123692980Y-94855810D01*
X124326676Y-94222114D01*
X124333106Y-94210339D01*
X124323810Y-94198324D01*
X124294211Y-94177599D01*
X124284723Y-94172121D01*
X124103123Y-94087441D01*
X124092829Y-94083693D01*
X123899278Y-94031831D01*
X123888491Y-94029929D01*
X123688875Y-94012465D01*
X123677925Y-94012465D01*
X123478309Y-94029929D01*
X123467522Y-94031831D01*
X123273971Y-94083693D01*
X123263677Y-94087441D01*
X123082077Y-94172121D01*
X123072589Y-94177599D01*
X123042152Y-94198911D01*
X123033777Y-94209388D01*
X121840482Y-94209388D01*
X121789958Y-94174011D01*
X121784980Y-94171690D01*
X121784977Y-94171688D01*
X121603292Y-94086967D01*
X121603291Y-94086966D01*
X121598310Y-94084644D01*
X121593002Y-94083222D01*
X121593000Y-94083221D01*
X121399370Y-94031338D01*
X121399368Y-94031338D01*
X121394055Y-94029914D01*
X121183400Y-94011484D01*
X120972745Y-94029914D01*
X120967432Y-94031338D01*
X120967430Y-94031338D01*
X120773800Y-94083221D01*
X120773798Y-94083222D01*
X120768490Y-94084644D01*
X120763509Y-94086966D01*
X120763508Y-94086967D01*
X120581823Y-94171688D01*
X120581820Y-94171690D01*
X120576842Y-94174011D01*
X120403624Y-94295299D01*
X120269728Y-94429195D01*
X120207416Y-94463221D01*
X120180633Y-94466100D01*
X115154469Y-94466100D01*
X115135521Y-94464667D01*
X115128180Y-94463550D01*
X115121283Y-94462501D01*
X115121281Y-94462501D01*
X115114051Y-94461401D01*
X115106759Y-94461994D01*
X115106756Y-94461994D01*
X115061382Y-94465685D01*
X115051167Y-94466100D01*
X115043107Y-94466100D01*
X115029817Y-94467649D01*
X115014893Y-94469389D01*
X115010518Y-94469822D01*
X114945061Y-94475146D01*
X114945058Y-94475147D01*
X114937763Y-94475740D01*
X114930799Y-94477996D01*
X114924840Y-94479187D01*
X114918985Y-94480571D01*
X114911719Y-94481418D01*
X114843073Y-94506335D01*
X114838945Y-94507752D01*
X114776464Y-94527993D01*
X114776462Y-94527994D01*
X114769501Y-94530249D01*
X114763246Y-94534045D01*
X114757772Y-94536551D01*
X114752342Y-94539270D01*
X114745463Y-94541767D01*
X114739343Y-94545780D01*
X114739342Y-94545780D01*
X114684424Y-94581786D01*
X114680720Y-94584123D01*
X114618293Y-94622005D01*
X114609916Y-94629403D01*
X114609892Y-94629376D01*
X114606900Y-94632029D01*
X114603667Y-94634732D01*
X114597548Y-94638744D01*
X114592516Y-94644056D01*
X114544272Y-94694983D01*
X114541894Y-94697425D01*
X114181990Y-95057329D01*
X114119678Y-95091355D01*
X114081913Y-95093755D01*
X113924475Y-95079981D01*
X113919000Y-95079502D01*
X113690913Y-95099457D01*
X113685600Y-95100881D01*
X113685598Y-95100881D01*
X113475067Y-95157293D01*
X113475065Y-95157294D01*
X113469757Y-95158716D01*
X113464776Y-95161039D01*
X113464775Y-95161039D01*
X113267238Y-95253151D01*
X113267233Y-95253154D01*
X113262251Y-95255477D01*
X113251730Y-95262844D01*
X113079211Y-95383643D01*
X113079208Y-95383645D01*
X113074700Y-95386802D01*
X112912802Y-95548700D01*
X112909645Y-95553208D01*
X112909643Y-95553211D01*
X112878190Y-95598131D01*
X112781477Y-95736251D01*
X112779154Y-95741233D01*
X112779151Y-95741238D01*
X112717140Y-95874223D01*
X112684716Y-95943757D01*
X112683294Y-95949065D01*
X112683293Y-95949067D01*
X112659631Y-96037373D01*
X112625457Y-96164913D01*
X112605502Y-96393000D01*
X112625457Y-96621087D01*
X112626881Y-96626400D01*
X112626881Y-96626402D01*
X112674865Y-96805477D01*
X112684716Y-96842243D01*
X112687039Y-96847224D01*
X112687039Y-96847225D01*
X112779151Y-97044762D01*
X112779154Y-97044767D01*
X112781477Y-97049749D01*
X112831841Y-97121676D01*
X112898960Y-97217531D01*
X112912802Y-97237300D01*
X113074700Y-97399198D01*
X113079208Y-97402355D01*
X113079211Y-97402357D01*
X113157389Y-97457098D01*
X113262251Y-97530523D01*
X113267233Y-97532846D01*
X113267238Y-97532849D01*
X113301457Y-97548805D01*
X113354742Y-97595722D01*
X113374203Y-97663999D01*
X113353661Y-97731959D01*
X113301457Y-97777195D01*
X113267238Y-97793151D01*
X113267233Y-97793154D01*
X113262251Y-97795477D01*
X113074700Y-97926802D01*
X113070810Y-97930692D01*
X113070804Y-97930697D01*
X113053501Y-97948000D01*
X112991189Y-97982026D01*
X112920374Y-97976961D01*
X112875311Y-97948000D01*
X108502589Y-93575278D01*
X108490203Y-93560866D01*
X108481670Y-93549271D01*
X108481665Y-93549266D01*
X108477327Y-93543371D01*
X108471749Y-93538632D01*
X108471746Y-93538629D01*
X108437051Y-93509154D01*
X108429535Y-93502224D01*
X108423840Y-93496529D01*
X108407555Y-93483645D01*
X108401568Y-93478908D01*
X108398164Y-93476117D01*
X108348116Y-93433598D01*
X108348114Y-93433597D01*
X108342534Y-93428856D01*
X108336018Y-93425528D01*
X108330969Y-93422161D01*
X108325840Y-93418994D01*
X108320103Y-93414455D01*
X108253944Y-93383534D01*
X108250044Y-93381628D01*
X108185011Y-93348420D01*
X108177903Y-93346681D01*
X108172260Y-93344582D01*
X108166497Y-93342665D01*
X108159869Y-93339567D01*
X108088402Y-93324702D01*
X108084118Y-93323732D01*
X108049777Y-93315329D01*
X108013209Y-93306381D01*
X108007607Y-93306033D01*
X108007604Y-93306033D01*
X108002055Y-93305689D01*
X108002057Y-93305653D01*
X107998064Y-93305414D01*
X107993872Y-93305040D01*
X107986704Y-93303549D01*
X107922939Y-93305274D01*
X107909298Y-93305643D01*
X107905891Y-93305689D01*
X69570917Y-93305689D01*
X69551967Y-93304256D01*
X69537732Y-93302090D01*
X69537728Y-93302090D01*
X69530498Y-93300990D01*
X69523206Y-93301583D01*
X69523203Y-93301583D01*
X69477829Y-93305274D01*
X69467614Y-93305689D01*
X69459554Y-93305689D01*
X69446264Y-93307238D01*
X69431340Y-93308978D01*
X69426965Y-93309411D01*
X69361508Y-93314735D01*
X69361505Y-93314736D01*
X69354210Y-93315329D01*
X69347246Y-93317585D01*
X69341287Y-93318776D01*
X69335432Y-93320160D01*
X69328166Y-93321007D01*
X69259520Y-93345924D01*
X69255392Y-93347341D01*
X69192911Y-93367582D01*
X69192909Y-93367583D01*
X69185948Y-93369838D01*
X69179693Y-93373634D01*
X69174219Y-93376140D01*
X69168789Y-93378859D01*
X69161910Y-93381356D01*
X69155790Y-93385369D01*
X69155789Y-93385369D01*
X69100871Y-93421375D01*
X69097167Y-93423712D01*
X69034740Y-93461594D01*
X69026363Y-93468992D01*
X69026339Y-93468965D01*
X69023347Y-93471618D01*
X69020114Y-93474321D01*
X69013995Y-93478333D01*
X68984798Y-93509154D01*
X68960719Y-93534572D01*
X68958341Y-93537014D01*
X64839889Y-97655466D01*
X64825477Y-97667852D01*
X64813882Y-97676385D01*
X64813877Y-97676390D01*
X64807982Y-97680728D01*
X64803243Y-97686306D01*
X64803240Y-97686309D01*
X64773765Y-97721004D01*
X64766835Y-97728520D01*
X64761140Y-97734215D01*
X64758860Y-97737097D01*
X64743519Y-97756487D01*
X64740728Y-97759892D01*
X64703251Y-97804004D01*
X64643902Y-97842967D01*
X64572908Y-97843659D01*
X64529135Y-97821305D01*
X64385414Y-97707800D01*
X64385410Y-97707798D01*
X64381359Y-97704598D01*
X64348229Y-97686309D01*
X64314600Y-97667745D01*
X64185789Y-97596638D01*
X64180920Y-97594914D01*
X64180916Y-97594912D01*
X63980087Y-97523795D01*
X63980083Y-97523794D01*
X63975212Y-97522069D01*
X63970119Y-97521162D01*
X63970116Y-97521161D01*
X63760373Y-97483800D01*
X63760367Y-97483799D01*
X63755284Y-97482894D01*
X63681452Y-97481992D01*
X63537081Y-97480228D01*
X63537079Y-97480228D01*
X63531911Y-97480165D01*
X63311091Y-97513955D01*
X63098756Y-97583357D01*
X63034868Y-97616615D01*
X62947683Y-97662001D01*
X62900607Y-97686507D01*
X62896474Y-97689610D01*
X62896471Y-97689612D01*
X62744115Y-97804004D01*
X62721965Y-97820635D01*
X62700624Y-97842967D01*
X62615359Y-97932192D01*
X62567629Y-97982138D01*
X62564715Y-97986410D01*
X62564714Y-97986411D01*
X62491860Y-98093211D01*
X62441743Y-98166680D01*
X62347688Y-98369305D01*
X62287989Y-98584570D01*
X62264251Y-98806695D01*
X62264548Y-98811848D01*
X62264548Y-98811851D01*
X62275106Y-98994964D01*
X62277110Y-99029715D01*
X62278247Y-99034761D01*
X62278248Y-99034767D01*
X62298994Y-99126819D01*
X62326222Y-99247639D01*
X62378892Y-99377351D01*
X62399175Y-99427301D01*
X62410266Y-99454616D01*
X62441426Y-99505465D01*
X62523229Y-99638955D01*
X62526987Y-99645088D01*
X62673250Y-99813938D01*
X62845126Y-99956632D01*
X62915595Y-99997811D01*
X62918445Y-99999476D01*
X62967169Y-100051114D01*
X62980240Y-100120897D01*
X62953509Y-100186669D01*
X62913055Y-100220027D01*
X62900607Y-100226507D01*
X62896474Y-100229610D01*
X62896471Y-100229612D01*
X62726100Y-100357530D01*
X62721965Y-100360635D01*
X62718393Y-100364373D01*
X62598714Y-100489610D01*
X62567629Y-100522138D01*
X62564715Y-100526410D01*
X62564714Y-100526411D01*
X62491860Y-100633211D01*
X62441743Y-100706680D01*
X62398996Y-100798770D01*
X62351871Y-100900294D01*
X62347688Y-100909305D01*
X62287989Y-101124570D01*
X62264251Y-101346695D01*
X62264548Y-101351848D01*
X62264548Y-101351851D01*
X62274573Y-101525713D01*
X62277110Y-101569715D01*
X62278247Y-101574761D01*
X62278248Y-101574767D01*
X62299052Y-101667077D01*
X62326222Y-101787639D01*
X62380879Y-101922243D01*
X62405780Y-101983567D01*
X62410266Y-101994616D01*
X62424095Y-102017183D01*
X62520176Y-102173973D01*
X62526987Y-102185088D01*
X62673250Y-102353938D01*
X62845126Y-102496632D01*
X62872755Y-102512777D01*
X62918445Y-102539476D01*
X62967169Y-102591114D01*
X62980240Y-102660897D01*
X62953509Y-102726669D01*
X62913055Y-102760027D01*
X62900607Y-102766507D01*
X62896474Y-102769610D01*
X62896471Y-102769612D01*
X62726100Y-102897530D01*
X62721965Y-102900635D01*
X62567629Y-103062138D01*
X62441743Y-103246680D01*
X62410265Y-103314494D01*
X62359804Y-103423204D01*
X62347688Y-103449305D01*
X62287989Y-103664570D01*
X62264251Y-103886695D01*
X60249300Y-103886695D01*
X60249300Y-91642700D01*
X60269302Y-91574579D01*
X60322958Y-91528086D01*
X60375300Y-91516700D01*
X148641300Y-91516700D01*
X148709421Y-91536702D01*
G37*
G04 #@! TD.AperFunction*
M02*
