G04 #@! TF.GenerationSoftware,KiCad,Pcbnew,6.0.5-a6ca702e91~116~ubuntu20.04.1*
G04 #@! TF.CreationDate,2022-06-19T16:15:55+02:00*
G04 #@! TF.ProjectId,PCF8574,50434638-3537-4342-9e6b-696361645f70,1.0*
G04 #@! TF.SameCoordinates,Original*
G04 #@! TF.FileFunction,Soldermask,Top*
G04 #@! TF.FilePolarity,Negative*
%FSLAX46Y46*%
G04 Gerber Fmt 4.6, Leading zero omitted, Abs format (unit mm)*
G04 Created by KiCad (PCBNEW 6.0.5-a6ca702e91~116~ubuntu20.04.1) date 2022-06-19 16:15:55*
%MOMM*%
%LPD*%
G01*
G04 APERTURE LIST*
G04 Aperture macros list*
%AMRoundRect*
0 Rectangle with rounded corners*
0 $1 Rounding radius*
0 $2 $3 $4 $5 $6 $7 $8 $9 X,Y pos of 4 corners*
0 Add a 4 corners polygon primitive as box body*
4,1,4,$2,$3,$4,$5,$6,$7,$8,$9,$2,$3,0*
0 Add four circle primitives for the rounded corners*
1,1,$1+$1,$2,$3*
1,1,$1+$1,$4,$5*
1,1,$1+$1,$6,$7*
1,1,$1+$1,$8,$9*
0 Add four rect primitives between the rounded corners*
20,1,$1+$1,$2,$3,$4,$5,0*
20,1,$1+$1,$4,$5,$6,$7,0*
20,1,$1+$1,$6,$7,$8,$9,0*
20,1,$1+$1,$8,$9,$2,$3,0*%
G04 Aperture macros list end*
%ADD10C,1.702000*%
%ADD11O,1.702000X1.702000*%
%ADD12RoundRect,0.051000X-0.800000X-0.800000X0.800000X-0.800000X0.800000X0.800000X-0.800000X0.800000X0*%
%ADD13RoundRect,0.051000X-0.900000X-0.900000X0.900000X-0.900000X0.900000X0.900000X-0.900000X0.900000X0*%
%ADD14C,1.902000*%
%ADD15RoundRect,0.051000X0.850000X0.850000X-0.850000X0.850000X-0.850000X-0.850000X0.850000X-0.850000X0*%
%ADD16O,1.802000X1.802000*%
%ADD17RoundRect,0.051000X-0.850000X0.850000X-0.850000X-0.850000X0.850000X-0.850000X0.850000X0.850000X0*%
%ADD18C,1.502000*%
%ADD19C,2.102000*%
G04 APERTURE END LIST*
D10*
X126212600Y-101727000D03*
D11*
X118592600Y-101727000D03*
D10*
X94526000Y-114808000D03*
D11*
X94526000Y-107188000D03*
D10*
X126212600Y-114935000D03*
D11*
X118592600Y-114935000D03*
D10*
X126212600Y-111633000D03*
D11*
X118592600Y-111633000D03*
D10*
X126212600Y-108331000D03*
D11*
X118592600Y-108331000D03*
D10*
X126212600Y-105029000D03*
D11*
X118592600Y-105029000D03*
D10*
X101130000Y-114808000D03*
D11*
X101130000Y-107188000D03*
D10*
X97828000Y-114808000D03*
D11*
X97828000Y-107188000D03*
D10*
X126212600Y-98425000D03*
D11*
X118592600Y-98425000D03*
D12*
X106299000Y-96393000D03*
D11*
X106299000Y-98933000D03*
X106299000Y-101473000D03*
X106299000Y-104013000D03*
X106299000Y-106553000D03*
X106299000Y-109093000D03*
X106299000Y-111633000D03*
X106299000Y-114173000D03*
X113919000Y-114173000D03*
X113919000Y-111633000D03*
X113919000Y-109093000D03*
X113919000Y-106553000D03*
X113919000Y-104013000D03*
X113919000Y-101473000D03*
X113919000Y-98933000D03*
X113919000Y-96393000D03*
D13*
X130429000Y-96266000D03*
D14*
X132969000Y-96266000D03*
D13*
X130556000Y-102235000D03*
D14*
X133096000Y-102235000D03*
D13*
X130556000Y-108204000D03*
D14*
X133096000Y-108204000D03*
D13*
X130556000Y-114173000D03*
D14*
X133096000Y-114173000D03*
D15*
X139000000Y-109000000D03*
D16*
X139000000Y-106460000D03*
X139000000Y-103920000D03*
X139000000Y-101380000D03*
D17*
X100400000Y-98425000D03*
D16*
X100400000Y-100965000D03*
X97860000Y-98425000D03*
X97860000Y-100965000D03*
X95320000Y-98425000D03*
X95320000Y-100965000D03*
D18*
X121183400Y-95224600D03*
X123683400Y-95224600D03*
D19*
X70500000Y-101000000D03*
X77000000Y-101000000D03*
X77000000Y-96500000D03*
X70500000Y-96500000D03*
X88500000Y-101000000D03*
X82000000Y-101000000D03*
X82000000Y-96500000D03*
X88500000Y-96500000D03*
X70500000Y-109800000D03*
X77000000Y-109800000D03*
X70500000Y-114300000D03*
X77000000Y-114300000D03*
X88500000Y-109800000D03*
X82000000Y-109800000D03*
X88500000Y-114300000D03*
X82000000Y-114300000D03*
D15*
X63627000Y-109000000D03*
D16*
X63627000Y-106460000D03*
X63627000Y-103920000D03*
X63627000Y-101380000D03*
X63627000Y-98840000D03*
M02*
