M48
; DRILL file {KiCad 6.0.5-a6ca702e91~116~ubuntu20.04.1} date nedjelja, 19. lipnja 2022. 12:28:43 CEST
; FORMAT={-:-/ absolute / metric / decimal}
; #@! TF.CreationDate,2022-06-19T12:28:43+02:00
; #@! TF.GenerationSoftware,Kicad,Pcbnew,6.0.5-a6ca702e91~116~ubuntu20.04.1
; #@! TF.FileFunction,Plated,1,2,PTH
FMAT,2
METRIC
; #@! TA.AperFunction,Plated,PTH,ComponentDrill
T1C0.700
; #@! TA.AperFunction,Plated,PTH,ComponentDrill
T2C0.800
; #@! TA.AperFunction,Plated,PTH,ComponentDrill
T3C0.900
; #@! TA.AperFunction,Plated,PTH,ComponentDrill
T4C1.000
; #@! TA.AperFunction,Plated,PTH,ComponentDrill
T5C1.100
%
G90
G05
T1
X121.183Y-95.225
X123.683Y-95.225
T2
X94.526Y-107.188
X94.526Y-114.808
X97.828Y-107.188
X97.828Y-114.808
X101.13Y-107.188
X101.13Y-114.808
X106.299Y-96.393
X106.299Y-98.933
X106.299Y-101.473
X106.299Y-104.013
X106.299Y-106.553
X106.299Y-109.093
X106.299Y-111.633
X106.299Y-114.173
X113.919Y-96.393
X113.919Y-98.933
X113.919Y-101.473
X113.919Y-104.013
X113.919Y-106.553
X113.919Y-109.093
X113.919Y-111.633
X113.919Y-114.173
X118.593Y-98.425
X118.593Y-101.727
X118.593Y-105.029
X118.593Y-108.331
X118.593Y-111.633
X118.593Y-114.935
X126.213Y-98.425
X126.213Y-101.727
X126.213Y-105.029
X126.213Y-108.331
X126.213Y-111.633
X126.213Y-114.935
T3
X130.429Y-96.266
X130.556Y-102.235
X130.556Y-108.204
X130.556Y-114.173
X132.969Y-96.266
X133.096Y-102.235
X133.096Y-108.204
X133.096Y-114.173
T4
X63.627Y-98.84
X63.627Y-101.38
X63.627Y-103.92
X63.627Y-106.46
X63.627Y-109.0
X95.32Y-98.425
X95.32Y-100.965
X97.86Y-98.425
X97.86Y-100.965
X100.4Y-98.425
X100.4Y-100.965
X139.0Y-101.38
X139.0Y-103.92
X139.0Y-106.46
X139.0Y-109.0
T5
X70.5Y-96.5
X70.5Y-101.0
X70.5Y-109.8
X70.5Y-114.3
X77.0Y-96.5
X77.0Y-101.0
X77.0Y-109.8
X77.0Y-114.3
X82.0Y-96.5
X82.0Y-101.0
X82.0Y-109.8
X82.0Y-114.3
X88.5Y-96.5
X88.5Y-101.0
X88.5Y-109.8
X88.5Y-114.3
T0
M30
